<svg width="64" height="64" viewBox="0 0 64 64" fill="none" xmlns="http://www.w3.org/2000/svg">
<path d="M31.0591 16.2745C30.7608 15.9877 30.6204 15.6471 30.6204 15.2168V11.5417C30.6204 11.1115 30.7608 10.7529 31.0591 10.4482C31.3574 10.1434 31.7083 10 32.1119 10C32.533 10 32.8839 10.1434 33.1647 10.4482C33.4279 10.735 33.5682 11.1115 33.5682 11.5417V15.1989C33.5682 15.6471 33.4279 16.0056 33.1647 16.2745C32.9015 16.5434 32.5505 16.6869 32.1119 16.6869C31.6908 16.6869 31.3574 16.5614 31.0591 16.2745Z" fill="#44C650"/>
<path d="M47.7255 31.0591C48.0123 30.7608 48.3529 30.6204 48.7832 30.6204L52.4583 30.6204C52.8885 30.6204 53.2471 30.7608 53.5518 31.0591C53.8566 31.3574 54 31.7083 54 32.1119C54 32.533 53.8566 32.8839 53.5518 33.1647C53.265 33.4279 52.8885 33.5682 52.4583 33.5682L48.8011 33.5682C48.3529 33.5682 47.9944 33.4278 47.7255 33.1647C47.4566 32.9015 47.3131 32.5505 47.3131 32.1119C47.3131 31.6908 47.4386 31.3574 47.7255 31.0591Z" fill="#44C650"/>
<path d="M44.4693 42.0233C44.883 42.0152 45.2232 42.1568 45.5274 42.4611L48.1261 45.0597C48.4303 45.364 48.5846 45.7168 48.5892 46.1432C48.5937 46.5696 48.447 46.9192 48.1616 47.2045C47.8639 47.5023 47.5143 47.649 47.1003 47.632C46.7114 47.6153 46.3459 47.4484 46.0417 47.1441L43.4557 44.5581C43.1387 44.2412 42.9845 43.8884 42.9804 43.5122C42.9764 43.1359 43.1231 42.7864 43.4333 42.4762C43.7311 42.1784 44.0556 42.0314 44.4693 42.0233Z" fill="#44C650"/>
<path d="M16.9754 16.4933C17.3891 16.4852 17.7293 16.6268 18.0335 16.931L20.6322 19.5297C20.9364 19.8339 21.0907 20.1867 21.0953 20.6131C21.0998 21.0396 20.9531 21.3891 20.6677 21.6745C20.37 21.9723 20.0204 22.119 19.6064 22.102C19.2175 22.0853 18.852 21.9183 18.5478 21.6141L15.9618 19.0281C15.6449 18.7112 15.4906 18.3584 15.4865 17.9821C15.4825 17.6059 15.6292 17.2563 15.9394 16.9462C16.2372 16.6484 16.5617 16.5014 16.9754 16.4933Z" fill="#44C650"/>
<path d="M10.4123 31.0591C10.6992 30.7608 11.0398 30.6204 11.47 30.6204L15.1451 30.6204C15.5754 30.6204 15.9339 30.7608 16.2387 31.0591C16.5434 31.3574 16.6869 31.7083 16.6869 32.1119C16.6869 32.533 16.5434 32.8839 16.2387 33.1647C15.9518 33.4279 15.5754 33.5682 15.1451 33.5682L11.488 33.5682C11.0398 33.5682 10.6812 33.4278 10.4123 33.1647C10.1434 32.9015 9.99999 32.5505 9.99999 32.1119C9.99999 31.6908 10.1255 31.3574 10.4123 31.0591Z" fill="#44C650"/>
<path d="M43.0052 20.6385C42.9971 20.2247 43.1387 19.8846 43.443 19.5804L46.0417 16.9817C46.3459 16.6775 46.6987 16.5232 47.1251 16.5186C47.5515 16.5141 47.9011 16.6608 48.1864 16.9462C48.4842 17.2439 48.631 17.5935 48.614 18.0075C48.5973 18.3964 48.4303 18.7619 48.1261 19.0661L45.5401 21.6521C45.2232 21.969 44.8704 22.1233 44.4941 22.1274C44.1179 22.1314 43.7683 21.9847 43.4581 21.6745C43.1603 21.3767 43.0133 21.0522 43.0052 20.6385Z" fill="#44C650"/>
<path d="M15.5114 46.1685C15.5033 45.7548 15.6448 45.4147 15.9491 45.1104L18.5478 42.5118C18.852 42.2075 19.2048 42.0533 19.6312 42.0487C20.0576 42.0441 20.4072 42.1908 20.6926 42.4762C20.9903 42.774 21.1371 43.1235 21.1201 43.5375C21.1034 43.9265 20.9364 44.2919 20.6322 44.5962L18.0462 47.1822C17.7293 47.4991 17.3765 47.6534 17.0002 47.6574C16.624 47.6614 16.2744 47.5147 15.9642 47.2045C15.6665 46.9068 15.5194 46.5823 15.5114 46.1685Z" fill="#44C650"/>
<path d="M31.0591 53.5877C30.7608 53.3008 30.6204 52.9602 30.6204 52.53V48.8549C30.6204 48.4246 30.7608 48.0661 31.0591 47.7613C31.3574 47.4566 31.7083 47.3131 32.1119 47.3131C32.533 47.3131 32.8839 47.4566 33.1647 47.7613C33.4279 48.0482 33.5682 48.4246 33.5682 48.8549V52.512C33.5682 52.9602 33.4279 53.3188 33.1647 53.5877C32.9015 53.8566 32.5505 54 32.1119 54C31.6908 54 31.3574 53.8745 31.0591 53.5877Z" fill="#44C650"/>
<circle cx="32.0933" cy="32.0933" r="10.7741" stroke="#44C650" stroke-width="3"/>
</svg>
