<svg width="64" height="64" viewBox="0 0 64 64" fill="none" xmlns="http://www.w3.org/2000/svg">
<path d="M49 41.0228L50.315 41.7444L51.3694 39.8228L49.1964 39.5357L49 41.0228ZM33.8181 25.2554L32.3249 25.3972L32.3249 25.3972L33.8181 25.2554ZM35.8978 15.1508L37.2128 15.8724L38.2672 13.9507L36.0942 13.6637L35.8978 15.1508ZM31.9182 15.0799L31.7764 13.5866L31.7764 13.5866L31.9182 15.0799ZM16.0799 34.2414L17.5732 34.0996L16.0799 34.2414ZM35.2414 50.0797L35.0996 48.5864L35.0996 48.5864L35.2414 50.0797ZM49.1964 39.5357C41.9356 38.5766 36.033 32.7136 35.3114 25.1136L32.3249 25.3972C33.1815 34.4193 40.1875 41.3718 48.8036 42.5099L49.1964 39.5357ZM35.3114 25.1136C34.9952 21.7829 35.7176 18.5975 37.2128 15.8724L34.5828 14.4292C32.8075 17.6645 31.95 21.4495 32.3249 25.3972L35.3114 25.1136ZM32.06 16.5732C33.3004 16.4554 34.5196 16.4818 35.7014 16.6379L36.0942 13.6637C34.6897 13.4782 33.2437 13.4473 31.7764 13.5866L32.06 16.5732ZM17.5732 34.0996C16.7338 25.2594 23.2198 17.4126 32.06 16.5732L31.7764 13.5866C21.2868 14.5826 13.5906 23.8935 14.5866 34.3832L17.5732 34.0996ZM35.0996 48.5864C26.2594 49.4257 18.4126 42.9398 17.5732 34.0996L14.5866 34.3832C15.5826 44.8728 24.8935 52.5689 35.3832 51.5729L35.0996 48.5864ZM47.685 40.3012C45.2062 44.8187 40.6098 48.0632 35.0996 48.5864L35.3832 51.5729C41.9245 50.9518 47.3785 47.0961 50.315 41.7444L47.685 40.3012Z" fill="#44C650"/>
</svg>
