<svg width="64" height="64" viewBox="0 0 64 64" fill="none" xmlns="http://www.w3.org/2000/svg">
<circle cx="28.5" cy="46.5" r="1.5" fill="#44C650"/>
<circle cx="28.5" cy="40.5" r="1.5" fill="#44C650"/>
<circle cx="34.049" cy="43.251" r="1.5" transform="rotate(-120 34.049 43.251)" fill="#44C650"/>
<circle cx="34.049" cy="49.049" r="1.5" transform="rotate(-120 34.049 49.049)" fill="#44C650"/>
<circle cx="28.5" cy="52.5" r="1.5" fill="#44C650"/>
<circle cx="23.049" cy="49.049" r="1.5" transform="rotate(-120 23.049 49.049)" fill="#44C650"/>
<circle cx="23.049" cy="43.251" r="1.5" transform="rotate(-120 23.049 43.251)" fill="#44C650"/>
<path d="M15.8806 31.2024C16.8088 30.5785 17.6669 30.3817 18.7242 30.2559H19.7085C19.9091 30.2559 20.0002 30.148 20.0002 29.9142L20.1278 28.9073C20.2554 27.6307 20.6747 26.462 21.3856 25.4011C22.0965 24.3582 23.0262 23.5311 24.1747 22.9378C25.3231 22.3444 26.5444 22.0387 27.8569 22.0387C29.8439 22.0387 31.5756 22.704 33.0522 24.0166C34.5287 25.3292 35.3673 26.9654 35.586 28.9073L35.7136 29.9142C35.7136 30.13 35.823 30.2559 36.0417 30.2559H38.9584C40.5808 30.2559 41.9662 30.8313 43.1511 31.982C44.336 33.1328 44.9193 34.4813 44.9193 36.0636C44.9193 37.6819 44.336 39.0664 43.1511 40.2172C41.9844 41.3679 40.5808 41.9433 38.9402 41.9433H37.6017C37.4012 41.9433 37.2918 42.0512 37.2918 42.2849V44.6764C37.2918 44.8921 37.4012 45 37.6017 45H38.9402C40.5808 45 42.0938 44.6044 43.4792 43.7953C44.8646 43.0042 45.9766 41.9073 46.7787 40.5408C47.5807 39.1743 48 37.6819 48 36.0636C48 34.751 47.7448 33.5643 47.2162 32.4495C46.7817 31.2268 45.8077 30.178 45.375 29.8064C43.6615 28.0982 41.5287 27.2351 38.9948 27.2351H38.448C37.9193 25.1674 36.8803 23.4053 35.3308 21.9308C34.8642 21.4548 33.4107 20.5578 32.7423 20.1687C31.2293 19.3956 29.5887 19 27.8205 19C25.2502 19 22.9533 19.7911 20.9663 21.3555C18.9794 22.9198 17.7034 24.9336 17.1565 27.397C15.607 27.7746 13.5462 28.7408 12.264 30.1429C11.8395 30.6071 9.24503 32.9286 10.2158 37.9583C10.6518 40.2172 13.6563 43.6071 19.1524 45V45C19.2865 45 19.3952 44.8913 19.3952 44.7572V42.1285C19.3952 42.004 19.3183 41.8925 19.202 41.8482L19.1524 41.8293C16.9087 41.1951 13.6563 39.4286 13.0958 37.0732C12.264 32.9286 15.6955 31.3394 15.8806 31.2024Z" fill="#44C650"/>
<path d="M46.2289 32.5237C47.6227 30.771 48.3017 28.7627 48.3017 26.5353C48.3017 24.8191 47.8729 23.2307 47.033 21.7519C46.1931 20.273 45.0495 19.1046 43.6021 18.2465C42.1546 17.3884 40.5821 16.9502 38.9024 16.9502C37.5979 16.9502 36.3471 17.2241 35.1498 17.7718C33.9526 18.3195 32.9162 19.068 32.0406 20.0539L34.578 21.8432C35.7574 20.6929 37.2227 20.1087 38.956 20.1087C40.6893 20.1087 42.1725 20.7295 43.4055 21.9892C44.6206 23.2307 45.246 24.7461 45.246 26.5353C45.246 27.7585 44.978 28.8539 44.4241 29.8398L46.2289 32.5237Z" fill="#44C650"/>
<path fill-rule="evenodd" clip-rule="evenodd" d="M25.4289 14.9419C25.143 14.668 25 14.3029 25 13.8465C25 13.4266 25.143 13.0797 25.4467 12.7693C25.7505 12.4589 26.1258 12.3129 26.5725 12.3129C26.9478 12.3129 27.2873 12.4589 27.5911 12.7693L28.7526 13.956C29.0385 14.2481 29.1814 14.6133 29.1814 15.0332C29.1814 15.4896 29.0385 15.8548 28.7526 16.1469C28.4667 16.439 28.1093 16.5851 27.6447 16.5851C27.2158 16.5851 26.8584 16.439 26.5725 16.1469L25.4289 14.9419ZM37.8838 13.39C37.5801 13.0979 37.4371 12.751 37.4371 12.3129V8.57012C37.4371 8.13195 37.5801 7.7668 37.8838 7.45643C38.1876 7.14606 38.545 7 38.956 7C39.3849 7 39.7423 7.14606 40.0282 7.45643C40.2962 7.74855 40.4392 8.13195 40.4392 8.57012V12.2946C40.4392 12.751 40.2962 13.1162 40.0282 13.39C39.7601 13.6639 39.4027 13.81 38.956 13.81C38.5271 13.81 38.1876 13.6822 37.8838 13.39ZM47.7478 17.571C47.444 17.2788 47.301 16.9137 47.301 16.4755C47.301 16.0556 47.4619 15.7087 47.7656 15.3983L50.3031 12.678C50.6069 12.4041 50.9821 12.2581 51.3931 12.2581C51.8041 12.2581 52.1615 12.4041 52.4653 12.7145C52.7691 13.0249 52.912 13.39 52.912 13.81C52.912 14.2846 52.7691 14.668 52.4832 14.9419L49.8742 17.571C49.6598 17.8631 49.3024 18.0091 48.8199 18.0091C48.3375 18.0091 47.9622 17.8631 47.7478 17.571ZM49.1416 39.2241C48.8735 38.932 48.7306 38.5668 48.7306 38.1286C48.7306 37.6905 48.8735 37.3253 49.1416 37.0149C49.4275 36.7228 49.767 36.5768 50.1959 36.5768C50.6426 36.5768 51.0179 36.7411 51.3574 37.0515L52.501 38.1651C52.7869 38.4938 52.9299 38.8589 52.9299 39.2788C52.9299 39.717 52.7869 40.0822 52.501 40.3743C52.0722 40.7029 51.6969 40.8672 51.411 40.8672C51.1251 40.8672 50.7498 40.7029 50.321 40.3743L49.1416 39.2241ZM51.7863 27.7037C51.4646 27.4116 51.3038 27.0282 51.3038 26.59C51.3038 26.1884 51.4646 25.8415 51.7684 25.5494C52.0722 25.2755 52.4474 25.1295 52.8763 25.1295H56.5038C56.9148 25.1295 57.2722 25.2755 57.5581 25.5494C57.844 25.8415 57.9869 26.1884 57.9869 26.59C57.9869 27.0282 57.844 27.3934 57.5402 27.7037C57.2364 28.0141 56.8969 28.1602 56.4859 28.1602H52.8584C52.4653 28.1602 52.1079 28.0141 51.7863 27.7037Z" fill="#44C650"/>
</svg>
