<svg width="64" height="64" viewBox="0 0 64 64" fill="none" xmlns="http://www.w3.org/2000/svg">
<path d="M44.0784 32C47.5477 31.6738 50.441 29.6498 52 26.8364C47.4294 26.2386 43.7133 22.5853 43.2589 17.8469C43.06 15.7721 43.5148 13.7851 44.4563 12.086C43.7117 11.9886 42.9445 11.9723 42.165 12.0456C37.275 12.5053 33.5293 16.3381 33.0516 21" stroke="#44C650" stroke-width="3"/>
<circle cx="28.5" cy="46.5" r="1.5" fill="#44C650"/>
<circle cx="28.5" cy="40.5" r="1.5" fill="#44C650"/>
<circle cx="34.049" cy="43.251" r="1.5" transform="rotate(-120 34.049 43.251)" fill="#44C650"/>
<circle cx="34.049" cy="49.049" r="1.5" transform="rotate(-120 34.049 49.049)" fill="#44C650"/>
<circle cx="28.5" cy="52.5" r="1.5" fill="#44C650"/>
<circle cx="23.049" cy="49.049" r="1.5" transform="rotate(-120 23.049 49.049)" fill="#44C650"/>
<circle cx="23.049" cy="43.251" r="1.5" transform="rotate(-120 23.049 43.251)" fill="#44C650"/>
<path d="M15.8806 31.2024C16.8088 30.5785 17.6669 30.3817 18.7242 30.2559H19.7085C19.9091 30.2559 20.0002 30.148 20.0002 29.9142L20.1278 28.9073C20.2554 27.6307 20.6747 26.462 21.3856 25.4011C22.0965 24.3582 23.0262 23.5311 24.1747 22.9378C25.3231 22.3444 26.5444 22.0387 27.8569 22.0387C29.8439 22.0387 31.5756 22.704 33.0522 24.0166C34.5287 25.3292 35.3673 26.9654 35.586 28.9073L35.7136 29.9142C35.7136 30.13 35.823 30.2559 36.0417 30.2559H38.9584C40.5808 30.2559 41.9662 30.8313 43.1511 31.982C44.336 33.1328 44.9193 34.4813 44.9193 36.0636C44.9193 37.6819 44.336 39.0664 43.1511 40.2172C41.9844 41.3679 40.5808 41.9433 38.9402 41.9433H37.6017C37.4012 41.9433 37.2918 42.0512 37.2918 42.2849V44.6764C37.2918 44.8921 37.4012 45 37.6017 45H38.9402C40.5808 45 42.0938 44.6044 43.4792 43.7953C44.8646 43.0042 45.9766 41.9073 46.7787 40.5408C47.5807 39.1743 48 37.6819 48 36.0636C48 34.751 47.7448 33.5643 47.2162 32.4495C46.7817 31.2268 45.8077 30.178 45.375 29.8064C43.6615 28.0982 41.5287 27.2351 38.9948 27.2351H38.448C37.9193 25.1674 36.8803 23.4053 35.3308 21.9308C34.8642 21.4548 33.4107 20.5578 32.7423 20.1687C31.2293 19.3956 29.5887 19 27.8205 19C25.2502 19 22.9533 19.7911 20.9663 21.3555C18.9794 22.9198 17.7034 24.9336 17.1565 27.397C15.607 27.7746 13.5462 28.7408 12.264 30.1429C11.8395 30.6071 9.24503 32.9286 10.2158 37.9583C10.6518 40.2172 13.6563 43.6071 19.1524 45V45C19.2865 45 19.3952 44.8913 19.3952 44.7572V42.1285C19.3952 42.004 19.3183 41.8925 19.202 41.8482L19.1524 41.8293C16.9087 41.1951 13.6563 39.4286 13.0958 37.0732C12.264 32.9286 15.6955 31.3394 15.8806 31.2024Z" fill="#44C650"/>
</svg>
