<svg width="64" height="64" viewBox="0 0 64 64" fill="none" xmlns="http://www.w3.org/2000/svg">
<path d="M15.5992 46.2309L18.9518 37.1309C18.9808 37.0522 19.0557 37 19.1395 37H24.1667C24.3177 37 24.4142 37.1609 24.3431 37.2941L20.6569 44.2059C20.5858 44.3391 20.6823 44.5 20.8333 44.5H24.0968C24.2622 44.5 24.3561 44.6893 24.256 44.821L15.8408 55.8937C15.701 56.0776 15.4124 55.9173 15.4947 55.7014L18.8967 46.7712C18.9466 46.6403 18.8499 46.5 18.7098 46.5H15.7868C15.6477 46.5 15.5511 46.3614 15.5992 46.2309Z" fill="#44C650"/>
<path d="M14.8806 29.2024C15.8088 28.5785 16.6669 28.3817 17.7242 28.2559H18.7085C18.9091 28.2559 19.0002 28.148 19.0002 27.9142L19.1278 26.9073C19.2554 25.6307 19.6747 24.462 20.3856 23.4011C21.0965 22.3582 22.0262 21.5311 23.1747 20.9378C24.3231 20.3444 25.5444 20.0387 26.8569 20.0387C28.8439 20.0387 30.5756 20.704 32.0522 22.0166C33.5287 23.3292 34.3673 24.9654 34.586 26.9073L34.7136 27.9142C34.7136 28.13 34.823 28.2559 35.0417 28.2559H37.9584C39.5808 28.2559 40.9662 28.8313 42.1511 29.982C43.336 31.1328 43.9193 32.4813 43.9193 34.0636C43.9193 35.6819 43.336 37.0664 42.1511 38.2172C40.9844 39.3679 39.5808 39.9433 37.9402 39.9433H36.6017C36.4012 39.9433 36.2918 40.0512 36.2918 40.2849V42.6764C36.2918 42.8921 36.4012 43 36.6017 43H37.9402C39.5808 43 41.0938 42.6044 42.4792 41.7953C43.8646 41.0042 44.9766 39.9073 45.7787 38.5408C46.5807 37.1743 47 35.6819 47 34.0636C47 32.751 46.7448 31.5643 46.2162 30.4495C45.7817 29.2268 44.8077 28.178 44.375 27.8064C42.6615 26.0982 40.5287 25.2351 37.9948 25.2351H37.448C36.9193 23.1674 35.8803 21.4053 34.3308 19.9308C33.8642 19.4548 32.4107 18.5578 31.7423 18.1687C30.2293 17.3956 28.5887 17 26.8205 17C24.2502 17 21.9533 17.7911 19.9663 19.3555C17.9794 20.9198 16.7034 22.9336 16.1565 25.397C14.607 25.7746 12.5462 26.7408 11.264 28.1429C10.8395 28.6071 8.24503 30.9286 9.21581 35.9583C9.65177 38.2172 12.6563 41.6071 18.1524 43V43C18.2865 43 18.3952 42.8913 18.3952 42.7572V40.1285C18.3952 40.004 18.3183 39.8925 18.202 39.8482L18.1524 39.8293C15.9087 39.1951 12.6563 37.4286 12.0958 35.0732C11.264 30.9286 14.6955 29.3394 14.8806 29.2024Z" fill="#44C650"/>
<path d="M45.2289 30.5237C46.6227 28.771 47.3017 26.7627 47.3017 24.5353C47.3017 22.8191 46.8729 21.2307 46.033 19.7519C45.1931 18.273 44.0495 17.1046 42.6021 16.2465C41.1546 15.3884 39.5821 14.9502 37.9024 14.9502C36.5979 14.9502 35.3471 15.2241 34.1498 15.7718C32.9526 16.3195 31.9162 17.068 31.0406 18.0539L33.578 19.8432C34.7574 18.6929 36.2227 18.1087 37.956 18.1087C39.6893 18.1087 41.1725 18.7295 42.4055 19.9892C43.6206 21.2307 44.246 22.7461 44.246 24.5353C44.246 25.7585 43.978 26.8539 43.4241 27.8398L45.2289 30.5237Z" fill="#44C650"/>
<path fill-rule="evenodd" clip-rule="evenodd" d="M24.4289 12.9419C24.143 12.668 24 12.3029 24 11.8465C24 11.4266 24.143 11.0797 24.4467 10.7693C24.7505 10.4589 25.1258 10.3129 25.5725 10.3129C25.9478 10.3129 26.2873 10.4589 26.5911 10.7693L27.7526 11.956C28.0385 12.2481 28.1814 12.6133 28.1814 13.0332C28.1814 13.4896 28.0385 13.8548 27.7526 14.1469C27.4667 14.439 27.1093 14.5851 26.6447 14.5851C26.2158 14.5851 25.8584 14.439 25.5725 14.1469L24.4289 12.9419ZM36.8838 11.39C36.5801 11.0979 36.4371 10.751 36.4371 10.3129V6.57012C36.4371 6.13195 36.5801 5.7668 36.8838 5.45643C37.1876 5.14606 37.545 5 37.956 5C38.3849 5 38.7423 5.14606 39.0282 5.45643C39.2962 5.74855 39.4392 6.13195 39.4392 6.57012V10.2946C39.4392 10.751 39.2962 11.1162 39.0282 11.39C38.7601 11.6639 38.4027 11.81 37.956 11.81C37.5271 11.81 37.1876 11.6822 36.8838 11.39ZM46.7478 15.571C46.444 15.2788 46.301 14.9137 46.301 14.4755C46.301 14.0556 46.4619 13.7087 46.7656 13.3983L49.3031 10.678C49.6069 10.4041 49.9821 10.2581 50.3931 10.2581C50.8041 10.2581 51.1615 10.4041 51.4653 10.7145C51.7691 11.0249 51.912 11.39 51.912 11.81C51.912 12.2846 51.7691 12.668 51.4832 12.9419L48.8742 15.571C48.6598 15.8631 48.3024 16.0091 47.8199 16.0091C47.3375 16.0091 46.9622 15.8631 46.7478 15.571ZM48.1416 37.2241C47.8735 36.932 47.7306 36.5668 47.7306 36.1286C47.7306 35.6905 47.8735 35.3253 48.1416 35.0149C48.4275 34.7228 48.767 34.5768 49.1959 34.5768C49.6426 34.5768 50.0179 34.7411 50.3574 35.0515L51.501 36.1651C51.7869 36.4938 51.9299 36.8589 51.9299 37.2788C51.9299 37.717 51.7869 38.0822 51.501 38.3743C51.0722 38.7029 50.6969 38.8672 50.411 38.8672C50.1251 38.8672 49.7498 38.7029 49.321 38.3743L48.1416 37.2241ZM50.7863 25.7037C50.4646 25.4116 50.3038 25.0282 50.3038 24.59C50.3038 24.1884 50.4646 23.8415 50.7684 23.5494C51.0722 23.2755 51.4474 23.1295 51.8763 23.1295H55.5038C55.9148 23.1295 56.2722 23.2755 56.5581 23.5494C56.844 23.8415 56.9869 24.1884 56.9869 24.59C56.9869 25.0282 56.844 25.3934 56.5402 25.7037C56.2364 26.0141 55.8969 26.1602 55.4859 26.1602H51.8584C51.4653 26.1602 51.1079 26.0141 50.7863 25.7037Z" fill="#44C650"/>
<path d="M35 38L32 50" stroke="#4DC358" stroke-width="3" stroke-linecap="round"/>
<path d="M29 38L25 56" stroke="#4DC358" stroke-width="3" stroke-linecap="round"/>
</svg>
