<svg width="64" height="64" viewBox="0 0 64 64" fill="none" xmlns="http://www.w3.org/2000/svg">
<path d="M15.5992 46.2309L18.9518 37.1309C18.9808 37.0522 19.0557 37 19.1395 37H24.1667C24.3177 37 24.4142 37.1609 24.3431 37.2941L20.6569 44.2059C20.5858 44.3391 20.6823 44.5 20.8333 44.5H24.0968C24.2622 44.5 24.3561 44.6893 24.256 44.821L15.8408 55.8937C15.701 56.0776 15.4124 55.9173 15.4947 55.7014L18.8967 46.7712C18.9466 46.6403 18.8499 46.5 18.7098 46.5H15.7868C15.6477 46.5 15.5511 46.3614 15.5992 46.2309Z" fill="#44C650"/>
<path d="M14.8806 29.2024C15.8088 28.5785 16.6669 28.3817 17.7242 28.2559H18.7085C18.9091 28.2559 19.0002 28.148 19.0002 27.9142L19.1278 26.9073C19.2554 25.6307 19.6747 24.462 20.3856 23.4011C21.0965 22.3582 22.0262 21.5311 23.1747 20.9378C24.3231 20.3444 25.5444 20.0387 26.8569 20.0387C28.8439 20.0387 30.5756 20.704 32.0522 22.0166C33.5287 23.3292 34.3673 24.9654 34.586 26.9073L34.7136 27.9142C34.7136 28.13 34.823 28.2559 35.0417 28.2559H37.9584C39.5808 28.2559 40.9662 28.8313 42.1511 29.982C43.336 31.1328 43.9193 32.4813 43.9193 34.0636C43.9193 35.6819 43.336 37.0664 42.1511 38.2172C40.9844 39.3679 39.5808 39.9433 37.9402 39.9433H36.6017C36.4012 39.9433 36.2918 40.0512 36.2918 40.2849V42.6764C36.2918 42.8921 36.4012 43 36.6017 43H37.9402C39.5808 43 41.0938 42.6044 42.4792 41.7953C43.8646 41.0042 44.9766 39.9073 45.7787 38.5408C46.5807 37.1743 47 35.6819 47 34.0636C47 32.751 46.7448 31.5643 46.2162 30.4495C45.7817 29.2268 44.8077 28.178 44.375 27.8064C42.6615 26.0982 40.5287 25.2351 37.9948 25.2351H37.448C36.9193 23.1674 35.8803 21.4053 34.3308 19.9308C33.8642 19.4548 32.4107 18.5578 31.7423 18.1687C30.2293 17.3956 28.5887 17 26.8205 17C24.2502 17 21.9533 17.7911 19.9663 19.3555C17.9794 20.9198 16.7034 22.9336 16.1565 25.397C14.607 25.7746 12.5462 26.7408 11.264 28.1429C10.8395 28.6071 8.24503 30.9286 9.21581 35.9583C9.65177 38.2172 12.6563 41.6071 18.1524 43V43C18.2865 43 18.3952 42.8913 18.3952 42.7572V40.1285C18.3952 40.004 18.3183 39.8925 18.202 39.8482L18.1524 39.8293C15.9087 39.1951 12.6563 37.4286 12.0958 35.0732C11.264 30.9286 14.6955 29.3394 14.8806 29.2024Z" fill="#44C650"/>
<path d="M35 38L32 50" stroke="#4DC358" stroke-width="3" stroke-linecap="round"/>
<path d="M29 38L25 56" stroke="#4DC358" stroke-width="3" stroke-linecap="round"/>
<path d="M44.0268 32C47.4961 31.6738 50.3895 29.6498 51.9484 26.8364C47.3778 26.2386 43.6617 22.5853 43.2073 17.8469C43.0084 15.7721 43.4632 13.7851 44.4047 12.086C43.6602 11.9886 42.8929 11.9723 42.1134 12.0456C37.2234 12.5053 33.4778 16.3381 33 21" stroke="#44C650" stroke-width="3"/>
</svg>
