<svg width="64" height="64" viewBox="0 0 64 64" fill="none" xmlns="http://www.w3.org/2000/svg">
<path d="M9 40.9858C9 41.4631 9.16035 41.8807 9.48105 42.1989C10.363 42.5568 10.9442 42.7358 11.2449 42.7358H27.0392C27.5203 42.7358 27.9211 42.5568 28.2418 42.2188C28.5826 41.8807 28.7429 41.4631 28.7429 41.0057C28.7429 40.5483 28.5826 40.1506 28.2418 39.8324C27.9011 39.5142 27.5002 39.3551 27.0392 39.3551H11.2449C10.7237 39.3551 10.2026 39.5142 9.72157 39.8324C9.24052 40.1506 9 40.5483 9 40.9858ZM11.7861 35.0199C11.7861 35.4972 11.9464 35.875 12.2871 36.1932C12.5878 36.5313 12.9686 36.7102 13.4497 36.7102H32.2906C32.7717 36.7102 33.1726 36.5511 33.5133 36.2131C33.854 35.875 34.0144 35.4773 34.0144 35.0199C34.0144 34.5426 33.854 34.1449 33.5133 33.8068C33.1726 33.4688 32.7717 33.3097 32.2906 33.3097H13.4497C12.9887 33.3097 12.5878 33.4688 12.2671 33.8068C11.9464 34.1449 11.7861 34.5426 11.7861 35.0199ZM15.3137 47.3295C15.3137 47.8068 15.4941 48.1847 15.8349 48.5028C16.1556 48.8409 16.5564 49 17.0174 49H35.8985C36.3595 49 36.7604 48.8409 37.0811 48.5028C37.4017 48.1648 37.5621 47.7869 37.5621 47.3097C37.5621 46.8125 37.4017 46.3949 37.0811 46.0767C36.7604 45.7585 36.3595 45.5795 35.8784 45.5795H17.0174C16.5364 45.5795 16.1355 45.7386 15.8148 46.0767C15.4941 46.4148 15.3137 46.8324 15.3137 47.3295Z" fill="#4DC458"/>
<path d="M13.8906 30.3068C13.8906 30.4858 14.0109 30.5653 14.2314 30.5653H17.0174C17.258 30.5653 17.3983 30.4858 17.4584 30.3068C17.9795 29.2528 18.7011 28.3778 19.6431 27.6818C20.5852 26.9858 21.6475 26.5881 22.81 26.4489H23.8924C24.1129 26.4489 24.2131 26.3295 24.2131 26.071L24.3534 24.9574C24.4937 23.5455 24.9547 22.2528 25.7364 21.0795C26.5181 19.9261 27.5403 19.0114 28.8031 18.3551C30.0658 17.6989 31.4087 17.3608 32.8519 17.3608C35.0366 17.3608 36.9407 18.0966 38.5643 19.5483C40.1878 21 41.1098 22.8097 41.3503 24.9574L41.4906 26.071C41.4906 26.3097 41.6109 26.4489 41.8514 26.4489H45.0584C46.8423 26.4489 48.3656 27.0852 49.6684 28.358C50.9712 29.6307 51.6126 31.1222 51.6126 32.8722C51.6126 34.6619 50.9712 36.1932 49.6684 37.4659C48.3856 38.7386 46.8423 39.375 45.0383 39.375H31.2283C31.0078 39.375 30.8876 39.4943 30.8876 39.7528V42.3977C30.8876 42.6364 31.0078 42.7557 31.2283 42.7557H45.0383C46.8423 42.7557 48.5059 42.3182 50.0292 41.4233C51.5525 40.5483 52.7752 39.3352 53.6571 37.8239C54.539 36.3125 55 34.6619 55 32.8722C55 31.4205 54.7194 30.108 54.1381 28.875C53.6604 27.5227 52.5895 26.3627 52.1137 25.9517C50.2296 24.0625 47.8845 23.108 45.0985 23.108H44.4972C43.9159 20.821 42.7734 18.8722 41.0697 17.2415C40.5566 16.715 38.9585 15.7229 38.2235 15.2926C36.5599 14.4375 34.756 14 32.8118 14C29.9856 14 27.4601 14.875 25.2754 16.6051C23.0906 18.3352 21.6876 20.5625 21.0863 23.2869C19.3826 23.7046 17.8793 24.5398 16.5765 25.7727C15.2736 27.0057 14.3717 28.4773 13.8706 30.1676C13.9107 30.2074 13.8906 30.2472 13.8906 30.3068Z" fill="#4DC458"/>
</svg>
