<svg width="64" height="64" viewBox="0 0 64 64" fill="none" xmlns="http://www.w3.org/2000/svg">
<path d="M18.1901 24.6717C19.1671 24.0238 20.0704 23.8195 21.1833 23.6888H22.2195C22.4306 23.6888 22.5265 23.5768 22.5265 23.334L22.6609 22.2884C22.7952 20.9627 23.2365 19.749 23.9849 18.6473C24.7332 17.5643 25.7118 16.7054 26.9207 16.0892C28.1296 15.473 29.4152 15.1556 30.7968 15.1556C32.8883 15.1556 34.7112 15.8465 36.2655 17.2095C37.8197 18.5726 38.7024 20.2718 38.9327 22.2884L39.067 23.334C39.067 23.5581 39.1821 23.6888 39.4124 23.6888H42.4825C44.1903 23.6888 45.6486 24.2863 46.8959 25.4813C48.1431 26.6764 48.7571 28.0768 48.7571 29.7199C48.7571 31.4004 48.1431 32.8382 46.8959 34.0332C45.6678 35.2282 44.1903 35.8257 42.4633 35.8257H41.0545C40.8434 35.8257 40.7283 35.9378 40.7283 36.1805V38.6639C40.7283 38.888 40.8434 39 41.0545 39H42.4633C44.1903 39 45.7829 38.5892 47.2413 37.749C48.6996 36.9274 49.8701 35.7884 50.7144 34.3693C51.5587 32.9502 52 31.4004 52 29.7199C52 28.3568 51.7314 27.1245 51.1749 25.9668C50.7175 24.6971 49.6923 23.6079 49.2369 23.222C47.4331 21.4481 45.1881 20.5519 42.5209 20.5519H41.9452C41.3888 18.4046 40.295 16.5747 38.664 15.0436C38.1728 14.5492 36.6428 13.6177 35.9393 13.2137C34.3466 12.4108 32.6197 12 30.7584 12C28.0528 12 25.6351 12.8216 23.5435 14.4461C21.452 16.0705 20.1088 18.1618 19.5331 20.7199C17.9021 21.112 15.7328 22.1154 14.3832 23.5714C13.9363 24.0536 11.2053 26.4643 12.2272 31.6875C12.6861 34.0332 15.8488 37.5536 21.6341 39V39C21.7753 39 21.8897 38.8856 21.8897 38.7444V36.0111C21.8897 35.8861 21.8122 35.7742 21.6952 35.7303L21.6341 35.7073C19.2723 35.0488 15.8488 33.2143 15.2587 30.7683C14.3832 26.4643 17.9953 24.8139 18.1901 24.6717Z" fill="#44C650"/>
<path d="M26 34L23 47" stroke="#4DC358" stroke-width="3" stroke-linecap="round"/>
<path d="M38 34L35 47" stroke="#4DC358" stroke-width="3" stroke-linecap="round"/>
<path d="M32 34L28 53" stroke="#4DC358" stroke-width="3" stroke-linecap="round"/>
</svg>
