<svg width="64" height="64" viewBox="0 0 64 64" fill="none" xmlns="http://www.w3.org/2000/svg">
<circle cx="19.8947" cy="44.1053" r="1.57895" fill="#44C650"/>
<circle cx="22" cy="52.5263" r="1.57895" fill="#44C650"/>
<circle cx="30.421" cy="49.3684" r="1.57895" fill="#44C650"/>
<path d="M30.585 32.2975L22.5263 41.5805" stroke="#4DC358" stroke-width="3" stroke-linecap="round"/>
<path d="M41.2181 37.6979L33.1594 46.9809" stroke="#4DC358" stroke-width="3" stroke-linecap="round"/>
<path d="M35.9016 34.9977L24.2566 49.1472" stroke="#4DC358" stroke-width="3" stroke-linecap="round"/>
<path d="M18.1901 24.8446C19.1671 24.1879 20.0704 23.9808 21.1833 23.8483H22.2195C22.4306 23.8483 22.5265 23.7347 22.5265 23.4887L22.6609 22.4288C22.7952 21.085 23.2365 19.8547 23.9849 18.738C24.7332 17.6402 25.7118 16.7696 26.9207 16.145C28.1296 15.5204 29.4152 15.1987 30.7968 15.1987C32.8883 15.1987 34.7112 15.899 36.2655 17.2806C37.8197 18.6623 38.7024 20.3847 38.9327 22.4288L39.067 23.4887C39.067 23.7158 39.1821 23.8483 39.4124 23.8483H42.4825C44.1903 23.8483 45.6486 24.454 46.8959 25.6653C48.1431 26.8766 48.7571 28.2961 48.7571 29.9617C48.7571 31.6651 48.1431 33.1225 46.8959 34.3338C45.6678 35.5452 44.1903 36.1508 42.4633 36.1508H41.0545C40.8434 36.1508 40.7283 36.2644 40.7283 36.5105V39.0277C40.7283 39.2549 40.8434 39.3684 41.0545 39.3684H42.4633C44.1903 39.3684 45.7829 38.952 47.2413 38.1003C48.6996 37.2675 49.8701 36.113 50.7144 34.6745C51.5587 33.2361 52 31.6651 52 29.9617C52 28.58 51.7314 27.3309 51.1749 26.1574C50.7175 24.8704 49.6923 23.7663 49.2369 23.3751C47.4331 21.5771 45.1881 20.6686 42.5209 20.6686H41.9452C41.3888 18.492 40.295 16.6371 38.664 15.0851C38.1728 14.584 36.6428 13.6398 35.9393 13.2303C34.3466 12.4164 32.6197 12 30.7584 12C28.0528 12 25.6351 12.8328 23.5435 14.4794C21.452 16.1261 20.1088 18.2459 19.5331 20.8389C17.9021 21.2364 15.7328 22.2535 14.3832 23.7293C13.9363 24.218 11.2053 26.6617 12.2272 31.9561C12.6861 34.3338 15.8488 37.9023 21.6341 39.3684V39.3684C21.7753 39.3684 21.8897 39.254 21.8897 39.1128V36.3349C21.8897 36.2104 21.8128 36.0989 21.6965 36.0546L21.6341 36.0308C19.2723 35.3633 15.8488 33.5038 15.2587 31.0244C14.3832 26.6617 17.9953 24.9888 18.1901 24.8446Z" fill="#44C650"/>
</svg>
