<svg width="64" height="64" viewBox="0 0 64 64" fill="none" xmlns="http://www.w3.org/2000/svg">
<circle cx="31.5571" cy="44.0714" r="1.58571" fill="#44C650"/>
<circle cx="31.5571" cy="37.7286" r="1.58571" fill="#44C650"/>
<circle cx="37.4233" cy="40.6367" r="1.58571" transform="rotate(-120 37.4233 40.6367)" fill="#44C650"/>
<circle cx="37.4233" cy="46.7661" r="1.58571" transform="rotate(-120 37.4233 46.7661)" fill="#44C650"/>
<circle cx="31.5571" cy="50.4143" r="1.58571" fill="#44C650"/>
<circle cx="25.7947" cy="46.7661" r="1.58571" transform="rotate(-120 25.7947 46.7661)" fill="#44C650"/>
<circle cx="25.7947" cy="40.6367" r="1.58571" transform="rotate(-120 25.7947 40.6367)" fill="#44C650"/>
<path d="M18.2166 27.8997C19.1978 27.2401 20.105 27.0321 21.2227 26.8991H22.2633C22.4753 26.8991 22.5716 26.785 22.5716 26.5379L22.7065 25.4735C22.8414 24.1239 23.2847 22.8884 24.0362 21.7669C24.7878 20.6644 25.7706 19.79 26.9846 19.1628C28.1987 18.5355 29.4898 18.2124 30.8773 18.2124C32.9778 18.2124 34.8085 18.9157 36.3695 20.3033C37.9304 21.6909 38.8168 23.4206 39.0481 25.4735L39.183 26.5379C39.183 26.766 39.2986 26.8991 39.5298 26.8991H42.6132C44.3282 26.8991 45.7928 27.5073 47.0454 28.7239C48.298 29.9404 48.9147 31.366 48.9147 33.0387C48.9147 34.7494 48.298 36.213 47.0454 37.4296C45.8121 38.6461 44.3283 39.2543 42.5939 39.2543H41.179C40.967 39.2543 40.8514 39.3684 40.8514 39.6155V42.1436C40.8514 42.3717 40.967 42.4857 41.179 42.4857H42.5939C44.3283 42.4857 45.9277 42.0675 47.3923 41.2122C48.8569 40.3758 50.0324 39.2163 50.8803 37.7717C51.7282 36.3271 52.1714 34.7494 52.1714 33.0387C52.1714 31.6511 51.9016 30.3966 51.3428 29.2181C50.8835 27.9255 49.8538 26.8167 49.3964 26.4239C47.585 24.6181 45.3303 23.7057 42.6517 23.7057H42.0736C41.5147 21.5198 40.4163 19.657 38.7783 18.0983C38.285 17.5951 36.7484 16.6468 36.0419 16.2355C34.4424 15.4182 32.708 15 30.8388 15C28.1216 15 25.6935 15.8364 23.593 17.4901C21.4925 19.1438 20.1435 21.2727 19.5654 23.8768C17.9274 24.276 15.7488 25.2974 14.3934 26.7796C13.9446 27.2704 11.2019 29.7245 12.2281 35.0417C12.689 37.4296 15.8653 41.0133 21.6754 42.4857V42.4857C21.8172 42.4857 21.9321 42.3708 21.9321 42.229V39.4383C21.9321 39.3138 21.8552 39.2023 21.7389 39.158L21.6754 39.1338C19.3035 38.4634 15.8653 36.5959 15.2727 34.1059C14.3934 29.7245 18.021 28.0445 18.2166 27.8997Z" fill="#44C650"/>
</svg>
