<svg width="64" height="64" viewBox="0 0 64 64" fill="none" xmlns="http://www.w3.org/2000/svg">
<path d="M18.2919 44.375L22.0176 34.2625C22.0465 34.1838 22.1215 34.1316 22.2052 34.1316H27.8186C27.9696 34.1316 28.0662 34.2925 27.9951 34.4257L23.8825 42.1368C23.8115 42.27 23.908 42.4309 24.059 42.4309H27.7488C27.9142 42.4309 28.0081 42.6203 27.908 42.752L18.4803 55.1568C18.3405 55.3408 18.0519 55.1805 18.1342 54.9646L21.9625 44.9153C22.0123 44.7844 21.9157 44.6441 21.7756 44.6441H18.4796C18.3404 44.6441 18.2438 44.5055 18.2919 44.375Z" fill="#44C650"/>
<path d="M17.5073 25.5029C18.5344 24.8125 19.484 24.5948 20.654 24.4555H21.7433C21.9652 24.4555 22.066 24.3361 22.066 24.0775L22.2072 22.9632C22.3484 21.5506 22.8124 20.2573 23.5991 19.0833C24.3858 17.9293 25.4145 17.014 26.6854 16.3574C27.9562 15.7008 29.3077 15.3626 30.7601 15.3626C32.9588 15.3626 34.8751 16.0988 36.5091 17.5513C38.143 19.0037 39.0709 20.8144 39.313 22.9632L39.4542 24.0775C39.4542 24.3162 39.5752 24.4555 39.8173 24.4555H43.0447C44.84 24.4555 46.3731 25.0922 47.6843 26.3656C48.9955 27.639 49.641 29.1313 49.641 30.8822C49.641 32.673 48.9955 34.205 47.6843 35.4785C46.3933 36.7519 44.84 37.3886 43.0246 37.3886H41.5435C41.3216 37.3886 41.2006 37.508 41.2006 37.7666V40.4129C41.2006 40.6517 41.3216 40.7711 41.5435 40.7711H43.0246C44.84 40.7711 46.5143 40.3333 48.0474 39.438C49.5804 38.5625 50.8109 37.3488 51.6985 35.8366C52.586 34.3244 53.05 32.673 53.05 30.8822C53.05 29.4298 52.7676 28.1166 52.1826 26.883C51.7018 25.53 50.624 24.3693 50.1452 23.9581C48.2491 22.0679 45.889 21.1128 43.0851 21.1128H42.4799C41.895 18.8247 40.7452 16.8748 39.0306 15.2432C38.5142 14.7165 36.9058 13.7238 36.1661 13.2933C34.4919 12.4377 32.6764 12 30.7198 12C27.8755 12 25.3339 12.8755 23.1351 14.6065C20.9364 16.3375 19.5244 18.566 18.9192 21.2919C17.2046 21.7097 14.9241 22.779 13.5053 24.3305C13.0355 24.8442 10.1646 27.4131 11.2388 32.9789C11.7212 35.4785 15.046 39.2297 21.1279 40.7711V40.7711C21.2763 40.7711 21.3965 40.6508 21.3965 40.5024V37.5715C21.3965 37.447 21.3197 37.3354 21.2033 37.2911L21.1279 37.2624C18.645 36.5607 15.046 34.6058 14.4257 31.9994C13.5053 27.4131 17.3026 25.6545 17.5073 25.5029Z" fill="#44C650"/>
<path d="M39.7711 35.2382L36.4513 48.5171" stroke="#4DC358" stroke-width="3" stroke-linecap="round"/>
<path d="M33.1316 35.2382L28.7053 55.1566" stroke="#4DC358" stroke-width="3" stroke-linecap="round"/>
</svg>
