<svg width="64" height="64" viewBox="0 0 64 64" fill="none" xmlns="http://www.w3.org/2000/svg">
<path d="M6 46.6423C6 47.0805 6.14296 47.4639 6.42887 47.756C7.21512 48.0846 7.73333 48.249 8.00137 48.249H22.0825C22.5113 48.249 22.8687 48.0846 23.1546 47.7743C23.4584 47.4639 23.6014 47.0805 23.6014 46.6606C23.6014 46.2407 23.4584 45.8755 23.1546 45.5834C22.8509 45.2913 22.4935 45.1452 22.0825 45.1452H8.00137C7.53677 45.1452 7.07217 45.2913 6.6433 45.5834C6.21443 45.8755 6 46.2407 6 46.6423ZM8.48385 41.1651C8.48385 41.6033 8.6268 41.9502 8.93058 42.2423C9.19863 42.5527 9.53814 42.717 9.96701 42.717H26.7643C27.1931 42.717 27.5505 42.571 27.8543 42.2606C28.1581 41.9502 28.301 41.5851 28.301 41.1651C28.301 40.727 28.1581 40.3618 27.8543 40.0515C27.5505 39.7411 27.1931 39.595 26.7643 39.595H9.96701C9.55601 39.595 9.19863 39.7411 8.91271 40.0515C8.6268 40.3618 8.48385 40.727 8.48385 41.1651ZM10.3601 36.8382C10.3601 37.0025 10.4674 37.0755 10.6639 37.0755H13.1478C13.3622 37.0755 13.4873 37.0025 13.5409 36.8382C14.0055 35.8705 14.6488 35.0672 15.4887 34.4282C16.3285 33.7892 17.2756 33.4241 18.312 33.2963H19.277C19.4735 33.2963 19.5629 33.1867 19.5629 32.9494L19.688 31.927C19.8131 30.6307 20.2241 29.444 20.921 28.3668C21.6179 27.3079 22.5292 26.4681 23.655 25.8656C24.7808 25.2631 25.978 24.9527 27.2646 24.9527C29.2124 24.9527 30.91 25.6282 32.3574 26.961C33.8048 28.2938 34.6268 29.9552 34.8412 31.927L34.9663 32.9494C34.9663 33.1685 35.0735 33.2963 35.288 33.2963H38.1471C39.7375 33.2963 41.0955 33.8805 42.257 35.049C43.4186 36.2174 43.9904 37.5867 43.9904 39.1934C43.9904 40.8365 43.4186 42.2423 42.257 43.4108C41.1134 44.5793 39.7375 45.1635 38.1292 45.1635H25.8172C25.6206 45.1635 25.5134 45.273 25.5134 45.5104V47.9386C25.5134 48.1577 25.6206 48.2672 25.8172 48.2672H38.1292C39.7375 48.2672 41.2206 47.8656 42.5787 47.044C43.9368 46.2407 45.0268 45.127 45.8131 43.7394C46.5993 42.3519 47.0103 40.8365 47.0103 39.1934C47.0103 37.8606 46.7601 36.6556 46.2419 35.5237C47.6357 33.771 48.3148 31.7627 48.3148 29.5353C48.3148 27.8191 47.8859 26.2307 47.046 24.7519C46.2062 23.273 45.0625 22.1046 43.6151 21.2465C42.1677 20.3884 40.5952 19.9502 38.9155 19.9502C37.611 19.9502 36.3601 20.2241 35.1629 20.7718C33.9656 21.3195 32.9292 22.068 32.0536 23.0539C30.5704 22.2689 28.9622 21.8672 27.2289 21.8672C24.7093 21.8672 22.4577 22.6705 20.51 24.2589C18.5622 25.8473 17.3113 27.8921 16.7753 30.3934C15.2564 30.7768 13.9162 31.5436 12.7546 32.6755C11.5931 33.8075 10.789 35.1585 10.3423 36.7104C10.378 36.7469 10.3601 36.7834 10.3601 36.8382ZM11.6289 52.4664C11.6289 52.9046 11.7897 53.2515 12.0935 53.5436C12.3794 53.8539 12.7368 54 13.1478 54H29.9808C30.3918 54 30.7491 53.8539 31.0351 53.5436C31.321 53.2332 31.4639 52.8863 31.4639 52.4481C31.4639 51.9917 31.321 51.6083 31.0351 51.3162C30.7491 51.0241 30.3918 50.8598 29.9629 50.8598H13.1478C12.7189 50.8598 12.3615 51.0058 12.0756 51.3162C11.7897 51.6266 11.6289 52.01 11.6289 52.4664ZM25.0131 16.8465C25.0131 17.3029 25.156 17.668 25.4419 17.9419L26.5856 19.1469C26.8715 19.439 27.2289 19.5851 27.6577 19.5851C28.1223 19.5851 28.4797 19.439 28.7656 19.1469C29.0515 18.8548 29.1945 18.4896 29.1945 18.0332C29.1945 17.6133 29.0515 17.2481 28.7656 16.956L27.6041 15.7693C27.3003 15.4589 26.9608 15.3129 26.5856 15.3129C26.1388 15.3129 25.7636 15.4589 25.4598 15.7693C25.156 16.0797 25.0131 16.4266 25.0131 16.8465ZM34.5911 24.8432C35.7704 23.6929 37.2357 23.1087 38.9691 23.1087C40.7024 23.1087 42.1856 23.7295 43.4186 24.9892C44.6337 26.2307 45.2591 27.7461 45.2591 29.5353C45.2591 30.7585 44.9911 31.8539 44.4371 32.8398C42.7574 31.1054 40.6667 30.229 38.1828 30.229H37.6467C37.1285 28.1295 36.11 26.3402 34.5911 24.8432ZM37.4502 15.3129C37.4502 15.751 37.5931 16.0979 37.8969 16.39C38.2007 16.6822 38.5402 16.81 38.9691 16.81C39.4158 16.81 39.7732 16.6639 40.0412 16.39C40.3093 16.1162 40.4522 15.751 40.4522 15.2946V11.5701C40.4522 11.132 40.3093 10.7485 40.0412 10.4564C39.7553 10.1461 39.3979 10 38.9691 10C38.5581 10 38.2007 10.1461 37.8969 10.4564C37.5931 10.7668 37.4502 11.132 37.4502 11.5701V15.3129ZM47.3141 19.4755C47.3141 19.9137 47.457 20.2788 47.7608 20.571C47.9753 20.8631 48.3505 21.0091 48.833 21.0091C49.3155 21.0091 49.6729 20.8631 49.8873 20.571L52.4962 17.9419C52.7821 17.668 52.9251 17.2846 52.9251 16.81C52.9251 16.39 52.7821 16.0249 52.4783 15.7145C52.1746 15.4041 51.8172 15.2581 51.4062 15.2581C50.9952 15.2581 50.6199 15.4041 50.3162 15.678L47.7787 18.3983C47.4749 18.7087 47.3141 19.0556 47.3141 19.4755ZM48.7436 41.1286C48.7436 41.5668 48.8866 41.9319 49.1546 42.2241L50.334 43.3743C50.7629 43.7029 51.1381 43.8672 51.4241 43.8672C51.71 43.8672 52.0852 43.7029 52.5141 43.3743C52.8 43.0822 52.943 42.717 52.943 42.2788C52.943 41.8589 52.8 41.4938 52.5141 41.1651L51.3704 40.0515C51.0309 39.7411 50.6557 39.5768 50.2089 39.5768C49.7801 39.5768 49.4406 39.7228 49.1546 40.0149C48.8866 40.3253 48.7436 40.6905 48.7436 41.1286ZM51.3168 29.59C51.3168 30.0282 51.4777 30.4116 51.7993 30.7037C52.121 31.0141 52.4784 31.1602 52.8715 31.1602H56.499C56.91 31.1602 57.2495 31.0141 57.5533 30.7037C57.857 30.3934 58 30.0282 58 29.59C58 29.1884 57.857 28.8415 57.5711 28.5494C57.2852 28.2755 56.9278 28.1295 56.5168 28.1295H52.8893C52.4605 28.1295 52.0852 28.2755 51.7814 28.5494C51.4777 28.8415 51.3168 29.1884 51.3168 29.59Z" fill="#44C650"/>
</svg>
