<svg width="64" height="64" viewBox="0 0 64 64" fill="none" xmlns="http://www.w3.org/2000/svg">
<path d="M46.5268 35C49.9961 34.6738 52.8895 32.6498 54.4484 29.8364C49.8778 29.2386 46.1617 25.5853 45.7073 20.8469C45.5084 18.7721 45.9632 16.7851 46.9047 15.086C46.1602 14.9886 45.3929 14.9723 44.6134 15.0456C39.7234 15.5053 35.9778 19.3381 35.5 24" stroke="#44C650" stroke-width="3"/>
<path d="M9 46.6423C9 47.0805 9.14296 47.4639 9.42887 47.756C10.2151 48.0846 10.7333 48.249 11.0014 48.249H25.0825C25.5113 48.249 25.8687 48.0847 26.1546 47.7743C26.4584 47.4639 26.6014 47.0805 26.6014 46.6606C26.6014 46.2407 26.4584 45.8755 26.1546 45.5834C25.8509 45.2913 25.4935 45.1452 25.0825 45.1452H11.0014C10.5368 45.1452 10.0722 45.2913 9.6433 45.5834C9.21443 45.8755 9 46.2407 9 46.6423ZM11.4838 41.1651C11.4838 41.6033 11.6268 41.9502 11.9306 42.2423C12.1986 42.5527 12.5381 42.717 12.967 42.717H29.7643C30.1931 42.717 30.5505 42.571 30.8543 42.2606C31.1581 41.9502 31.301 41.5851 31.301 41.1651C31.301 40.727 31.1581 40.3618 30.8543 40.0515C30.5505 39.7411 30.1931 39.595 29.7643 39.595H12.967C12.556 39.595 12.1986 39.7411 11.9127 40.0515C11.6268 40.3618 11.4838 40.727 11.4838 41.1651ZM14.6289 52.4664C14.6289 52.9046 14.7897 53.2514 15.0935 53.5436C15.3794 53.8539 15.7368 54 16.1478 54H32.9808C33.3918 54 33.7491 53.8539 34.0351 53.5436C34.321 53.2332 34.4639 52.8863 34.4639 52.4481C34.4639 51.9917 34.321 51.6083 34.0351 51.3162C33.7491 51.0241 33.3918 50.8597 32.9629 50.8597H16.1478C15.7189 50.8597 15.3615 51.0058 15.0756 51.3162C14.7897 51.6266 14.6289 52.01 14.6289 52.4664Z" fill="#4DC458"/>
<path d="M13.3601 36.8382C13.3601 37.0025 13.4674 37.0755 13.6639 37.0755H16.1478C16.3622 37.0755 16.4873 37.0025 16.5409 36.8382C17.0055 35.8705 17.6488 35.0672 18.4887 34.4282C19.3285 33.7892 20.2756 33.4241 21.312 33.2963H22.277C22.4735 33.2963 22.5629 33.1867 22.5629 32.9494L22.688 31.927C22.8131 30.6307 23.2241 29.444 23.921 28.3668C24.6179 27.3079 25.5292 26.4681 26.655 25.8656C27.7808 25.2631 28.978 24.9527 30.2646 24.9527C32.2124 24.9527 33.91 25.6282 35.3574 26.961C36.8048 28.2938 37.6268 29.9552 37.8412 31.927L37.9663 32.9494C37.9663 33.1685 38.0735 33.2963 38.288 33.2963H41.1471C42.7375 33.2963 44.0955 33.8805 45.257 35.049C46.4186 36.2174 46.9904 37.5867 46.9904 39.1934C46.9904 40.8365 46.4186 42.2423 45.257 43.4108C44.1134 44.5793 42.7375 45.1635 41.1292 45.1635H28.8172C28.6206 45.1635 28.5134 45.273 28.5134 45.5104V47.9386C28.5134 48.1577 28.6206 48.2672 28.8172 48.2672H41.1292C42.7375 48.2672 44.2206 47.8656 45.5787 47.044C46.9368 46.2407 48.0268 45.127 48.8131 43.7394C49.5993 42.3519 50.0103 40.8365 50.0103 39.1934C50.0103 37.8606 49.7601 36.6556 49.2419 35.5237C48.816 34.2822 47.8613 33.2172 47.4371 32.8398C45.7574 31.1054 43.6667 30.229 41.1828 30.229H40.6467C40.1285 28.1295 39.11 26.3403 37.5911 24.8432C37.1336 24.3598 35.7088 23.449 35.0536 23.0539C33.5704 22.2689 31.9622 21.8672 30.2289 21.8672C27.7093 21.8672 25.4577 22.6705 23.51 24.2589C21.5622 25.8473 20.3113 27.8921 19.7753 30.3934C18.2564 30.7768 16.9162 31.5436 15.7546 32.6755C14.5931 33.8075 13.789 35.1585 13.3423 36.7104C13.378 36.7469 13.3601 36.7834 13.3601 36.8382Z" fill="#4DC458"/>
</svg>
