<svg width="64" height="64" viewBox="0 0 64 64" fill="none" xmlns="http://www.w3.org/2000/svg">
<path d="M18.1413 26.8841C19.1107 26.2326 20.0068 26.0271 21.111 25.8956H22.139C22.3484 25.8956 22.4436 25.783 22.4436 25.5389L22.5769 24.4873C22.7101 23.1541 23.148 21.9335 23.8905 20.8256C24.6329 19.7365 25.6038 18.8727 26.8032 18.253C28.0025 17.6334 29.278 17.3141 30.6487 17.3141C32.7238 17.3141 34.5323 18.0089 36.0743 19.3797C37.6163 20.7505 38.4921 22.4593 38.7205 24.4873L38.8538 25.5389C38.8538 25.7642 38.968 25.8956 39.1964 25.8956H42.2424C43.9367 25.8956 45.3836 26.4965 46.621 27.6983C47.8584 28.9001 48.4676 30.3084 48.4676 31.9609C48.4676 33.6509 47.8584 35.0968 46.621 36.2986C45.4026 37.5004 43.9367 38.1013 42.2234 38.1013H40.8256C40.6162 38.1013 40.502 38.2139 40.502 38.458V40.9555C40.502 41.1808 40.6162 41.2935 40.8256 41.2935H42.2234C43.9367 41.2935 45.5168 40.8804 46.9637 40.0354C48.4105 39.2092 49.5718 38.0637 50.4094 36.6366C51.247 35.2095 51.6849 33.6509 51.6849 31.9609C51.6849 30.5901 51.4184 29.3508 50.8663 28.1865C50.4126 26.9096 49.3954 25.8143 48.9435 25.4262C47.154 23.6423 44.9267 22.7409 42.2805 22.7409H41.7094C41.1573 20.5815 40.0721 18.7413 38.454 17.2015C37.9666 16.7043 36.4487 15.7675 35.7507 15.3612C34.1706 14.5538 32.4572 14.1407 30.6106 14.1407C27.9264 14.1407 25.5277 14.9669 23.4526 16.6006C21.3775 18.2343 20.0449 20.3374 19.4738 22.91C17.8556 23.3043 15.7034 24.3134 14.3644 25.7776C13.921 26.2625 11.2116 28.6868 12.2254 33.9396C12.6807 36.2986 15.8185 39.8389 21.5582 41.2935V41.2935C21.6983 41.2935 21.8118 41.18 21.8118 41.0399V38.2855C21.8118 38.161 21.7349 38.0495 21.6186 38.0052L21.5582 37.9822C19.215 37.3199 15.8185 35.475 15.233 33.0152C14.3644 28.6868 17.9481 27.0272 18.1413 26.8841Z" fill="#44C650"/>
<path d="M49.8352 28.264C51.2909 26.4336 52 24.3362 52 22.0101C52 20.2178 51.5521 18.559 50.675 17.0146C49.7979 15.4702 48.6036 14.2499 47.092 13.3537C45.5804 12.4576 43.9381 12 42.1839 12C40.8216 12 39.5153 12.286 38.265 12.858C37.0146 13.43 35.9322 14.2117 35.0178 15.2414L37.6678 17.1099C38.8995 15.9087 40.4297 15.2986 42.2399 15.2986C44.0501 15.2986 45.599 15.9468 46.8867 17.2624C48.1557 18.559 48.8088 20.1415 48.8088 22.0101C48.8088 23.2875 48.5289 24.4315 47.9504 25.4611L49.8352 28.264Z" fill="#44C650"/>
<path d="M25.5764 36.0718L22.4434 48.6039" stroke="#4DC358" stroke-width="3" stroke-linecap="round"/>
<path d="M38.1085 36.0718L34.9755 48.6039" stroke="#4DC358" stroke-width="3" stroke-linecap="round"/>
<path d="M31.8425 36.0718L27.6651 54.8699" stroke="#4DC358" stroke-width="3" stroke-linecap="round"/>
</svg>
