<svg width="64" height="64" viewBox="0 0 64 64" fill="none" xmlns="http://www.w3.org/2000/svg">
<circle cx="19.8478" cy="46.5826" r="1.56957" fill="#44C650"/>
<circle cx="21.9406" cy="54.4304" r="1.56957" fill="#44C650"/>
<circle cx="30.3116" cy="51.8145" r="1.56957" fill="#44C650"/>
<path d="M30.4746 34.3218L22.4638 43.5496" stroke="#4DC358" stroke-width="3" stroke-linecap="round"/>
<path d="M41.0446 39.6901L33.0337 48.918" stroke="#4DC358" stroke-width="3" stroke-linecap="round"/>
<path d="M35.7596 37.0059L24.1838 51.0714" stroke="#4DC358" stroke-width="3" stroke-linecap="round"/>
<path d="M18.1533 26.9132C19.1245 26.2604 20.0225 26.0545 21.1288 25.9228H22.1588C22.3686 25.9228 22.464 25.8099 22.464 25.5653L22.5975 24.5117C22.731 23.1759 23.1698 21.9529 23.9137 20.8428C24.6576 19.7516 25.6304 18.8861 26.8321 18.2653C28.0337 17.6444 29.3117 17.3245 30.6851 17.3245C32.7642 17.3245 34.5763 18.0207 36.1213 19.3941C37.6663 20.7676 38.5438 22.4797 38.7727 24.5117L38.9062 25.5653C38.9062 25.7911 39.0206 25.9228 39.2495 25.9228H42.3014C43.9991 25.9228 45.4487 26.5248 46.6886 27.729C47.9284 28.9331 48.5388 30.3442 48.5388 31.9999C48.5388 33.6932 47.9284 35.1419 46.6886 36.346C45.4678 37.5502 43.9991 38.1522 42.2824 38.1522H40.8819C40.672 38.1522 40.5576 38.2651 40.5576 38.5097V41.012C40.5576 41.2378 40.672 41.3507 40.8819 41.3507H42.2824C43.9991 41.3507 45.5823 40.9368 47.0319 40.0901C48.4816 39.2623 49.6451 38.1146 50.4844 36.6847C51.3237 35.2548 51.7624 33.6932 51.7624 31.9999C51.7624 30.6264 51.4953 29.3847 50.9422 28.2182C50.4875 26.9388 49.4684 25.8412 49.0157 25.4524C47.2227 23.665 44.9909 22.7619 42.3396 22.7619H41.7673C41.2142 20.5983 40.1269 18.7544 38.5056 17.2116C38.0173 16.7135 36.4964 15.7749 35.797 15.3678C34.2139 14.5588 32.4972 14.1449 30.6469 14.1449C27.9575 14.1449 25.5541 14.9727 23.475 16.6096C21.3958 18.2464 20.0606 20.3537 19.4884 22.9313C17.8671 23.3264 15.7106 24.3374 14.369 25.8045C13.9248 26.2903 11.21 28.7194 12.2258 33.9825C12.682 36.346 15.8259 39.8933 21.5769 41.3507V41.3507C21.7172 41.3507 21.8309 41.237 21.8309 41.0967V38.3364C21.8309 38.212 21.7541 38.1004 21.6377 38.0561L21.5769 38.0329C19.2291 37.3694 15.8259 35.5209 15.2393 33.0562C14.369 28.7194 17.9597 27.0565 18.1533 26.9132Z" fill="#44C650"/>
<path d="M49.9091 28.2957C51.3676 26.4617 52.0781 24.3603 52.0781 22.0296C52.0781 20.2338 51.6293 18.5718 50.7505 17.0244C49.8717 15.4769 48.675 14.2543 47.1605 13.3564C45.6459 12.4585 44.0005 12 42.2429 12C40.8779 12 39.569 12.2866 38.3162 12.8597C37.0635 13.4328 35.979 14.2161 35.0628 15.2477L37.7179 17.1199C38.952 15.9163 40.4852 15.305 42.2989 15.305C44.1127 15.305 45.6646 15.9545 46.9548 17.2727C48.2263 18.5718 48.8807 20.1574 48.8807 22.0296C48.8807 23.3096 48.6002 24.4558 48.0206 25.4874L49.9091 28.2957Z" fill="#44C650"/>
</svg>
