<svg width="64" height="64" viewBox="0 0 64 64" fill="none" xmlns="http://www.w3.org/2000/svg">
<circle cx="30.3203" cy="44.86" r="1.56651" fill="#44C650"/>
<circle cx="30.3203" cy="38.594" r="1.56651" fill="#44C650"/>
<circle cx="36.1154" cy="41.4669" r="1.56651" transform="rotate(-120 36.1154 41.4669)" fill="#44C650"/>
<circle cx="36.1154" cy="47.5221" r="1.56651" transform="rotate(-120 36.1154 47.5221)" fill="#44C650"/>
<circle cx="30.3203" cy="51.1261" r="1.56651" fill="#44C650"/>
<circle cx="24.6276" cy="47.5221" r="1.56651" transform="rotate(-120 24.6276 47.5221)" fill="#44C650"/>
<circle cx="24.6276" cy="41.4669" r="1.56651" transform="rotate(-120 24.6276 41.4669)" fill="#44C650"/>
<path d="M17.1413 28.8841C18.1107 28.2326 19.0068 28.0271 20.111 27.8956H21.139C21.3484 27.8956 21.4436 27.783 21.4436 27.5389L21.5769 26.4873C21.7101 25.1541 22.148 23.9335 22.8905 22.8256C23.6329 21.7365 24.6038 20.8727 25.8032 20.253C27.0025 19.6334 28.278 19.3141 29.6487 19.3141C31.7238 19.3141 33.5323 20.0089 35.0743 21.3797C36.6163 22.7505 37.4921 24.4593 37.7205 26.4873L37.8538 27.5389C37.8538 27.7642 37.968 27.8956 38.1964 27.8956H41.2424C42.9367 27.8956 44.3836 28.4965 45.621 29.6983C46.8584 30.9001 47.4676 32.3084 47.4676 33.9609C47.4676 35.6509 46.8584 37.0968 45.621 38.2986C44.4026 39.5004 42.9367 40.1013 41.2234 40.1013H39.8256C39.6162 40.1013 39.502 40.2139 39.502 40.4581V42.9555C39.502 43.1808 39.6162 43.2935 39.8256 43.2935H41.2234C42.9367 43.2935 44.5168 42.8804 45.9637 42.0354C47.4105 41.2092 48.5718 40.0637 49.4094 38.6366C50.247 37.2095 50.6849 35.6509 50.6849 33.9609C50.6849 32.5901 50.4184 31.3508 49.8663 30.1865C49.4126 28.9096 48.3954 27.8143 47.9435 27.4262C46.154 25.6423 43.9267 24.741 41.2805 24.741H40.7094C40.1573 22.5815 39.0721 20.7413 37.454 19.2015C36.9666 18.7044 35.4487 17.7675 34.7507 17.3612C33.1706 16.5538 31.4572 16.1407 29.6106 16.1407C26.9264 16.1407 24.5277 16.9669 22.4526 18.6006C20.3775 20.2343 19.0449 22.3374 18.4738 24.91C16.8556 25.3043 14.7034 26.3134 13.3644 27.7776C12.921 28.2625 10.2116 30.6868 11.2254 35.9396C11.6807 38.2986 14.8185 41.8389 20.5582 43.2935V43.2935C20.6983 43.2935 20.8118 43.18 20.8118 43.0399V40.2855C20.8118 40.161 20.7349 40.0495 20.6186 40.0052L20.5582 39.9822C18.215 39.3199 14.8185 37.475 14.233 35.0152C13.3644 30.6868 16.9481 29.0272 17.1413 28.8841Z" fill="#44C650"/>
<path d="M48.8352 30.264C50.2909 28.4336 51 26.3362 51 24.0101C51 22.2178 50.5521 20.559 49.675 19.0146C48.7979 17.4702 47.6036 16.2499 46.092 15.3537C44.5804 14.4576 42.9381 14 41.1839 14C39.8216 14 38.5153 14.286 37.265 14.858C36.0146 15.43 34.9322 16.2117 34.0178 17.2414L36.6678 19.1099C37.8995 17.9087 39.4297 17.2986 41.2399 17.2986C43.0501 17.2986 44.599 17.9468 45.8867 19.2624C47.1557 20.559 47.8088 22.1415 47.8088 24.0101C47.8088 25.2875 47.5289 26.4315 46.9504 27.4611L48.8352 30.264Z" fill="#44C650"/>
</svg>
