<svg width="64" height="64" viewBox="0 0 64 64" fill="none" xmlns="http://www.w3.org/2000/svg">
<path d="M18.746 43.9936L22.1778 34.6789C22.2067 34.6003 22.2816 34.548 22.3654 34.548H27.5169C27.6679 34.548 27.7644 34.7089 27.6934 34.8422L23.9167 41.9234C23.8457 42.0566 23.9422 42.2175 24.0932 42.2175H27.4471C27.6124 42.2175 27.7064 42.4069 27.6063 42.5385L18.9764 53.8937C18.8366 54.0776 18.548 53.9173 18.6303 53.7014L22.1227 44.5339C22.1725 44.403 22.0758 44.2627 21.9358 44.2627H18.9337C18.7946 44.2627 18.6979 44.1242 18.746 43.9936Z" fill="#44C650"/>
<path d="M18.0134 26.5743C18.9626 25.9363 19.8401 25.735 20.9213 25.6063H21.9279C22.133 25.6063 22.2262 25.496 22.2262 25.257L22.3567 24.2273C22.4872 22.9218 22.9159 21.7267 23.6429 20.6419C24.3699 19.5754 25.3206 18.7296 26.495 18.1229C27.6693 17.5161 28.9183 17.2035 30.2604 17.2035C32.2923 17.2035 34.0632 17.8838 35.5731 19.2261C37.083 20.5683 37.9405 22.2415 38.1642 24.2273L38.2947 25.257C38.2947 25.4776 38.4065 25.6063 38.6302 25.6063H41.6128C43.2718 25.6063 44.6885 26.1947 45.9002 27.3715C47.1119 28.5483 47.7084 29.9273 47.7084 31.5453C47.7084 33.2001 47.1119 34.6159 45.9002 35.7927C44.7072 36.9695 43.2718 37.5579 41.5941 37.5579H40.2255C40.0204 37.5579 39.9086 37.6682 39.9086 37.9072V40.3527C39.9086 40.5733 40.0204 40.6836 40.2255 40.6836H41.5941C43.2718 40.6836 44.819 40.2791 46.2357 39.4517C47.6524 38.6427 48.7895 37.5211 49.6097 36.1237C50.4299 34.7263 50.8587 33.2001 50.8587 31.5453C50.8587 30.2031 50.5977 28.9895 50.0571 27.8495C49.6128 26.5992 48.6168 25.5267 48.1744 25.1467C46.4221 23.3999 44.2411 22.5173 41.6501 22.5173H41.0908C40.5502 20.4028 39.4877 18.6009 37.9032 17.0932C37.426 16.6064 35.9397 15.6891 35.2562 15.2913C33.709 14.5006 32.0313 14.0961 30.2232 14.0961C27.5948 14.0961 25.246 14.9051 23.2142 16.5048C21.1823 18.1045 19.8774 20.1638 19.3182 22.6828C17.7337 23.0689 15.6263 24.057 14.3152 25.4908C13.881 25.9655 11.228 28.3394 12.2207 33.4828C12.6665 35.7927 15.739 39.2593 21.3592 40.6836V40.6836C21.4964 40.6836 21.6075 40.5725 21.6075 40.4354V37.7426C21.6075 37.6181 21.5306 37.5065 21.4143 37.4622L21.3592 37.4413C19.0648 36.7928 15.739 34.9863 15.1657 32.5777C14.3152 28.3394 17.8242 26.7143 18.0134 26.5743Z" fill="#44C650"/>
<path d="M49.0475 27.9254C50.4728 26.1331 51.1672 24.0794 51.1672 21.8017C51.1672 20.0467 50.7287 18.4224 49.8698 16.9102C49.011 15.3979 47.8415 14.203 46.3614 13.3256C44.8812 12.4481 43.2732 12 41.5555 12C40.2216 12 38.9425 12.28 37.7181 12.8401C36.4938 13.4002 35.434 14.1657 34.5386 15.1739L37.1334 17.0035C38.3394 15.8273 39.8378 15.2299 41.6103 15.2299C43.3828 15.2299 44.8995 15.8647 46.1604 17.1529C47.4029 18.4224 48.0425 19.972 48.0425 21.8017C48.0425 23.0525 47.7684 24.1727 47.2019 25.1809L49.0475 27.9254Z" fill="#44C650"/>
<path d="M38.5875 35.5706L35.5197 47.8418" stroke="#4DC358" stroke-width="3" stroke-linecap="round"/>
<path d="M32.4519 35.5706L28.3616 53.9774" stroke="#4DC358" stroke-width="3" stroke-linecap="round"/>
</svg>
