<?xml version="1.0" encoding="utf-8"?>
<!-- Generator: Adobe Illustrator 24.3.0, SVG Export Plug-In . SVG Version: 6.00 Build 0)  -->
<svg version="1.1" id="Layer_1" xmlns="http://www.w3.org/2000/svg" xmlns:xlink="http://www.w3.org/1999/xlink" x="0px" y="0px"
	 viewBox="0 0 22 22" style="enable-background:new 0 0 22 22;" xml:space="preserve">
<style type="text/css">
	.st0{fill:#58B75F;}
	.st1{fill:#0377BE;}
	.st2{fill:#ED6C05;}
	.st3{fill:#C52826;}
	.st4{fill:#4D433E;}
	.st5{opacity:0;fill:#0377BE;}
</style>
<g>
	<rect class="st5" width="22" height="22"/>
	<path class="st3" d="M11.15,2.74c-4.56,0-8.26,3.7-8.26,8.26c0,4.56,3.7,8.26,8.26,8.26c4.56,0,8.26-3.7,8.26-8.26
		C19.41,6.44,15.71,2.74,11.15,2.74 M11.15,17.96C7.3,17.95,4.2,14.84,4.19,11C4.2,7.16,7.3,4.05,11.15,4.04
		C14.99,4.05,18.1,7.16,18.1,11C18.1,14.84,14.99,17.95,11.15,17.96 M7.61,12.86v0.82c0,1.23,1,2.23,2.23,2.23h2.88
		c1.23,0,2.23-1,2.23-2.23v-0.82H7.61z M11.91,14.03v0.71h-1.26v-0.71H11.91z M9.74,14.74c-0.39,0-0.71-0.32-0.71-0.71h1.04v0.71
		H9.74z M12.82,14.74h-0.33v-0.71h1.04C13.53,14.42,13.21,14.74,12.82,14.74z M6.14,8.23c0,0-0.05,2.12,1.54,2.6
		c0,0,1.82,0.5,2.41-1.19L6.14,8.23z M12.15,9.64c0.58,1.69,2.41,1.19,2.41,1.19c1.59-0.48,1.54-2.6,1.54-2.6L12.15,9.64z
		 M2.19,3.06c0,0-0.01,3.24,1.7,4.42L5.6,5.4C5.6,5.4,2.94,4.37,2.19,3.06z M16.4,5.4l1.71,2.09c1.71-1.18,1.7-4.42,1.7-4.42
		C19.06,4.37,16.4,5.4,16.4,5.4z"/>
</g>
</svg>
