<svg width="64" height="64" viewBox="0 0 64 64" fill="none" xmlns="http://www.w3.org/2000/svg">
<path d="M8 10C8 8.34315 9.34315 7 11 7H35.5V14.5C35.5 16.1569 36.8431 17.5 38.5 17.5H46V52C46 53.6569 44.6569 55 43 55H11C9.34315 55 8 53.6569 8 52V10Z" fill="#2F8D38"/>
<path d="M46 17.5H38.5C36.8431 17.5 35.5 16.1569 35.5 14.5V7L46 17.5Z" fill="#2F8D38"/>
<path d="M46 17.5H37.5C36.3954 17.5 35.5 16.6046 35.5 15.5V7L46 17.5Z" fill="#44C650"/>
<rect x="28" y="28" width="4" height="14" rx="1" fill="#44C650"/>
<rect x="21" y="25" width="4" height="17" rx="1" fill="#44C650"/>
<rect x="14" y="19" width="4" height="23" rx="1" fill="#44C650"/>
<rect x="35" y="35" width="24" height="24" rx="12" fill="#44C650"/>
<path d="M53.069 44.3404L53.0752 44.3341C53.5156 43.6433 53.7075 42.8236 53.6194 42.0105C53.5312 41.1975 53.1682 40.4397 52.5904 39.8624L52.0885 39.3605C51.8642 39.1362 51.5597 39.0104 51.2419 39.011C50.9242 39.0115 50.6192 39.1382 50.3942 39.3632L48.2729 41.4845C48.0478 41.7096 47.9211 42.0145 47.9206 42.3323C47.9201 42.65 48.0458 42.9546 48.2702 43.1789C48.4945 43.4032 48.6202 43.7078 48.6197 44.0255C48.6192 44.3433 48.4925 44.6482 48.2675 44.8733L44.8734 48.2674C44.6483 48.4924 44.3434 48.6191 44.0256 48.6196C43.7079 48.6201 43.4033 48.4944 43.179 48.2701C42.9547 48.0457 42.6501 47.92 42.3324 47.9205C42.0146 47.921 41.7097 48.0477 41.4846 48.2728L39.3633 50.3941C39.1383 50.6191 39.0116 50.9241 39.0111 51.2418C39.0106 51.5596 39.1363 51.8641 39.3606 52.0884L39.8625 52.5903C40.4398 53.1677 41.1975 53.5303 42.0103 53.6182C42.8231 53.7062 43.6425 53.5142 44.3331 53.074L44.3393 53.0678C47.7787 50.7418 50.7421 47.7791 53.069 44.3404Z" fill="white"/>
</svg>
