<svg width="64" height="64" viewBox="0 0 64 64" fill="none" xmlns="http://www.w3.org/2000/svg">
<g clip-path="url(#clip0_299_3158)">
<g clip-path="url(#clip1_299_3158)">
<path fill-rule="evenodd" clip-rule="evenodd" d="M20.19 35.0693L14.7927 33.5901L11.5892 45.2791L4.02989 54.6171C3.05753 55.8183 3.24301 57.5803 4.44416 58.5526C5.64531 59.525 7.40729 59.3395 8.37965 58.1383L16.6767 47.889L20.19 35.0693Z" fill="#2F8D38"/>
<path fill-rule="evenodd" clip-rule="evenodd" d="M18.814 21.9569L22.5203 22.208L24.6204 24.285L25.1046 30.1821L31.2574 35.0372C32.4706 35.9945 32.678 37.754 31.7207 38.9672C30.7634 40.1804 29.0039 40.3878 27.7907 39.4305L19.7263 33.067L18.814 21.9569Z" fill="#2F8D38"/>
<path fill-rule="evenodd" clip-rule="evenodd" d="M14.3273 39.2597C13.091 38.6635 12.3873 37.2718 12.711 35.8789L14.2981 29.0503L12.8791 29.5739L9.85246 36.8036C9.25569 38.2291 7.61629 38.9009 6.19077 38.3042C4.76524 37.7074 4.09342 36.068 4.6902 34.6425L8.65716 25.1666L17.1207 22.0434C17.9914 21.4975 19.071 21.2852 20.151 21.5363L22.4179 22.0631C24.0318 22.4382 25.036 24.0505 24.6609 25.6644L21.7544 38.1702L28.6287 43.9012L29.5552 56.5791C29.6679 58.1204 28.5097 59.4612 26.9685 59.5738C25.4272 59.6865 24.0864 58.5283 23.9737 56.9871L23.217 46.6331L14.3273 39.2597Z" fill="#44C650"/>
<path d="M35.3833 31.6581C35.3833 31.1058 35.831 30.6581 36.3833 30.6581H39.0877C39.64 30.6581 40.0877 31.1058 40.0877 31.6581V59.5813H35.3833V31.6581Z" fill="#2F8D38"/>
<rect x="35.3833" y="36.3356" width="4.70444" height="6.45246" fill="#44C650"/>
<path d="M30.7959 57.6595C30.7959 57.1073 31.2436 56.6595 31.7959 56.6595H43.6751C44.2274 56.6595 44.6751 57.1073 44.6751 57.6595V59.5814H30.7959V57.6595Z" fill="#2F8D38"/>
<path d="M48.2194 41.0809L50.1353 46.0099L54.9753 43.8793L52.8447 48.7194L57.7737 50.6353L52.8447 52.5512L54.9753 57.3912L50.1353 55.2606L48.2194 60.1896L46.3035 55.2606L41.4634 57.3912L43.594 52.5512L38.665 50.6353L43.594 48.7194L41.4634 43.8793L46.3035 46.0099L48.2194 41.0809Z" fill="#44C650"/>
<circle cx="23.6248" cy="12.375" r="7.33333" fill="#2F8D38"/>
<path d="M15.8332 10.5417C15.8332 5.98534 19.5854 2.29169 24.214 2.29169C25.8256 2.29169 27.2821 2.87332 28.4991 3.55491C29.2031 3.94916 29.6539 4.66718 29.7881 5.46281L30.0415 6.96528L15.8332 10.5417Z" fill="#44C650"/>
<path d="M15.8333 10.8794C15.8333 6.61614 19.3691 4.125 23.7307 4.125C27.758 4.125 30.9583 6.16204 31.4166 10.7454L34.3063 11.9494C34.6415 12.0891 34.6717 12.5172 34.3381 12.6604C33.6673 12.9484 32.5673 13.2917 31.1345 13.2917H29.4578C26.9675 13.2917 24.4887 12.9534 22.0894 12.2861L20.9829 11.9784C20.663 11.8894 20.3325 11.8443 20.0004 11.8443H16.7499C16.2437 11.8443 15.8333 11.4339 15.8333 10.9276V10.8794Z" fill="#44C650"/>
<path d="M23.2781 5.04169C25.1507 5.04169 26.844 5.48607 28.1644 6.42665C28.2686 6.50085 28.1844 6.64813 28.063 6.6079C26.4713 6.08052 25.1648 6.00875 23.2781 6.00875C21.1746 6.00875 19.3358 6.24638 17.9 6.99717C17.7752 7.06241 17.629 6.89065 17.7387 6.80241C19.1615 5.65804 21.1183 5.04169 23.2781 5.04169Z" fill="#2F8D38"/>
</g>
<rect x="35" y="5" width="24" height="24" rx="12" fill="#44C650"/>
<path d="M53.069 14.3404L53.0752 14.3341C53.5156 13.6433 53.7075 12.8236 53.6194 12.0105C53.5312 11.1975 53.1682 10.4397 52.5904 9.86238L52.0885 9.36052C51.8642 9.13619 51.5597 9.01045 51.2419 9.01095C50.9242 9.01146 50.6192 9.13817 50.3942 9.36321L48.2729 11.4845C48.0478 11.7096 47.9211 12.0145 47.9206 12.3323C47.9201 12.65 48.0458 12.9546 48.2702 13.1789C48.4945 13.4032 48.6202 13.7078 48.6197 14.0255C48.6192 14.3433 48.4925 14.6482 48.2675 14.8733L44.8734 18.2674C44.6483 18.4924 44.3434 18.6191 44.0256 18.6196C43.7079 18.6201 43.4033 18.4944 43.179 18.2701C42.9547 18.0457 42.6501 17.92 42.3324 17.9205C42.0146 17.921 41.7097 18.0477 41.4846 18.2728L39.3633 20.3941C39.1383 20.6191 39.0116 20.9241 39.0111 21.2418C39.0106 21.5596 39.1363 21.8641 39.3606 22.0884L39.8625 22.5903C40.4398 23.1677 41.1975 23.5303 42.0103 23.6182C42.8231 23.7062 43.6425 23.5142 44.3331 23.074L44.3393 23.0678C47.7787 20.7418 50.7421 17.7791 53.069 14.3404Z" fill="white"/>
</g>
<defs>
<clipPath id="clip0_299_3158">
<rect width="64" height="64" fill="white"/>
</clipPath>
<clipPath id="clip1_299_3158">
<rect width="64" height="64" fill="white" transform="translate(-2)"/>
</clipPath>
</defs>
</svg>
