<svg width="64" height="64" viewBox="0 0 64 64" fill="none" xmlns="http://www.w3.org/2000/svg">
<g clip-path="url(#clip0_126_5786)">
<path d="M31.134 9.5C31.5189 8.83333 32.4811 8.83333 32.866 9.5L56.2487 50C56.6336 50.6667 56.1525 51.5 55.3827 51.5H8.61732C7.84752 51.5 7.36639 50.6667 7.75129 50L31.134 9.5Z" fill="#2F8D38"/>
<circle cx="32" cy="43.4445" r="3.22222" fill="white"/>
<path d="M28.1705 21.4588C28.064 20.2875 28.9862 19.2777 30.1623 19.2777H33.8377C35.0138 19.2777 35.936 20.2875 35.8295 21.4588L34.582 35.181C34.4884 36.2112 33.6247 36.9999 32.5902 36.9999H31.4098C30.3754 36.9999 29.5116 36.2112 29.418 35.181L28.1705 21.4588Z" fill="white"/>
</g>
<rect x="35" y="35" width="24" height="24" rx="12" fill="white"/>
<path d="M40.688 39.8074L39.1866 41.3088L41.5816 43.7038C41.6503 43.7725 41.7435 43.8111 41.8407 43.8111H42.1893L47.6856 49.3073C47.8287 49.4504 48.0606 49.4504 48.2037 49.3073L48.6865 48.8245C48.8296 48.6815 48.8296 48.4495 48.6865 48.3064L43.1903 42.8102V42.4614C43.1903 42.3643 43.1517 42.2711 43.083 42.2024L40.688 39.8074Z" fill="#44C650"/>
<path d="M46.1626 48.7853C46.0939 48.7166 46.0553 48.6234 46.0553 48.5262V46.6761H47.9054C48.0026 46.6761 48.0958 46.7147 48.1645 46.7834L54.1916 52.8105C54.3347 52.9536 54.3347 53.1856 54.1916 53.3287L52.7079 54.8124C52.5648 54.9555 52.3328 54.9555 52.1897 54.8124L46.1626 48.7853Z" fill="#44C650"/>
<path d="M48.0319 43.8325C47.9843 43.7106 47.9429 43.5849 47.9082 43.4556C47.4024 41.5678 48.5227 39.6273 50.4106 39.1215C51.6479 38.7899 52.9079 39.157 53.7717 39.9808L49.8251 41.0383L49.2755 43.0892L50.7769 44.5906L54.7235 43.5331C54.3874 44.6785 53.4797 45.6264 52.2424 45.9579C51.4824 46.1615 50.7139 46.1016 50.0339 45.8342L41.4388 54.4292C40.8861 54.982 39.9898 54.982 39.437 54.4292C38.8842 53.8764 38.8842 52.9802 39.437 52.4274L48.0319 43.8325Z" fill="#44C650"/>
<defs>
<clipPath id="clip0_126_5786">
<rect width="64" height="64" fill="white"/>
</clipPath>
</defs>
</svg>
