<svg width="42" height="53" viewBox="0 0 42 53" fill="none" xmlns="http://www.w3.org/2000/svg">
<g clip-path="url(#clip0_238_4905)">
<path d="M15.9525 41.0616L8.17642 33.5839L0.946045 40.5368L8.72211 48.0146C12.1327 51.2943 16.771 52.9997 21.2729 52.9997C24.8199 52.9997 28.5033 51.9502 31.5046 49.8512L23.865 42.5047C21.2729 43.5542 18.1352 43.0294 15.9525 41.0616Z" fill="#44C650"/>
<path d="M14.0425 4.98562L18.8173 9.5772L19.6358 10.3643C22.2278 9.44601 25.3655 9.97076 27.5483 11.9386L33.6873 17.8421L41.0541 10.7579L34.9151 4.85443C28.7761 -1.04904 19.0901 -1.70498 12.1326 3.01779L14.0425 4.98562Z" fill="#2F8D38"/>
<path d="M14.0427 4.9856L18.9539 9.57718L14.0427 4.9856Z" fill="#44C650"/>
<path d="M27.0024 31.6168L17.0436 22.0401C16.9071 21.9089 16.6343 21.6465 16.4979 21.3841L13.3602 18.3668L5.72053 11.0203C5.03842 12.9881 4.62915 14.9559 4.62915 17.0549C4.62915 21.6465 6.53906 25.8445 9.81319 29.1242L23.8647 42.6366L31.5043 49.9831C32.3228 49.4584 33.1414 48.8024 33.8235 48.1465C35.7334 46.3099 36.9612 44.342 37.9162 42.1118L27.0024 31.6168Z" fill="#2F8D38"/>
<path d="M26.3202 16.791L19.6355 10.3628L26.3202 16.791Z" fill="#445760"/>
<path d="M16.6343 21.5144L18.9535 23.7446L16.6343 21.5144Z" fill="#445760"/>
<path d="M33.8239 24.0064L26.3207 16.791L19.7724 10.494L18.9539 9.70687L14.0427 4.98409L12.1328 3.14746C11.3143 3.67221 10.4957 4.32815 9.81361 4.98409C8.04012 6.68954 6.6759 8.78855 5.72095 11.0187L13.3606 18.3653L16.4983 21.3826L18.8175 23.6128L26.3207 30.8282C26.4571 30.9593 26.73 31.2217 26.8664 31.4841L37.7802 41.9791C40.2357 35.9445 38.8715 28.8603 33.8239 24.0064Z" fill="#44C650"/>
<path d="M13.3601 18.3671L16.6342 21.5156L13.3601 18.3671Z" fill="#445760"/>
</g>
<defs>
<clipPath id="clip0_238_4905">
<rect width="40.1081" height="53" fill="white" transform="translate(0.945801)"/>
</clipPath>
</defs>
</svg>
