<svg width="48" height="48" viewBox="0 0 48 48" fill="none" xmlns="http://www.w3.org/2000/svg">
<path d="M20.8361 9.48767C21.6408 6.17078 26.3592 6.17078 27.1639 9.48767C27.2846 9.98595 27.5213 10.4487 27.8547 10.8382C28.188 11.2277 28.6087 11.5331 29.0823 11.7293C29.556 11.9255 30.0693 12.0072 30.5805 11.9675C31.0917 11.9279 31.5862 11.7681 32.024 11.5012C34.9386 9.72567 38.2762 13.0614 36.5007 15.9779C36.2341 16.4155 36.0746 16.9097 36.0351 17.4206C35.9955 17.9314 36.0771 18.4443 36.2731 18.9177C36.4691 19.3911 36.7741 19.8115 37.1632 20.1449C37.5522 20.4782 38.0145 20.715 38.5123 20.8361C41.8292 21.6408 41.8292 26.3592 38.5123 27.1639C38.014 27.2846 37.5513 27.5213 37.1618 27.8547C36.7722 28.188 36.4669 28.6087 36.2707 29.0823C36.0745 29.556 35.9928 30.0693 36.0325 30.5805C36.0721 31.0917 36.2319 31.5862 36.4988 32.024C38.2743 34.9386 34.9386 38.2762 32.0221 36.5007C31.5845 36.2341 31.0903 36.0746 30.5794 36.0351C30.0686 35.9955 29.5557 36.0771 29.0823 36.2731C28.6089 36.4691 28.1885 36.7741 27.8551 37.1632C27.5218 37.5522 27.285 38.0145 27.1639 38.5123C26.3592 41.8292 21.6408 41.8292 20.8361 38.5123C20.7154 38.014 20.4787 37.5513 20.1453 37.1618C19.812 36.7722 19.3913 36.4669 18.9177 36.2707C18.444 36.0745 17.9307 35.9928 17.4195 36.0325C16.9083 36.0721 16.4138 36.2319 15.976 36.4988C13.0614 38.2743 9.72378 34.9386 11.4993 32.0221C11.7659 31.5845 11.9254 31.0903 11.9649 30.5794C12.0045 30.0686 11.9229 29.5557 11.7269 29.0823C11.5309 28.6089 11.2259 28.1885 10.8368 27.8551C10.4478 27.5218 9.98551 27.285 9.48767 27.1639C6.17078 26.3592 6.17078 21.6408 9.48767 20.8361C9.98595 20.7154 10.4487 20.4787 10.8382 20.1453C11.2277 19.812 11.5331 19.3913 11.7293 18.9177C11.9255 18.444 12.0072 17.9307 11.9675 17.4195C11.9279 16.9083 11.7681 16.4138 11.5012 15.976C9.72567 13.0614 13.0614 9.72378 15.9779 11.4993C17.8592 12.6478 20.3148 11.6316 20.8361 9.48767Z" fill="#2F8D38"/>
<path d="M-nan -nanL30 24C30 25.5913 29.3679 27.1174 28.2426 28.2426C27.1174 29.3679 25.5913 30 24 30C22.4087 30 20.8826 29.3679 19.7574 28.2426C18.6321 27.1174 18 25.5913 18 24C18 22.4087 18.6321 20.8826 19.7574 19.7574C20.8826 18.6321 22.4087 18 24 18C25.5913 18 27.1174 18.6321 28.2426 19.7574C29.3679 20.8826 30 22.4087 30 24L-nan -nanL-nan -nanZ" stroke="white" stroke-width="3"/>
<circle cx="24" cy="24" r="9" fill="#43BC4E"/>
<circle cx="24" cy="24" r="6" fill="white"/>
</svg>
