<svg width="64" height="64" viewBox="0 0 64 64" fill="none" xmlns="http://www.w3.org/2000/svg">
<path d="M10 58C7.79086 58 6 56.2091 6 54V9C6 7.13252 7.27976 5.56394 9.01012 5.12343C9.54533 4.98717 10 5.44772 10 6V13H56C56.5523 13 57 13.4477 57 14V57C57 57.5523 56.5523 58 56 58H10Z" fill="#44C650"/>
<path d="M9.01012 50.1234C7.27976 50.5639 6 52.1325 6 54V9C6 7.13252 7.27976 5.56394 9.01012 5.12343C9.54533 4.98717 10 5.44772 10 6V49C10 49.5523 9.54533 49.9872 9.01012 50.1234Z" fill="#2F8D38"/>
<path fill-rule="evenodd" clip-rule="evenodd" d="M39.3835 49C39.4744 48.7413 39.5905 48.4874 39.7326 48.2413C40.97 46.098 43.7106 45.3637 45.8539 46.6011C47.2587 47.4122 48.0582 48.869 48.094 50.3801L43.6133 47.7932L41.2849 49.1376L41.2849 51.8262L45.7655 54.4132C44.439 55.1377 42.7776 55.1738 41.3728 54.3627C40.4181 53.8115 39.7429 52.962 39.3971 52L27.6987 52C27.0767 53.7277 25.4232 54.9631 23.4812 54.9631C21.0063 54.9631 19 52.9569 19 50.482C19 48.0071 21.0063 46.0008 23.4812 46.0008C25.4367 46.0008 27.0996 47.2534 27.7115 49L39.3835 49ZM24.8256 52.8105L26.17 50.482L24.8256 48.1536L22.1369 48.1536L20.7926 50.482L22.1369 52.8105L24.8256 52.8105Z" fill="white"/>
<path d="M33 45C41.8366 45 49 37.8366 49 29H17C17 37.8366 24.1634 45 33 45Z" fill="#2F8D38"/>
<path d="M33 9.5C23.7138 9.5 16.1148 15.5518 16.0013 24.7899C15.9997 24.9176 15.9278 25.0361 15.8136 25.0932C15.315 25.3425 15 25.8521 15 26.4096V28C15 29.1046 15.8954 30 17 30H17.8739C18.4949 30 19.1086 30.1429 19.6595 30.4295C23.8005 32.5839 25.4885 34 33 34C40.5114 34 42.1995 32.5839 46.3405 30.4295C46.8914 30.1429 47.5051 30 48.1261 30H49C50.1046 30 51 29.1046 51 28V26.4096C51 25.8521 50.685 25.3425 50.1864 25.0932C50.0722 25.0361 50.0003 24.9176 49.9987 24.7899C49.8852 15.5518 42.2861 9.5 33 9.5Z" fill="white"/>
<path d="M37.4906 9.19537C37.9474 9.31215 38.2403 9.74921 38.2001 10.2191L37.4024 19.5474C37.3778 19.835 37.2291 20.0973 36.9702 20.2249C36.3722 20.5198 35.0791 21 33.0001 21C30.9212 21 29.628 20.5198 29.0299 20.2249C28.7711 20.0973 28.6223 19.835 28.5978 19.5474L27.8001 10.219C27.7599 9.74919 28.0527 9.31212 28.5096 9.19535C29.9397 8.82981 31.4454 8.63635 33 8.63635C34.5547 8.63635 36.0604 8.82981 37.4906 9.19537Z" fill="#2F8D38"/>
<path d="M33 27C27.8908 27 24.6602 27.4576 23.1047 27.7537C22.8415 27.8038 22.7027 27.4981 22.933 27.3612C24.4151 26.4803 27.6948 25 33 25C38.3052 25 41.5849 26.4803 43.067 27.3612C43.2973 27.4981 43.1585 27.8038 42.8953 27.7537C41.3398 27.4576 38.1092 27 33 27Z" fill="#2F8D38"/>
<path d="M31.9999 9.97955V8.5C31.9999 7.94772 32.4477 7.5 32.9999 7.5C33.5522 7.5 33.9999 7.94772 33.9999 8.5V9.97959C33.9999 13.0779 34.2768 16.17 34.8274 19.219L35.1818 21.1818H30.8181L31.1725 19.2191C31.723 16.17 31.9999 13.0779 31.9999 9.97955Z" fill="white"/>
</svg>
