<svg id="레이어_1" data-name="레이어 1" xmlns="http://www.w3.org/2000/svg" viewBox="0 0 900 600"><defs><style>.cls-1{fill:#e20212;}.cls-2{fill:#f6e204;}</style></defs><rect class="cls-1" width="900" height="600"/><path id="a" class="cls-2" d="M186.48,973.48,206.69,1040h65.38l-52.89,38.43,20.2,62.19-52.9-38.44-52.9,38.44,20.2-62.19L100.89,1040h65.38Z" transform="translate(-36.48 -917.77)"/><path id="a-2" data-name="a" class="cls-2" d="M348.78,948.84l-2.47,23,20.05,8.53-21.24,4.89L343.21,1007,332,988.31l-21.24,4.89,14.31-16.44-11.22-18.69,20.06,8.53Z" transform="translate(-36.48 -917.77)"/><path id="a-3" data-name="a" class="cls-2" d="M419,1015.88l-11.22,20.27L423,1051.79l-21.47-3.74-10.19,19.27-3.08-21.58L366.78,1042l19.57-9.6-3.08-21.58,15.17,15.65Z" transform="translate(-36.48 -917.77)"/><path id="a-4" data-name="a" class="cls-2" d="M426,1117l-18.5,13.92,7.47,20.48-18.08-12.17-17.16,13.43,6-21-18.08-12.17,21.78-.79,6-21,7.48,20.47Z" transform="translate(-36.48 -917.77)"/><path id="a-5" data-name="a" class="cls-2" d="M347.57,1158.36l-1.52,23.11,20.4,7.69-21,5.76-1,21.78-12-18.21-21,5.76,13.61-17-12-18.2,20.4,7.69Z" transform="translate(-36.48 -917.77)"/></svg>