<?xml version="1.0" standalone="no"?>
<!DOCTYPE svg PUBLIC "-//W3C//DTD SVG 20010904//EN"
 "http://www.w3.org/TR/2001/REC-SVG-20010904/DTD/svg10.dtd">
<svg version="1.0" xmlns="http://www.w3.org/2000/svg"
 width="1280.000000pt" height="1060.000000pt" viewBox="0 0 1280.000000 1060.000000"
 preserveAspectRatio="xMidYMid meet">
<metadata>
Created by potrace 1.15, written by Peter Selinger 2001-2017
</metadata>
<g transform="translate(0.000000,1060.000000) scale(0.100000,-0.100000)"
fill="#000000" stroke="none">
<path d="M2442 9348 c-20 -20 -15 -242 8 -360 34 -172 133 -442 198 -536 10
-15 29 -45 42 -67 l24 -40 -23 20 c-40 35 -218 248 -287 343 -64 89 -252 387
-323 512 -33 58 -54 73 -64 48 -8 -22 29 -200 55 -269 70 -179 165 -342 302
-514 40 -49 87 -110 106 -134 138 -177 -406 347 -622 599 -43 51 -47 54 -63
39 -16 -16 -16 -20 0 -70 10 -30 22 -59 26 -65 5 -6 15 -32 23 -57 21 -70 109
-197 270 -388 38 -45 63 -78 55 -74 -31 18 -151 103 -276 198 -136 102 -170
115 -166 66 2 -38 77 -185 128 -254 42 -56 44 -60 25 -67 -11 -4 -23 -14 -26
-22 -7 -17 70 -171 89 -179 8 -3 17 -18 20 -34 4 -19 31 -53 78 -97 67 -63 71
-69 59 -91 -8 -14 -10 -35 -6 -52 15 -59 87 -171 146 -227 l61 -58 -20 -20
c-12 -10 -21 -25 -21 -33 0 -28 106 -180 158 -227 49 -43 52 -48 41 -72 -9
-20 -9 -29 2 -45 80 -110 120 -160 152 -190 34 -31 37 -39 32 -71 -6 -33 -1
-40 83 -134 l89 -100 -5 -48 -5 -48 78 -79 c42 -43 96 -90 120 -102 l44 -24
-23 -25 c-43 -45 -42 -64 6 -117 74 -81 73 -79 53 -110 -18 -26 -17 -27 4 -41
20 -14 20 -16 6 -32 -13 -14 -14 -22 -4 -43 6 -14 19 -29 29 -33 10 -5 36 -26
59 -46 40 -37 40 -38 26 -71 -20 -48 8 -108 64 -137 40 -20 40 -21 35 -63 -9
-62 15 -111 65 -136 34 -18 43 -29 55 -70 21 -72 33 -89 70 -105 30 -13 34
-19 40 -68 8 -64 34 -107 73 -123 23 -9 32 -24 53 -86 22 -64 29 -76 58 -88
18 -8 34 -24 37 -35 27 -136 46 -172 92 -178 23 -3 29 -10 41 -53 21 -79 46
-118 85 -137 30 -15 40 -29 69 -99 27 -66 40 -86 70 -105 20 -13 39 -34 43
-46 14 -46 69 -128 87 -128 25 0 64 -47 89 -107 14 -34 29 -55 43 -59 33 -10
64 -44 77 -83 24 -73 60 -132 93 -152 24 -14 45 -43 76 -104 32 -62 51 -87 71
-96 16 -6 33 -17 38 -23 13 -16 37 -122 57 -251 13 -79 21 -105 40 -126 13
-14 24 -30 24 -36 0 -6 9 -22 21 -36 15 -20 18 -31 10 -45 -16 -30 -143 -139
-206 -177 -33 -20 -84 -55 -113 -78 -85 -67 -105 -78 -132 -72 -146 31 -682
86 -865 88 -93 1 -120 -2 -172 -22 -71 -27 -83 -44 -52 -77 25 -27 20 -39 -20
-47 -41 -8 -49 -41 -21 -79 l21 -29 -26 -31 -26 -31 26 -27 c25 -27 25 -27 5
-45 -30 -27 -24 -46 26 -83 31 -23 44 -39 41 -50 -19 -60 -19 -59 17 -80 35
-20 36 -23 30 -66 -7 -45 -7 -45 39 -73 26 -15 49 -36 53 -46 7 -23 62 -47
108 -47 32 0 37 -5 63 -52 27 -51 29 -53 76 -56 44 -3 47 -5 47 -30 0 -15 -13
-43 -28 -64 -26 -34 -28 -44 -23 -110 3 -47 83 -23 183 54 21 16 77 43 125 59
49 17 120 44 160 60 51 20 100 32 170 38 54 5 139 17 188 26 80 15 188 16 202
1 3 -2 -3 -16 -14 -30 -16 -23 -24 -25 -94 -26 -47 0 -102 -8 -140 -19 -35
-11 -86 -22 -114 -26 -82 -10 -130 -33 -173 -80 -23 -25 -49 -45 -59 -45 -39
-1 -113 -90 -113 -135 0 -10 -23 -38 -51 -65 -31 -28 -49 -52 -45 -59 11 -18
189 -13 291 8 50 10 139 30 199 45 108 25 170 35 333 55 45 6 96 17 113 26 17
9 98 83 181 164 111 111 157 150 182 155 17 4 107 20 198 36 189 34 586 132
824 204 211 63 449 159 600 241 104 56 479 305 575 381 41 33 113 87 160 121
192 138 332 341 385 558 7 29 7 29 16 8 10 -28 27 -22 58 20 13 18 49 52 79
77 30 25 71 60 91 78 20 19 68 54 106 80 39 25 153 105 255 177 339 241 402
269 806 358 159 36 318 68 354 71 144 15 256 57 480 177 36 19 109 48 164 65
110 32 149 60 144 100 -3 24 -14 30 -133 69 -143 47 -220 78 -229 93 -3 5 -50
35 -103 65 -129 73 -177 82 -312 62 -150 -22 -237 -54 -355 -130 -69 -44 -176
-95 -306 -145 -109 -43 -265 -125 -404 -214 -142 -91 -244 -147 -319 -176 -40
-15 -81 -31 -91 -35 -58 -25 99 101 211 169 78 47 239 126 257 126 7 0 35 12
62 26 27 14 66 35 86 45 20 10 39 28 43 39 3 11 33 36 67 55 33 20 81 53 107
74 25 21 61 46 78 55 18 9 50 33 71 54 41 39 126 95 202 132 83 41 214 133
290 203 163 152 195 185 240 254 130 197 175 415 175 848 0 296 -8 385 -34
385 -29 0 -67 -36 -105 -98 -19 -31 -55 -77 -81 -102 -58 -56 -96 -116 -131
-205 -27 -68 -28 -69 -36 -38 -12 47 -32 59 -68 42 -42 -21 -133 -128 -174
-206 -20 -37 -43 -77 -51 -87 -14 -18 -15 -18 -33 4 -14 17 -25 21 -43 17 -32
-9 -151 -117 -201 -184 -27 -37 -45 -53 -55 -49 -35 14 -189 -78 -276 -166
-32 -32 -64 -58 -70 -58 -24 0 -253 -137 -288 -173 -20 -20 -52 -42 -70 -49
-36 -12 -230 -128 -264 -158 -11 -10 -46 -25 -77 -34 -57 -16 -181 -82 -230
-121 -14 -12 -50 -30 -79 -39 -29 -10 -92 -44 -139 -76 -47 -32 -113 -68 -148
-80 -34 -13 -81 -40 -104 -60 l-42 -37 32 -19 c18 -10 31 -22 29 -27 -1 -5
-36 -22 -77 -37 -132 -48 -200 -92 -200 -128 0 -12 -22 -29 -70 -52 -38 -19
-82 -47 -97 -63 -16 -16 -63 -46 -105 -68 -42 -21 -79 -43 -83 -49 -28 -45
-269 96 -328 193 -10 16 -44 60 -75 97 -31 37 -82 98 -112 135 -30 38 -67 80
-81 94 -14 15 -33 40 -42 57 -8 16 -44 66 -79 110 -35 43 -77 97 -93 119 -16
22 -56 69 -89 105 -69 76 -369 448 -379 470 -4 8 -27 42 -51 75 -72 96 -181
258 -193 286 -25 57 -188 213 -349 331 -17 13 -62 51 -100 85 -38 34 -161 142
-274 239 -113 98 -268 241 -345 319 -163 165 -338 327 -612 567 -243 212 -534
500 -636 629 -85 108 -156 216 -241 367 -60 108 -120 269 -201 548 -49 166
-82 261 -94 268 -4 3 -13 0 -19 -6z"/>
</g>
</svg>
