<?xml version="1.0" encoding="utf-8"?>
<!-- Generator: Adobe Illustrator 24.3.0, SVG Export Plug-In . SVG Version: 6.00 Build 0)  -->
<svg version="1.1" id="Layer_1" xmlns="http://www.w3.org/2000/svg" xmlns:xlink="http://www.w3.org/1999/xlink" x="0px" y="0px"
	 viewBox="0 0 22 22" style="enable-background:new 0 0 22 22;" xml:space="preserve">
<style type="text/css">
	.st0{fill:#58B75F;}
	.st1{fill:#0377BE;}
	.st2{fill:#ED6C05;}
	.st3{fill:#C52826;}
	.st4{fill:#4D433E;}
	.st5{opacity:0;fill:#0377BE;}
</style>
<g>
	<rect class="st5" width="22" height="22"/>
	<path class="st0" d="M11,2.74c-4.56,0-8.26,3.7-8.26,8.26c0,4.56,3.7,8.26,8.26,8.26c4.56,0,8.26-3.7,8.26-8.26
		C19.26,6.44,15.56,2.74,11,2.74 M11,17.96C7.16,17.95,4.05,14.84,4.04,11C4.05,7.16,7.16,4.05,11,4.04
		c3.84,0.01,6.95,3.11,6.96,6.96C17.95,14.84,14.84,17.95,11,17.96 M9.21,9.65c0-0.76-0.62-1.38-1.38-1.38S6.45,8.89,6.45,9.65
		c0,0.76,0.62,1.38,1.38,1.38S9.21,10.41,9.21,9.65 M14.17,8.27c-0.76,0-1.38,0.62-1.38,1.38c0,0.76,0.62,1.38,1.38,1.38
		c0.76,0,1.38-0.62,1.38-1.38C15.55,8.89,14.93,8.27,14.17,8.27 M13.94,13.15c-0.28-0.2-0.67-0.13-0.87,0.15
		c-0.47,0.67-1.25,1.02-2.07,1.02c-0.81,0-1.6-0.35-2.07-1.02c-0.2-0.28-0.59-0.35-0.87-0.15c-0.28,0.2-0.35,0.59-0.15,0.87
		c0.73,1.05,1.92,1.56,3.09,1.56h0c1.16,0,2.35-0.51,3.09-1.56C14.29,13.74,14.22,13.35,13.94,13.15"/>
</g>
</svg>
