<svg width="72" height="12" viewBox="0 0 72 12" fill="none" xmlns="http://www.w3.org/2000/svg">
<g clip-path="url(#clip0_238_4894)">
<path d="M6.35928 3.54286C6.35928 3.08571 6.14371 2.74286 5.82036 2.51429C5.497 2.28571 4.95808 2.05714 4.41916 2.05714C3.98802 2.05714 3.66467 2.05714 3.4491 2.17143C3.23353 2.4 3.01796 2.51429 2.91018 2.74286C2.69461 2.85714 2.69461 3.08571 2.69461 3.31429C2.69461 3.54286 2.69461 3.65714 2.80239 3.88571C2.91018 4.11429 3.01796 4.22857 3.23353 4.34286C3.34132 4.45714 3.55689 4.57143 3.77245 4.57143C3.98802 4.57143 4.20359 4.68571 4.41916 4.8L5.38922 5.02857C5.82036 5.14286 6.35928 5.25714 6.68263 5.48571C7.11377 5.71429 7.43712 5.94286 7.76048 6.17143C8.08383 6.51429 8.2994 6.85714 8.40718 7.2C8.62275 7.54286 8.73054 8 8.73054 8.45714C8.73054 9.14286 8.51497 9.82857 8.19162 10.2857C7.86826 10.8571 7.32934 11.2 6.68263 11.5429C6.03593 11.8857 5.28144 12 4.41916 12C3.55689 12 2.80239 11.8857 2.0479 11.5429C1.29341 11.2 0.97006 10.8571 0.538922 10.2857C0.107784 9.71429 0 9.02857 0 8.11429H2.26347C2.26347 8.45714 2.37126 8.8 2.58683 9.14286C2.80239 9.37143 3.01796 9.6 3.34132 9.71429C3.66467 9.82857 3.98802 9.94286 4.41916 9.94286C4.8503 9.94286 5.17365 9.82857 5.497 9.71429C5.82036 9.6 6.03593 9.37143 6.14371 9.25714C6.2515 9.02857 6.35928 8.8 6.35928 8.45714C6.35928 8.22857 6.2515 8 6.14371 7.77143C6.03593 7.54286 5.82036 7.54286 5.497 7.42857C5.28144 7.2 4.8503 7.08571 4.52695 7.08571L3.34132 6.74286C2.37126 6.51429 1.72455 6.17143 1.18563 5.6C0.646707 5.02857 0.431138 4.45714 0.431138 3.54286C0.431138 2.85714 0.646706 2.17143 0.97006 1.71429C1.18563 1.14286 1.72455 0.685714 2.26347 0.457143C2.91018 0.114286 3.66467 0 4.41916 0C5.28144 0 5.92814 0.114286 6.57485 0.457143C7.22156 0.8 7.65269 1.14286 7.97605 1.71429C8.2994 2.28571 8.51497 2.85714 8.51497 3.54286H6.35928Z" fill="#445760"/>
<path d="M15.3052 11.8857V0.114258H17.6764V5.25712H17.7842L21.7722 0.114258H24.5746L20.4788 5.3714L24.5746 11.7714H21.7722L18.7543 6.9714L17.5686 8.45712V11.7714H15.3052V11.8857Z" fill="#445760"/>
<path d="M25.7607 11.8857V0.114258H33.1979V2.1714H28.0242V4.91426H32.7667V6.9714H28.0242V9.71426H33.0901V11.7714H25.7607V11.8857Z" fill="#445760"/>
<path d="M35.03 11.8857V0.114258H42.4671V2.1714H37.4013V4.91426H42.036V6.9714H37.2935V9.71426H42.3594V11.7714H35.03V11.8857Z" fill="#445760"/>
<path d="M44.2993 11.8857V0.114258H48.6107C49.473 0.114258 50.1197 0.228544 50.7664 0.571401C51.4131 0.914258 51.8442 1.3714 52.0598 1.94283C52.3831 2.51426 52.4909 3.19997 52.4909 3.99997C52.4909 4.79997 52.3831 5.48569 52.0598 6.05712C51.7364 6.62854 51.3053 7.08569 50.6586 7.42854C50.0119 7.7714 49.3652 7.99997 48.6107 7.99997H45.8083V6.05712H48.1796C48.6107 6.05712 49.0418 5.94283 49.2574 5.82854C49.5808 5.71426 49.7963 5.48569 50.0119 5.14283C50.2275 4.79997 50.2275 4.45712 50.2275 4.11426C50.2275 3.7714 50.1197 3.42854 50.0119 3.08569C49.9041 2.74283 49.6885 2.51426 49.3652 2.39997C49.0418 2.28569 48.7185 2.1714 48.2873 2.1714H46.6706V11.8857H44.2993Z" fill="#445760"/>
<path d="M54.1079 11.8857V0.114258H61.545V2.1714H56.4792V4.91426H61.2217V6.9714H56.4792V9.71426H61.545V11.7714H54.1079V11.8857Z" fill="#445760"/>
<path d="M63.3772 11.8857V0.114258H67.6886C68.5509 0.114258 69.1976 0.228544 69.8443 0.571401C70.3832 0.914258 70.9221 1.3714 71.2455 1.94283C71.5688 2.51426 71.6766 3.19997 71.6766 3.99997C71.6766 4.79997 71.5688 5.48569 71.2455 5.94283C70.9221 6.51426 70.491 6.9714 69.8443 7.19997C69.1976 7.54283 68.5509 7.65711 67.6886 7.65711H64.7784V5.71426H67.2574C67.6886 5.71426 68.1197 5.59997 68.3353 5.48569C68.6586 5.3714 68.8742 5.14283 68.982 4.91426C69.0898 4.68569 69.1976 4.34283 69.1976 3.99997C69.1976 3.65712 69.0898 3.31426 68.982 2.9714C68.8742 2.74283 68.6586 2.51426 68.3353 2.39997C68.0119 2.28569 67.6886 2.1714 67.2574 2.1714H65.6407V11.8857H63.3772ZM69.3054 6.51426L72 11.7714H69.4131L66.8263 6.51426H69.3054Z" fill="#445760"/>
<path d="M11.8566 7.31427C12.571 7.31427 13.1501 6.70026 13.1501 5.94284C13.1501 5.18542 12.571 4.57141 11.8566 4.57141C11.1423 4.57141 10.5632 5.18542 10.5632 5.94284C10.5632 6.70026 11.1423 7.31427 11.8566 7.31427Z" fill="#445760"/>
</g>
<defs>
<clipPath id="clip0_238_4894">
<rect width="72" height="12" fill="white"/>
</clipPath>
</defs>
</svg>
