<svg width="36" height="27" viewBox="0 0 36 27" fill="none" xmlns="http://www.w3.org/2000/svg">
<path d="M18 2.5C8.71385 2.5 1.11483 8.55177 1.00129 17.7899C0.999719 17.9176 0.927823 18.0361 0.813559 18.0932C0.314956 18.3425 0 18.8521 0 19.4096V21C0 22.1046 0.89543 23 2 23H2.87391C3.49489 23 4.10864 23.1429 4.65953 23.4295C8.80052 25.5839 10.4885 27 18 27C25.5114 27 27.1995 25.5839 31.3405 23.4295C31.8914 23.1429 32.5051 23 33.1261 23H34C35.1046 23 36 22.1046 36 21V19.4096C36 18.8521 35.685 18.3425 35.1864 18.0932C35.0722 18.0361 35.0003 17.9176 34.9987 17.7899C34.8852 8.55178 27.2861 2.5 18 2.5Z" fill="#76E2D5"/>
<path d="M22.4908 2.19525C22.9477 2.31203 23.2405 2.74909 23.2003 3.21894L22.4027 12.5473C22.3781 12.8349 22.2294 13.0971 21.9705 13.2248C21.3724 13.5197 20.0793 13.9999 18.0004 13.9999C15.9214 13.9999 14.6283 13.5197 14.0302 13.2248C13.7713 13.0971 13.6226 12.8349 13.598 12.5473L12.8003 3.21892C12.7602 2.74907 13.053 2.312 13.5099 2.19522C14.94 1.82968 16.4457 1.63623 18.0003 1.63623C19.5549 1.63623 21.0607 1.82969 22.4908 2.19525Z" fill="#3DA497"/>
<path d="M18 20C12.8908 20 9.66022 20.4576 8.10469 20.7537C7.84153 20.8038 7.70275 20.4981 7.93302 20.3612C9.41507 19.4803 12.6948 18 18 18C23.3052 18 26.5849 19.4803 28.067 20.3612C28.2973 20.4981 28.1585 20.8038 27.8953 20.7537C26.3398 20.4576 23.1092 20 18 20Z" fill="#3DA497"/>
<path d="M17.0002 2.97955V1.5C17.0002 0.947715 17.4479 0.5 18.0002 0.5C18.5525 0.5 19.0002 0.947715 19.0002 1.5V2.97959C19.0002 6.07791 19.2771 9.17002 19.8276 12.219L20.182 14.1818H15.8184L16.1727 12.2191C16.7233 9.17004 17.0002 6.0779 17.0002 2.97955Z" fill="#76E2D5"/>
</svg>
