<svg width="150" height="150" viewBox="0 0 150 150" fill="none" xmlns="http://www.w3.org/2000/svg">
<circle cx="75" cy="75" r="75" fill="#44C650"/>
<path d="M99 58V48C99 34.7452 88.2548 24 75 24C61.7452 24 51 34.7452 51 48V58" stroke="#F7F9FC" stroke-width="14"/>
<rect x="32" y="57" width="86" height="60" rx="4" fill="#2F8D38"/>
<rect x="39.5" y="75.5" width="71" height="17" rx="1.5" fill="#F7F9FC" stroke="#F7F9FC"/>
<path d="M49.9532 85.3133L50.8615 86.8864L51.9981 86.2302L51.0897 84.6567H52.9062V83.3442H51.0901L51.9981 81.7715L50.8615 81.1152L49.9532 82.6883L49.045 81.1152L47.9084 81.7715L48.8163 83.3442H47V84.6567H48.8168L47.9084 86.2302L49.045 86.8864L49.9532 85.3133Z" fill="#44C650"/>
<path d="M57.172 85.3133L58.0802 86.8864L59.2169 86.2302L58.3084 84.6567H60.125V83.3442H58.3089L59.2169 81.7715L58.0802 81.1152L57.172 82.6883L56.2638 81.1152L55.1271 81.7715L56.0351 83.3442H54.2188V84.6567H56.0356L55.1271 86.2302L56.2638 86.8864L57.172 85.3133Z" fill="#44C650"/>
<path d="M64.3907 85.3133L65.299 86.8864L66.4356 86.2302L65.5272 84.6567H67.3438V83.3442H65.5276L66.4356 81.7715L65.299 81.1152L64.3907 82.6883L63.4825 81.1152L62.3459 81.7715L63.2538 83.3442H61.4375V84.6567H63.2543L62.3459 86.2302L63.4825 86.8864L64.3907 85.3133Z" fill="#44C650"/>
<path d="M71.6095 85.3133L72.5177 86.8864L73.6544 86.2302L72.7459 84.6567H74.5625V83.3442H72.7464L73.6544 81.7715L72.5177 81.1152L71.6095 82.6883L70.7013 81.1152L69.5646 81.7715L70.4726 83.3442H68.6562V84.6567H70.4731L69.5646 86.2302L70.7013 86.8864L71.6095 85.3133Z" fill="#44C650"/>
<path d="M78.8282 85.3133L79.7365 86.8864L80.8731 86.2302L79.9647 84.6567H81.7812V83.3442H79.9651L80.8731 81.7715L79.7365 81.1152L78.8282 82.6883L77.92 81.1152L76.7834 81.7715L77.6913 83.3442H75.875V84.6567H77.6918L76.7834 86.2302L77.92 86.8864L78.8282 85.3133Z" fill="#44C650"/>
<path d="M92.9532 85.3133L93.8615 86.8864L94.9981 86.2302L94.0897 84.6567H95.9062V83.3442H94.0901L94.9981 81.7715L93.8615 81.1152L92.9532 82.6883L92.045 81.1152L90.9084 81.7715L91.8163 83.3442H90V84.6567H91.8168L90.9084 86.2302L92.045 86.8864L92.9532 85.3133Z" fill="#44C650"/>
<path d="M86.047 85.3133L86.9552 86.8864L88.0919 86.2302L87.1834 84.6567H89V83.3442H87.1839L88.0919 81.7715L86.9552 81.1152L86.047 82.6883L85.1388 81.1152L84.0021 81.7715L84.9101 83.3442H83.0938V84.6567H84.9106L84.0021 86.2302L85.1388 86.8864L86.047 85.3133Z" fill="#44C650"/>
<path d="M100.172 85.3133L101.08 86.8864L102.217 86.2302L101.308 84.6567H103.125V83.3442H101.309L102.217 81.7715L101.08 81.1152L100.172 82.6883L99.2638 81.1152L98.1271 81.7715L99.0351 83.3442H97.2188V84.6567H99.0356L98.1271 86.2302L99.2638 86.8864L100.172 85.3133Z" fill="#44C650"/>
</svg>
