<svg id="레이어_1" data-name="레이어 1" xmlns="http://www.w3.org/2000/svg" viewBox="0 0 900 599.9"><defs><style>.cls-1{fill:#fafafa;}.cls-2{fill:#3863c2;}.cls-3{fill:#e7253a;}</style></defs><rect class="cls-1" width="900" height="599.9"/><path class="cls-2" d="M22.7-363.5a72.79,72.79,0,0,0,2.5-15.4,77.07,77.07,0,0,0-.5-15.2A77.61,77.61,0,0,0-4.4-444.6a74.06,74.06,0,0,0-12.8-8,80.13,80.13,0,0,0-14.6-6,72.79,72.79,0,0,0-15.4-2.5,77.08,77.08,0,0,0-15.2.6,78.34,78.34,0,0,0-28.1,9.7,75.48,75.48,0,0,0-18,15.8c-5.5,6-10.6,13.3-15.8,19.9a77,77,0,0,1-24.5,16.6,90.24,90.24,0,0,1-14.5,4.5,78,78,0,0,1-31.2,0,91.38,91.38,0,0,1-14.6-4.5,79.11,79.11,0,0,1-24.6-16.6,77,77,0,0,1-16.6-24.5,73.79,73.79,0,0,1-4.5-14.5,78,78,0,0,1,0-31.2,9,9,0,0,1,.6-2.2,151.46,151.46,0,0,0,76.1,200.3,151.51,151.51,0,0,0,177-39.4,146.16,146.16,0,0,0,24-36.7h0v-.2Z" transform="translate(565.3 726.1)"/><path class="cls-3" d="M-114.7-578.6A152.19,152.19,0,0,0-254-487.3a10.41,10.41,0,0,1-.6,2.2,78,78,0,0,0,0,31.2,73.79,73.79,0,0,0,4.5,14.5,78,78,0,0,0,41.2,41.2,74.72,74.72,0,0,0,14.6,4.5,78,78,0,0,0,31.2,0,73.79,73.79,0,0,0,14.5-4.5A77.42,77.42,0,0,0-124-414.8c5.2-6.6,10.3-13.6,15.8-19.9a75.48,75.48,0,0,1,18-15.8,78.34,78.34,0,0,1,28.1-9.7,77.08,77.08,0,0,1,15.2-.6,79.8,79.8,0,0,1,15.4,2.5A83.49,83.49,0,0,1-4-444.6a77.07,77.07,0,0,1,29,50.5,77.38,77.38,0,0,1,.6,15.2,79.8,79.8,0,0,1-2.5,15.4,151.31,151.31,0,0,0-73.7-201,152,152,0,0,0-64.3-14h.2Z" transform="translate(565.3 726.1)"/><path d="M-281.6-221.5l-83.6-126.6,20.3-13.4,83.6,126.6Z" transform="translate(565.3 726.1)"/><path d="M-338.5-282.9l-20.3,13.4-38-57.5,20.3-13.4Z" transform="translate(565.3 726.1)"/><path d="M-313.3-200.5l-37.9-57.3,20.3-13.4,37.9,57.3Z" transform="translate(565.3 726.1)"/><path d="M-345.1-179.5l-83.6-126.6,20.3-13.4,83.6,126.6Z" transform="translate(565.3 726.1)"/><path d="M76.3-548.3l20.3-13.4,38,57.7-20.3,13.4Z" transform="translate(565.3 726.1)"/><path d="M51-630.8l37.7,57.3L68.4-560,30.5-617.3Z" transform="translate(565.3 726.1)"/><path d="M82.7-651.7l84,126.5-20.4,13.4L62.4-638.3Z" transform="translate(565.3 726.1)"/><path d="M139.8-590.3l20.3-13.4,38,57.6-20.3,13.4Z" transform="translate(565.3 726.1)"/><path d="M114.5-672.7l37.9,57.3L132-602,94.1-659.3Z" transform="translate(565.3 726.1)"/><path d="M76.3-303.9l20.4,13.4,37.9-57.7-20.3-13.4Z" transform="translate(565.3 726.1)"/><path d="M51-221.5l37.7-57.3L68.4-292.2,30.5-234.9Z" transform="translate(565.3 726.1)"/><path d="M108-282.9l20.3,13.4,38-57.5L146-340.4Z" transform="translate(565.3 726.1)"/><path d="M82.7-200.5l37.9-57.3-20.3-13.4L62.4-213.9Z" transform="translate(565.3 726.1)"/><path d="M139.8-262l20.3,13.4,38-57.6-20.3-13.4Z" transform="translate(565.3 726.1)"/><path d="M114.5-179.5l37.9-57.3L132-250.2,94.2-193Z" transform="translate(565.3 726.1)"/><rect x="-388.97" y="-572.95" width="151.6" height="24.4" transform="translate(892.61 213.36) rotate(-56.53)"/><rect x="-420.72" y="-593.96" width="151.6" height="24.4" transform="translate(895.89 177.45) rotate(-56.53)"/><rect x="-452.42" y="-614.92" width="151.6" height="24.4" transform="translate(899.16 141.6) rotate(-56.53)"/></svg>