<svg id="레이어_1" data-name="레이어 1" xmlns="http://www.w3.org/2000/svg" xmlns:xlink="http://www.w3.org/1999/xlink" viewBox="0 0 900 600.1"><defs><style>.cls-1{fill:none;}.cls-2{clip-path:url(#clip-path);}.cls-3{fill:#ca1e1c;}.cls-4{fill:#fff;}.cls-5{fill:#193e7a;}</style><clipPath id="clip-path" transform="translate(-404.4 736.9)"><rect class="cls-1" x="404.4" y="-736.9" width="900" height="600"/></clipPath></defs><g class="cls-2"><rect class="cls-3" width="900" height="46.2"/></g><g class="cls-2"><rect class="cls-4" y="46.2" width="900" height="46.2"/></g><g class="cls-2"><rect class="cls-3" y="92.4" width="900" height="46.1"/></g><g class="cls-2"><rect class="cls-4" y="138.5" width="900" height="46.2"/></g><g class="cls-2"><rect class="cls-3" y="184.7" width="900" height="46.2"/></g><g class="cls-2"><rect class="cls-4" y="230.8" width="900" height="46.2"/></g><g class="cls-2"><rect class="cls-3" y="277" width="900" height="46.2"/></g><g class="cls-2"><rect class="cls-4" y="323.1" width="900" height="46.2"/></g><g class="cls-2"><rect class="cls-3" y="369.3" width="900" height="46.2"/></g><g class="cls-2"><rect class="cls-4" y="415.4" width="900" height="46.2"/></g><g class="cls-2"><rect class="cls-3" y="461.6" width="900" height="46.2"/></g><g class="cls-2"><rect class="cls-4" y="507.7" width="900" height="46.2"/></g><g class="cls-2"><rect class="cls-3" y="553.9" width="900" height="46.2"/></g><g class="cls-2"><rect class="cls-5" width="360" height="323.1"/></g><g class="cls-2"><polygon class="cls-4" points="30.4 12.6 33.6 25.3 44.2 25.3 35.6 33.2 38.9 45.9 30.4 38 21.8 45.9 25.1 33.2 16.5 25.3 27.1 25.3 30.4 12.6"/></g><g class="cls-2"><polygon class="cls-4" points="60.3 45.6 63.5 58.3 74.1 58.3 65.5 66.1 68.8 78.8 60.3 71 51.8 78.8 55 66.1 46.5 58.3 57 58.3 60.3 45.6"/></g><g class="cls-2"><polygon class="cls-4" points="120.2 46 123.4 58.7 134 58.7 125.4 66.5 128.7 79.3 120.2 71.4 111.6 79.3 114.9 66.5 106.3 58.7 116.9 58.7 120.2 46"/></g><g class="cls-2"><polygon class="cls-4" points="180 47.3 183.3 60 193.8 60 185.3 67.8 188.6 80.5 180 72.6 171.5 80.5 174.8 67.8 166.2 60 176.8 60 180 47.3"/></g><g class="cls-2"><polygon class="cls-4" points="239.9 47.3 243.1 60 253.7 60 245.1 67.8 248.4 80.5 239.9 72.6 231.4 80.5 234.6 67.8 226.1 60 236.6 60 239.9 47.3"/></g><g class="cls-2"><polygon class="cls-4" points="299.8 47.3 303 60 313.6 60 305 67.8 308.3 80.5 299.8 72.6 291.2 80.5 294.5 67.8 285.9 60 296.5 60 299.8 47.3"/></g><g class="cls-2"><polygon class="cls-4" points="60.3 110.1 63.5 122.9 74.1 122.9 65.5 130.7 68.8 143.4 60.3 135.5 51.8 143.4 55 130.7 46.5 122.9 57 122.9 60.3 110.1"/></g><g class="cls-2"><polygon class="cls-4" points="120.2 110.6 123.4 123.3 134 123.3 125.4 131.1 128.7 143.8 120.2 136 111.6 143.8 114.9 131.1 106.3 123.3 116.9 123.3 120.2 110.6"/></g><g class="cls-2"><polygon class="cls-4" points="180 111.8 183.3 124.6 193.8 124.5 185.3 132.4 188.6 145.1 180 137.2 171.5 145.1 174.8 132.4 166.2 124.5 176.8 124.6 180 111.8"/></g><g class="cls-2"><polygon class="cls-4" points="239.9 111.8 243.1 124.6 253.7 124.5 245.1 132.4 248.4 145.1 239.9 137.2 231.4 145.1 234.6 132.4 226.1 124.5 236.6 124.6 239.9 111.8"/></g><g class="cls-2"><polygon class="cls-4" points="299.8 111.8 303 124.6 313.6 124.5 305 132.4 308.3 145.1 299.8 137.2 291.2 145.1 294.5 132.4 285.9 124.5 296.5 124.6 299.8 111.8"/></g><g class="cls-2"><polygon class="cls-4" points="60.3 177.5 63.5 190.2 74.1 190.2 65.5 198.1 68.8 210.8 60.3 202.9 51.8 210.8 55 198.1 46.5 190.2 57 190.2 60.3 177.5"/></g><g class="cls-2"><polygon class="cls-4" points="120.2 177.9 123.4 190.7 134 190.6 125.4 198.5 128.7 211.2 120.2 203.3 111.6 211.2 114.9 198.5 106.3 190.6 116.9 190.7 120.2 177.9"/></g><g class="cls-2"><polygon class="cls-4" points="180 179.2 183.3 191.9 193.8 191.9 185.3 199.8 188.6 212.5 180 204.6 171.5 212.5 174.8 199.8 166.2 191.9 176.8 191.9 180 179.2"/></g><g class="cls-2"><polygon class="cls-4" points="239.9 179.2 243.1 191.9 253.7 191.9 245.1 199.8 248.4 212.5 239.9 204.6 231.4 212.5 234.6 199.8 226.1 191.9 236.6 191.9 239.9 179.2"/></g><g class="cls-2"><polygon class="cls-4" points="299.8 179.2 303 191.9 313.6 191.9 305 199.8 308.3 212.5 299.8 204.6 291.2 212.5 294.5 199.8 285.9 191.9 296.5 191.9 299.8 179.2"/></g><g class="cls-2"><polygon class="cls-4" points="60.3 244.3 63.5 257.1 74.1 257 65.5 264.9 68.8 277.6 60.3 269.7 51.8 277.6 55 264.9 46.5 257 57 257.1 60.3 244.3"/></g><g class="cls-2"><polygon class="cls-4" points="120.2 244.8 123.4 257.5 134 257.5 125.4 265.3 128.7 278 120.2 270.1 111.6 278 114.9 265.3 106.3 257.5 116.9 257.5 120.2 244.8"/></g><g class="cls-2"><polygon class="cls-4" points="180 244.3 183.3 257.1 193.8 257 185.3 264.9 188.6 277.6 180 269.7 171.5 277.6 174.8 264.9 166.2 257 176.8 257.1 180 244.3"/></g><g class="cls-2"><polygon class="cls-4" points="239.9 246 243.1 258.8 253.7 258.7 245.1 266.6 248.4 279.3 239.9 271.4 231.4 279.3 234.6 266.6 226.1 258.7 236.6 258.8 239.9 246"/></g><g class="cls-2"><polygon class="cls-4" points="299.8 246 303 258.8 313.6 258.7 305 266.6 308.3 279.3 299.8 271.4 291.2 279.3 294.5 266.6 285.9 258.7 296.5 258.8 299.8 246"/></g><g class="cls-2"><polygon class="cls-4" points="90.2 12.6 93.5 25.3 104 25.3 95.5 33.2 98.8 45.9 90.2 38 81.7 45.9 85 33.2 76.4 25.3 87 25.3 90.2 12.6"/></g><g class="cls-2"><polygon class="cls-4" points="150.1 12.6 153.3 25.3 163.9 25.3 155.3 33.2 158.6 45.9 150.1 38 141.6 45.9 144.8 33.2 136.3 25.3 146.9 25.3 150.1 12.6"/></g><g class="cls-2"><polygon class="cls-4" points="210 12.6 213.2 25.3 223.8 25.3 215.2 33.2 218.5 45.9 210 38 201.4 45.9 204.7 33.2 196.2 25.3 206.7 25.3 210 12.6"/></g><g class="cls-2"><polygon class="cls-4" points="269.8 12.6 273.1 25.3 283.6 25.3 275.1 33.2 278.4 45.9 269.8 38 261.3 45.9 264.6 33.2 256 25.3 266.6 25.3 269.8 12.6"/></g><g class="cls-2"><polygon class="cls-4" points="329.7 12.6 332.9 25.3 343.5 25.3 335 33.2 338.2 45.9 329.7 38 321.2 45.9 324.5 33.2 315.9 25.3 326.5 25.3 329.7 12.6"/></g><g class="cls-2"><polygon class="cls-4" points="30.4 78.6 33.6 91.3 44.2 91.3 35.6 99.1 38.9 111.8 30.4 104 21.8 111.8 25.1 99.1 16.5 91.3 27.1 91.3 30.4 78.6"/></g><g class="cls-2"><polygon class="cls-4" points="90.2 78.6 93.5 91.3 104 91.3 95.5 99.1 98.8 111.8 90.2 104 81.7 111.8 85 99.1 76.4 91.3 87 91.3 90.2 78.6"/></g><g class="cls-2"><polygon class="cls-4" points="150.1 78.6 153.3 91.3 163.9 91.3 155.3 99.1 158.6 111.8 150.1 104 141.6 111.8 144.8 99.1 136.3 91.3 146.8 91.3 150.1 78.6"/></g><g class="cls-2"><polygon class="cls-4" points="210 78.6 213.2 91.3 223.8 91.3 215.2 99.1 218.5 111.8 210 104 201.4 111.8 204.7 99.1 196.2 91.3 206.7 91.3 210 78.6"/></g><g class="cls-2"><polygon class="cls-4" points="269.8 78.6 273.1 91.3 283.6 91.3 275.1 99.1 278.4 111.8 269.8 104 261.3 111.8 264.6 99.1 256 91.3 266.6 91.3 269.8 78.6"/></g><g class="cls-2"><polygon class="cls-4" points="329.7 78.6 332.9 91.3 343.5 91.3 334.9 99.1 338.2 111.8 329.7 104 321.2 111.8 324.4 99.1 315.9 91.3 326.5 91.3 329.7 78.6"/></g><g class="cls-2"><polygon class="cls-4" points="30.4 144.6 33.6 157.3 44.2 157.3 35.6 165.1 38.9 177.8 30.4 169.9 21.8 177.8 25.1 165.1 16.5 157.3 27.1 157.3 30.4 144.6"/></g><g class="cls-2"><polygon class="cls-4" points="90.2 144.6 93.5 157.3 104 157.3 95.5 165.1 98.8 177.8 90.2 169.9 81.7 177.8 85 165.1 76.4 157.3 87 157.3 90.2 144.6"/></g><g class="cls-2"><polygon class="cls-4" points="150.1 144.6 153.3 157.3 163.9 157.3 155.3 165.1 158.6 177.8 150.1 169.9 141.5 177.8 144.8 165.1 136.3 157.3 146.8 157.3 150.1 144.6"/></g><g class="cls-2"><polygon class="cls-4" points="210 144.6 213.2 157.3 223.8 157.3 215.2 165.1 218.5 177.8 210 169.9 201.4 177.8 204.7 165.1 196.1 157.3 206.7 157.3 210 144.6"/></g><g class="cls-2"><polygon class="cls-4" points="269.8 144.6 273.1 157.3 283.6 157.3 275.1 165.1 278.4 177.8 269.8 169.9 261.3 177.8 264.6 165.1 256 157.3 266.6 157.3 269.8 144.6"/></g><g class="cls-2"><polygon class="cls-4" points="329.7 144.6 332.9 157.3 343.5 157.3 334.9 165.1 338.2 177.8 329.7 169.9 321.2 177.8 324.4 165.1 315.9 157.3 326.5 157.3 329.7 144.6"/></g><g class="cls-2"><polygon class="cls-4" points="30.3 210.5 33.6 223.3 44.2 223.2 35.6 231.1 38.9 243.8 30.3 235.9 21.8 243.8 25.1 231.1 16.5 223.2 27.1 223.3 30.3 210.5"/></g><g class="cls-2"><polygon class="cls-4" points="90.2 210.5 93.5 223.3 104 223.2 95.5 231.1 98.8 243.8 90.2 235.9 81.7 243.8 85 231.1 76.4 223.2 87 223.3 90.2 210.5"/></g><g class="cls-2"><polygon class="cls-4" points="150.1 210.5 153.3 223.3 163.9 223.2 155.3 231.1 158.6 243.8 150.1 235.9 141.5 243.8 144.8 231.1 136.3 223.2 146.8 223.3 150.1 210.5"/></g><g class="cls-2"><polygon class="cls-4" points="210 210.5 213.2 223.3 223.8 223.2 215.2 231.1 218.5 243.8 210 235.9 201.4 243.8 204.7 231.1 196.1 223.2 206.7 223.3 210 210.5"/></g><g class="cls-2"><polygon class="cls-4" points="269.8 210.5 273.1 223.3 283.6 223.2 275.1 231.1 278.4 243.8 269.8 235.9 261.3 243.8 264.6 231.1 256 223.2 266.6 223.3 269.8 210.5"/></g><g class="cls-2"><polygon class="cls-4" points="329.7 210.5 332.9 223.3 343.5 223.2 334.9 231.1 338.2 243.8 329.7 235.9 321.2 243.8 324.4 231.1 315.9 223.2 326.4 223.3 329.7 210.5"/></g><g class="cls-2"><polygon class="cls-4" points="30.3 276.5 33.6 289.2 44.2 289.2 35.6 297.1 38.9 309.8 30.3 301.9 21.8 309.8 25.1 297.1 16.5 289.2 27.1 289.2 30.3 276.5"/></g><g class="cls-2"><polygon class="cls-4" points="90.2 276.5 93.5 289.2 104 289.2 95.5 297.1 98.8 309.8 90.2 301.9 81.7 309.8 85 297.1 76.4 289.2 87 289.2 90.2 276.5"/></g><g class="cls-2"><polygon class="cls-4" points="150.1 276.5 153.3 289.2 163.9 289.2 155.3 297.1 158.6 309.8 150.1 301.9 141.5 309.8 144.8 297.1 136.3 289.2 146.8 289.2 150.1 276.5"/></g><g class="cls-2"><polygon class="cls-4" points="210 276.5 213.2 289.2 223.8 289.2 215.2 297.1 218.5 309.8 210 301.9 201.4 309.8 204.7 297.1 196.1 289.2 206.7 289.2 210 276.5"/></g><g class="cls-2"><polygon class="cls-4" points="269.8 276.5 273.1 289.2 283.6 289.2 275.1 297.1 278.4 309.8 269.8 301.9 261.3 309.8 264.6 297.1 256 289.2 266.6 289.2 269.8 276.5"/></g><g class="cls-2"><polygon class="cls-4" points="329.7 276.5 332.9 289.2 343.5 289.2 334.9 297.1 338.2 309.8 329.7 301.9 321.1 309.8 324.4 297.1 315.9 289.2 326.4 289.2 329.7 276.5"/></g></svg>