<svg width="64" height="64" viewBox="0 0 64 64" fill="none" xmlns="http://www.w3.org/2000/svg">
<g clip-path="url(#clip0_884_3879)">
<g clip-path="url(#clip1_884_3879)">
<path fill-rule="evenodd" clip-rule="evenodd" d="M20.1902 35.0693L14.7928 33.5901L11.5894 45.2791L4.03001 54.6171C3.05765 55.8183 3.24313 57.5803 4.44428 58.5526C5.64543 59.525 7.40742 59.3395 8.37978 58.1383L16.6768 47.889L20.1902 35.0693Z" fill="#2F8D38"/>
<path fill-rule="evenodd" clip-rule="evenodd" d="M18.814 21.9569L22.5203 22.208L24.6204 24.285L25.1046 30.1821L31.2574 35.0372C32.4706 35.9945 32.678 37.754 31.7207 38.9672C30.7634 40.1804 29.0039 40.3878 27.7907 39.4305L19.7263 33.067L18.814 21.9569Z" fill="#2F8D38"/>
<path fill-rule="evenodd" clip-rule="evenodd" d="M14.3273 39.2597C13.091 38.6635 12.3873 37.2718 12.711 35.8789L14.2981 29.0503L12.8791 29.5739L9.85246 36.8036C9.25568 38.2291 7.61629 38.9009 6.19077 38.3042C4.76524 37.7074 4.09342 36.068 4.6902 34.6425L8.65716 25.1666L17.1207 22.0434C17.9914 21.4975 19.071 21.2852 20.151 21.5363L22.4179 22.0631C24.0318 22.4382 25.036 24.0505 24.6609 25.6644L21.7544 38.1702L28.6287 43.9012L29.5552 56.5791C29.6679 58.1204 28.5097 59.4612 26.9685 59.5738C25.4272 59.6865 24.0864 58.5283 23.9737 56.9871L23.217 46.6331L14.3273 39.2597Z" fill="white"/>
<path d="M35.3834 31.6581C35.3834 31.1058 35.8311 30.6581 36.3834 30.6581H39.0879C39.6401 30.6581 40.0879 31.1058 40.0879 31.6581V59.5813H35.3834V31.6581Z" fill="#2F8D38"/>
<rect x="35.3834" y="36.3356" width="4.70444" height="6.45246" fill="white"/>
<path d="M30.796 57.6595C30.796 57.1073 31.2437 56.6595 31.796 56.6595H43.6752C44.2275 56.6595 44.6752 57.1073 44.6752 57.6595V59.5814H30.796V57.6595Z" fill="#2F8D38"/>
<path d="M48.2195 41.0809L50.1354 46.0099L54.9754 43.8793L52.8449 48.7194L57.7738 50.6353L52.8449 52.5512L54.9754 57.3912L50.1354 55.2606L48.2195 60.1896L46.3036 55.2606L41.4636 57.3912L43.5941 52.5512L38.6652 50.6353L43.5941 48.7194L41.4636 43.8793L46.3036 46.0099L48.2195 41.0809Z" fill="white"/>
<circle cx="23.625" cy="12.375" r="7.33333" fill="#2F8D38"/>
<path d="M15.8333 10.5417C15.8333 5.98534 19.5855 2.29169 24.2141 2.29169C25.8258 2.29169 27.2822 2.87332 28.4992 3.55491C29.2032 3.94916 29.654 4.66718 29.7882 5.46281L30.0416 6.96528L15.8333 10.5417Z" fill="white"/>
<path d="M15.8334 10.8794C15.8334 6.61614 19.3692 4.125 23.7308 4.125C27.7581 4.125 30.9584 6.16204 31.4167 10.7454L34.3064 11.9494C34.6416 12.0891 34.6718 12.5172 34.3382 12.6604C33.6674 12.9484 32.5674 13.2917 31.1347 13.2917H29.4579C26.9676 13.2917 24.4888 12.9534 22.0895 12.2861L20.983 11.9784C20.6631 11.8894 20.3326 11.8443 20.0006 11.8443H16.75C16.2438 11.8443 15.8334 11.4339 15.8334 10.9276V10.8794Z" fill="white"/>
<path d="M23.278 5.04169C25.1506 5.04169 26.8439 5.48607 28.1643 6.42665C28.2685 6.50085 28.1843 6.64813 28.0629 6.6079C26.4712 6.08052 25.1647 6.00875 23.278 6.00875C21.1745 6.00875 19.3357 6.24638 17.8998 6.99717C17.7751 7.06241 17.6289 6.89065 17.7386 6.80241C19.1614 5.65804 21.1181 5.04169 23.278 5.04169Z" fill="#2F8D38"/>
</g>
<rect x="35" y="5" width="24" height="24" rx="12" fill="white"/>
<path d="M53.069 14.3404L53.0752 14.3341C53.5156 13.6433 53.7075 12.8236 53.6194 12.0105C53.5312 11.1975 53.1682 10.4397 52.5904 9.86238L52.0885 9.36052C51.8642 9.13619 51.5597 9.01045 51.2419 9.01095C50.9242 9.01146 50.6192 9.13817 50.3942 9.36321L48.2729 11.4845C48.0478 11.7096 47.9211 12.0145 47.9206 12.3323C47.9201 12.65 48.0458 12.9546 48.2702 13.1789V13.1789C48.4945 13.4032 48.6202 13.7078 48.6197 14.0255C48.6192 14.3433 48.4925 14.6482 48.2675 14.8733L44.8734 18.2674C44.6483 18.4924 44.3434 18.6191 44.0256 18.6196C43.7079 18.6201 43.4033 18.4944 43.179 18.2701C42.9547 18.0457 42.6501 17.92 42.3324 17.9205C42.0146 17.921 41.7097 18.0477 41.4846 18.2728L39.3633 20.3941C39.1383 20.6191 39.0116 20.9241 39.0111 21.2418C39.0106 21.5596 39.1363 21.8641 39.3606 22.0884L39.8625 22.5903C40.4398 23.1677 41.1975 23.5303 42.0103 23.6182C42.8231 23.7062 43.6425 23.5142 44.3331 23.074L44.3393 23.0678C47.7787 20.7418 50.7421 17.7791 53.069 14.3404V14.3404Z" fill="#44C650"/>
</g>
<defs>
<clipPath id="clip0_884_3879">
<rect width="64" height="64" fill="white"/>
</clipPath>
<clipPath id="clip1_884_3879">
<rect width="64" height="64" fill="white" transform="translate(-2)"/>
</clipPath>
</defs>
</svg>
