<svg width="64" height="64" viewBox="0 0 64 64" fill="none" xmlns="http://www.w3.org/2000/svg">
<g clip-path="url(#clip0_299_3152)">
<path d="M31.134 9.5C31.5189 8.83333 32.4811 8.83333 32.866 9.5L56.2487 50C56.6336 50.6667 56.1525 51.5 55.3827 51.5H8.61732C7.84752 51.5 7.36639 50.6667 7.75129 50L31.134 9.5Z" fill="#2F8D38"/>
<circle cx="32.0001" cy="43.4445" r="3.22222" fill="white"/>
<path d="M28.1704 21.4588C28.064 20.2875 28.9862 19.2777 30.1622 19.2777H33.8377C35.0137 19.2777 35.9359 20.2875 35.8294 21.4588L34.582 35.181C34.4883 36.2112 33.6246 36.9999 32.5902 36.9999H31.4097C30.3753 36.9999 29.5116 36.2112 29.4179 35.181L28.1704 21.4588Z" fill="white"/>
</g>
<rect x="35" y="35" width="24" height="24" rx="12" fill="#44C650"/>
<path d="M40.6879 39.8074L39.1865 41.3088L41.5815 43.7038C41.6502 43.7725 41.7434 43.8111 41.8406 43.8111H42.1893L47.6855 49.3073C47.8286 49.4504 48.0606 49.4504 48.2037 49.3073L48.6865 48.8245C48.8295 48.6815 48.8295 48.4495 48.6865 48.3064L43.1902 42.8102V42.4614C43.1902 42.3643 43.1516 42.2711 43.0829 42.2024L40.6879 39.8074Z" fill="white"/>
<path d="M46.1626 48.7853C46.0939 48.7166 46.0553 48.6234 46.0553 48.5262V46.6761H47.9054C48.0025 46.6761 48.0957 46.7147 48.1644 46.7834L54.1915 52.8105C54.3346 52.9536 54.3346 53.1856 54.1915 53.3287L52.7078 54.8124C52.5647 54.9555 52.3327 54.9555 52.1897 54.8124L46.1626 48.7853Z" fill="white"/>
<path d="M48.032 43.8325C47.9843 43.7106 47.943 43.5849 47.9083 43.4556C47.4025 41.5678 48.5228 39.6273 50.4106 39.1215C51.648 38.7899 52.9079 39.157 53.7717 39.9808L49.8251 41.0383L49.2756 43.0892L50.777 44.5906L54.7236 43.5331C54.3874 44.6785 53.4798 45.6264 52.2424 45.9579C51.4825 46.1615 50.7139 46.1016 50.0339 45.8342L41.4389 54.4292C40.8861 54.982 39.9899 54.982 39.4371 54.4292C38.8843 53.8764 38.8843 52.9802 39.4371 52.4274L48.032 43.8325Z" fill="white"/>
<defs>
<clipPath id="clip0_299_3152">
<rect width="64" height="64" fill="white"/>
</clipPath>
</defs>
</svg>
