<svg width="64" height="64" viewBox="0 0 64 64" fill="none" xmlns="http://www.w3.org/2000/svg">
<g clip-path="url(#clip0_1220_3790)">
<path d="M7 7C7 5.34314 8.34315 4 10 4H39.3183C40.9751 4 42.3183 5.34315 42.3183 7V57C42.3183 58.6569 40.9751 60 39.3183 60H10C8.34315 60 7 58.6569 7 57V7Z" fill="white"/>
<path fill-rule="evenodd" clip-rule="evenodd" d="M53.0801 40.3032C57.7691 35.6382 57.7691 28.0748 53.0801 23.4098C52.4685 22.8014 52.4685 21.8148 53.0801 21.2063C53.6918 20.5979 54.6834 20.5979 55.295 21.2063C61.2072 27.0883 61.2072 36.6247 55.295 42.5067C54.6834 43.1151 53.6918 43.1151 53.0801 42.5067C52.4685 41.8982 52.4685 40.9117 53.0801 40.3032Z" fill="#2F8D38"/>
<path fill-rule="evenodd" clip-rule="evenodd" d="M49.1289 35.8307C51.3715 33.5996 51.3715 29.9823 49.129 27.7513C48.5173 27.1428 48.5173 26.1563 49.129 25.5478C49.7406 24.9393 50.7322 24.9393 51.3438 25.5478C54.8096 28.9958 54.8096 34.5862 51.3438 38.0342C50.7322 38.6427 49.7406 38.6427 49.1289 38.0342C48.5173 37.4257 48.5173 36.4392 49.1289 35.8307Z" fill="#2F8D38"/>
<rect x="10.679" y="12.0522" width="28.3282" height="39.8954" rx="2" fill="#44C650"/>
<path d="M17.5 25.5H22.75V30.75H17.5V25.5ZM31.5 25.5V30.75H26.25V25.5H31.5ZM26.25 35.125H28V33.375H26.25V31.625H28V33.375H29.75V31.625H31.5V33.375H29.75V35.125H31.5V37.75H29.75V39.5H28V37.75H25.375V39.5H23.625V36H26.25V35.125ZM28 35.125V37.75H29.75V35.125H28ZM17.5 39.5V34.25H22.75V39.5H17.5ZM19.25 27.25V29H21V27.25H19.25ZM28 27.25V29H29.75V27.25H28ZM19.25 36V37.75H21V36H19.25ZM17.5 31.625H19.25V33.375H17.5V31.625ZM21.875 31.625H25.375V35.125H23.625V33.375H21.875V31.625ZM23.625 27.25H25.375V30.75H23.625V27.25ZM15.75 23.75V27.25H14V23.75C14 23.2859 14.1844 22.8408 14.5126 22.5126C14.8408 22.1844 15.2859 22 15.75 22H19.25V23.75H15.75ZM33.25 22C33.7141 22 34.1592 22.1844 34.4874 22.5126C34.8156 22.8408 35 23.2859 35 23.75V27.25H33.25V23.75H29.75V22H33.25ZM15.75 37.75V41.25H19.25V43H15.75C15.2859 43 14.8408 42.8156 14.5126 42.4874C14.1844 42.1592 14 41.7141 14 41.25V37.75H15.75ZM33.25 41.25V37.75H35V41.25C35 41.7141 34.8156 42.1592 34.4874 42.4874C34.1592 42.8156 33.7141 43 33.25 43H29.75V41.25H33.25Z" fill="#2F8D38"/>
</g>
<defs>
<clipPath id="clip0_1220_3790">
<rect width="64" height="64" fill="white"/>
</clipPath>
</defs>
</svg>
