<svg width="64" height="64" viewBox="0 0 64 64" fill="none" xmlns="http://www.w3.org/2000/svg">
<path d="M8 11C8 9.34315 9.34315 8 11 8H45.5V13.6897C45.5 15.3465 46.8431 16.6897 48.5 16.6897H56V53C56 54.6569 54.6569 56 53 56H11C9.34315 56 8 54.6569 8 53V11Z" fill="white"/>
<path d="M56 16.6897H47.5C46.3954 16.6897 45.5 15.7942 45.5 14.6897V8L56 16.6897Z" fill="#2F8D38"/>
<g clip-path="url(#clip0_1151_3837)">
<path d="M31.1005 12.6877C31.3892 12.1877 32.1108 12.1877 32.3995 12.6877L49.0705 41.5627C49.3592 42.0627 48.9983 42.6877 48.421 42.6877H15.079C14.5017 42.6877 14.1408 42.0627 14.4295 41.5627L31.1005 12.6877Z" fill="#44C650"/>
<circle cx="31.7499" cy="36.924" r="2.30556" fill="white"/>
<path d="M29.0169 21.2679C28.937 20.3895 29.6287 19.6321 30.5107 19.6321H32.9895C33.8715 19.6321 34.5632 20.3895 34.4833 21.2679L33.6033 30.9484C33.5331 31.7211 32.8853 32.3126 32.1095 32.3126H31.3908C30.615 32.3126 29.9672 31.7211 29.8969 30.9484L29.0169 21.2679Z" fill="white"/>
</g>
<path d="M20.4344 49.8922L21.4263 45.4092C21.461 45.2522 21.6598 45.2035 21.7695 45.3252L25.068 48.9842" stroke="#44C650" stroke-linecap="round"/>
<path d="M23.0973 47.3742L21.0757 47.7925" stroke="#44C650" stroke-linecap="round"/>
<path d="M37.2488 45.701L26.1299 46.9558M39.7758 45.701L42.6264 47.2737C42.7257 47.3285 42.8507 47.2898 42.9017 47.1885L45.3353 42.3549" stroke="#44C650" stroke-linecap="round"/>
<rect x="0.573942" y="0.441178" width="33.6478" height="9.07587" rx="1.5" transform="matrix(0.994388 -0.105792 0.153495 0.988149 13.9355 43.5768)" stroke="#44C650"/>
<defs>
<clipPath id="clip0_1151_3837">
<rect width="48" height="39.7241" fill="white" transform="translate(8 8.56274)"/>
</clipPath>
</defs>
</svg>
