<svg width="64" height="64" viewBox="0 0 64 64" fill="none" xmlns="http://www.w3.org/2000/svg">
<path d="M8 6C8 4.34315 9.34315 3 11 3H45.5V10.5C45.5 12.1569 46.8431 13.5 48.5 13.5H56V58C56 59.6569 54.6569 61 53 61H11C9.34315 61 8 59.6569 8 58V6Z" fill="#44C650"/>
<path d="M56 13.5H47.5C46.3954 13.5 45.5 12.6046 45.5 11.5V3L56 13.5Z" fill="#2F8D38"/>
<path d="M29.75 22C29.75 20.3431 28.4069 19 26.75 19H14.75C13.0931 19 11.75 20.3431 11.75 22V29.5C11.75 31.1569 13.0931 32.5 14.75 32.5H17V37L21.5 32.5H26.75C28.4069 32.5 29.75 31.1569 29.75 29.5V22Z" fill="#2F8D38"/>
<circle cx="20.75" cy="29.125" r="1.125" fill="white"/>
<path d="M18.5 23.5305C18.5 22.271 19.5074 21.25 20.75 21.25C21.9926 21.25 23 22.271 23 23.5305C23 24.2808 22.6426 24.9464 22.0909 25.3621C21.4561 25.8402 20.75 26.5 20.75 26.875" stroke="white" stroke-width="1.5" stroke-linecap="round" stroke-linejoin="round"/>
<path d="M32.75 22C32.75 20.3431 34.0931 19 35.75 19H47.75C49.4069 19 50.75 20.3431 50.75 22V29.5C50.75 31.1569 49.4069 32.5 47.75 32.5H45.5V37L41 32.5H35.75C34.0931 32.5 32.75 31.1569 32.75 29.5V22Z" fill="#2F8D38"/>
<circle cx="41.75" cy="29.125" r="1.125" fill="white"/>
<path d="M40.6998 21.6225C40.6593 21.015 41.1412 20.5 41.75 20.5C42.3588 20.5 42.8407 21.015 42.8002 21.6225L42.4699 26.5765C42.4446 26.9555 42.1298 27.25 41.75 27.25C41.3702 27.25 41.0554 26.9555 41.0301 26.5765L40.6998 21.6225Z" fill="white"/>
<circle cx="19.25" cy="49" r="8" fill="white"/>
<path d="M10.75 47C10.75 42.0294 14.8433 38 19.8927 38C21.6509 38 23.2397 38.6345 24.5674 39.3781C25.3354 39.8082 25.8272 40.5914 25.9736 41.4594L26.25 43.0985L10.75 47Z" fill="#2F8D38"/>
<path d="M10.75 47.3684C10.75 42.7176 14.6072 40 19.3654 40C23.7588 40 27.25 42.2222 27.75 47.2222L30.9024 48.5357C31.268 48.6881 31.301 49.1551 30.9371 49.3114C30.2053 49.6255 29.0053 50 27.4423 50H25.6132C22.8964 50 20.1923 49.631 17.5749 48.903L16.3678 48.5673C16.0188 48.4703 15.6583 48.4211 15.296 48.4211H11.75C11.1977 48.4211 10.75 47.9733 10.75 47.4211V47.3684Z" fill="#2F8D38"/>
<path d="M18.8715 41C20.9143 41 22.7616 41.4848 24.202 42.5109C24.3156 42.5918 24.2238 42.7525 24.0914 42.7086C22.355 42.1333 20.9297 42.055 18.8715 42.055C16.5768 42.055 14.5708 42.3142 13.0044 43.1333C12.8683 43.2044 12.7088 43.0171 12.8285 42.9208C14.3806 41.6724 16.5153 41 18.8715 41Z" fill="white"/>
<circle r="8" transform="matrix(-1 0 0 1 44.75 49)" fill="white"/>
<path d="M53.25 47C53.25 42.0294 49.1567 38 44.1073 38C42.3491 38 40.7603 38.6345 39.4326 39.3781C38.6646 39.8082 38.1728 40.5914 38.0264 41.4594L37.75 43.0985L53.25 47Z" fill="#2F8D38"/>
<path d="M53.25 47.3684C53.25 42.7176 49.3928 40 44.6346 40C40.2412 40 36.75 42.2222 36.25 47.2222L33.0976 48.5357C32.732 48.6881 32.699 49.1551 33.0629 49.3114C33.7947 49.6255 34.9947 50 36.5577 50H38.3868C41.1036 50 43.8077 49.631 46.4251 48.903L47.6322 48.5673C47.9812 48.4703 48.3417 48.4211 48.704 48.4211H52.25C52.8023 48.4211 53.25 47.9733 53.25 47.4211V47.3684Z" fill="#2F8D38"/>
<path d="M45.1285 41C43.0857 41 41.2384 41.4848 39.798 42.5109C39.6844 42.5918 39.7762 42.7525 39.9086 42.7086C41.645 42.1333 43.0703 42.055 45.1285 42.055C47.4232 42.055 49.4292 42.3142 50.9956 43.1333C51.1317 43.2044 51.2912 43.0171 51.1715 42.9208C49.6194 41.6724 47.4847 41 45.1285 41Z" fill="white"/>
</svg>
