<svg width="64" height="64" viewBox="0 0 64 64" fill="none" xmlns="http://www.w3.org/2000/svg">
<g clip-path="url(#clip0_299_3101)">
<path d="M25.9999 48.1667C36.3092 48.1667 44.6666 39.8093 44.6666 29.5H7.33325C7.33325 39.8093 15.6906 48.1667 25.9999 48.1667Z" fill="#2F8D38"/>
<path d="M26 6.75C15.1662 6.75 6.30063 13.8104 6.16817 24.5882C6.16634 24.7372 6.08246 24.8754 5.94915 24.9421C5.36745 25.2329 5 25.8275 5 26.4779V28.6667C5 29.7712 5.89543 30.6667 7 30.6667H8.51027C9.13125 30.6667 9.74657 30.8106 10.298 31.0961C15.2306 33.6498 17.1536 35.3333 26 35.3333C34.8464 35.3333 36.7694 33.6498 41.702 31.0961C42.2534 30.8106 42.8688 30.6667 43.4897 30.6667H45C46.1046 30.6667 47 29.7712 47 28.6667V26.4779C47 25.8275 46.6326 25.2329 46.0508 24.9421C45.9175 24.8754 45.8337 24.7372 45.8318 24.5882C45.6994 13.8104 36.8338 6.75 26 6.75Z" fill="#44C650"/>
<path d="M31.3694 6.42842C31.8255 6.54819 32.1184 6.98482 32.0782 7.45467L31.1297 18.5475C31.1051 18.835 30.9563 19.0973 30.6993 19.2286C30.0342 19.5683 28.5068 20.1667 26.0001 20.1667C23.4934 20.1667 21.966 19.5683 21.3009 19.2286C21.0438 19.0973 20.895 18.835 20.8705 18.5474L19.9219 7.45465C19.8817 6.98479 20.1746 6.54816 20.6307 6.42839C22.338 5.98006 24.139 5.74243 26 5.74243C27.8611 5.74243 29.6621 5.98007 31.3694 6.42842Z" fill="#2F8D38"/>
<path d="M26.0001 27.1667C19.8279 27.1667 16.0056 27.7392 14.2697 28.0821C14.0069 28.134 13.8662 27.8257 14.0944 27.6854C15.7398 26.6737 19.6109 24.8334 26.0001 24.8334C32.3893 24.8334 36.2604 26.6737 37.9058 27.6854C38.134 27.8257 37.9932 28.134 37.7304 28.0821C35.9945 27.7392 32.1723 27.1667 26.0001 27.1667Z" fill="#2F8D38"/>
<path d="M24.8334 8.08563V5.41669C24.8334 4.8644 25.2811 4.41669 25.8334 4.41669H26.1667C26.719 4.41669 27.1667 4.8644 27.1667 5.41669V8.08567C27.1667 11.184 27.4436 14.2761 27.9941 17.3251L28.5455 20.3788H23.4546L24.0059 17.3252C24.5565 14.2761 24.8334 11.184 24.8334 8.08563Z" fill="#44C650"/>
<circle cx="45" cy="48" r="12" fill="#2F8D38"/>
<circle cx="45" cy="48" r="10" fill="white"/>
<path d="M45 40V49.25L41.5 53.5" stroke="#2F8D38" stroke-width="2" stroke-linecap="round" stroke-linejoin="round"/>
</g>
<defs>
<clipPath id="clip0_299_3101">
<rect width="64" height="64" fill="white"/>
</clipPath>
</defs>
</svg>
