<svg width="64" height="64" viewBox="0 0 64 64" fill="none" xmlns="http://www.w3.org/2000/svg">
<path d="M14 51V57.5" stroke="#2F8D38" stroke-linecap="round" stroke-linejoin="round"/>
<path d="M14 15H40M16 20H38" stroke="#44C650" stroke-linecap="round" stroke-linejoin="round"/>
<rect x="5" y="6" width="54" height="45" rx="2" fill="#44C650"/>
<path d="M5 46H59V49C59 50.1046 58.1046 51 57 51H7C5.89543 51 5 50.1046 5 49V46Z" fill="#2F8D38"/>
<path d="M15 14L50 14" stroke="white" stroke-linecap="round" stroke-linejoin="round"/>
<path d="M15 20L50 20" stroke="white" stroke-linecap="round" stroke-linejoin="round"/>
<path d="M15 26H33" stroke="white" stroke-linecap="round" stroke-linejoin="round"/>
<path d="M44.134 27.5C44.5189 26.8333 45.4811 26.8333 45.866 27.5L52.7942 39.5C53.1791 40.1667 52.698 41 51.9282 41H38.0718C37.302 41 36.8209 40.1667 37.2058 39.5L44.134 27.5Z" fill="#2F8D38"/>
<path d="M45 31.5555L43.8889 34.3333L46.1111 35.4444L45 38.2222" stroke="#44C650" stroke-linecap="round" stroke-linejoin="round"/>
<path d="M49 51V57.5" stroke="#2F8D38" stroke-linecap="round" stroke-linejoin="round"/>
</svg>
