<svg width="64" height="64" viewBox="0 0 64 64" fill="none" xmlns="http://www.w3.org/2000/svg">
<g clip-path="url(#clip0_883_3742)">
<path d="M32 47.1667C42.3094 47.1667 50.6667 38.8093 50.6667 28.5H13.3334C13.3334 38.8093 21.6907 47.1667 32 47.1667Z" fill="#2F8D38"/>
<path d="M32 5.75C21.1662 5.75 12.3006 12.8104 12.1682 23.5882C12.1663 23.7372 12.0825 23.8754 11.9492 23.9421C11.3674 24.2329 11 24.8275 11 25.4779V27.6667C11 28.7712 11.8954 29.6667 13 29.6667H14.5103C15.1313 29.6667 15.7466 29.8106 16.298 30.0961C21.2306 32.6498 23.1536 34.3333 32 34.3333C40.8464 34.3333 42.7694 32.6498 47.702 30.0961C48.2534 29.8106 48.8688 29.6667 49.4897 29.6667H51C52.1046 29.6667 53 28.7712 53 27.6667V25.4779C53 24.8275 52.6326 24.2329 52.0508 23.9421C51.9175 23.8754 51.8337 23.7372 51.8318 23.5882C51.6994 12.8104 42.8338 5.75 32 5.75Z" fill="white"/>
<path d="M37.3693 5.42842C37.8254 5.54819 38.1183 5.98482 38.0781 6.45467L37.1295 17.5475C37.105 17.835 36.9562 18.0973 36.6991 18.2286C36.0341 18.5683 34.5066 19.1667 32 19.1667C29.4933 19.1667 27.9659 18.5683 27.3008 18.2286C27.0437 18.0973 26.8949 17.835 26.8703 17.5474L25.9218 6.45465C25.8816 5.98479 26.1745 5.54816 26.6306 5.42839C28.3379 4.98006 30.1388 4.74243 31.9999 4.74243C33.861 4.74243 35.662 4.98007 37.3693 5.42842Z" fill="#2F8D38"/>
<path d="M32 26.1667C25.8278 26.1667 22.0055 26.7392 20.2696 27.0821C20.0068 27.134 19.8661 26.8257 20.0943 26.6854C21.7397 25.6737 25.6108 23.8334 32 23.8334C38.3892 23.8334 42.2603 25.6737 43.9057 26.6854C44.1339 26.8257 43.9931 27.134 43.7303 27.0821C41.9944 26.7392 38.1722 26.1667 32 26.1667Z" fill="#2F8D38"/>
<path d="M30.8334 7.08563V4.41669C30.8334 3.8644 31.2811 3.41669 31.8334 3.41669H32.1667C32.719 3.41669 33.1667 3.8644 33.1667 4.41669V7.08567C33.1667 10.184 33.4436 13.2761 33.9941 16.3251L34.5455 19.3788H29.4546L30.0059 16.3252C30.5565 13.2761 30.8334 10.184 30.8334 7.08563Z" fill="white"/>
<circle cx="42" cy="38" r="12" fill="#44C650" stroke="white" stroke-width="2" stroke-linecap="round" stroke-linejoin="round"/>
<circle cx="42" cy="38" r="4" fill="#2F8D38"/>
<rect x="29.6777" y="46.4104" width="5.55169" height="16.5149" rx="2.22068" transform="rotate(45 29.6777 46.4104)" fill="white"/>
<path d="M34 39C35.5036 36.0287 38.5218 34 42 34C45.4782 34 48.4964 36.0287 50 39" stroke="#2F8D38" stroke-linecap="round" stroke-linejoin="round"/>
</g>
<defs>
<clipPath id="clip0_883_3742">
<rect width="64" height="64" fill="white"/>
</clipPath>
</defs>
</svg>
