<svg width="64" height="64" viewBox="0 0 64 64" fill="none" xmlns="http://www.w3.org/2000/svg">
<g clip-path="url(#clip0_299_3105)">
<path d="M31.9999 47.1667C42.3092 47.1667 50.6666 38.8093 50.6666 28.5H13.3333C13.3333 38.8093 21.6906 47.1667 31.9999 47.1667Z" fill="#2F8D38"/>
<path d="M32 5.75C21.1662 5.75 12.3006 12.8104 12.1682 23.5882C12.1663 23.7372 12.0825 23.8754 11.9492 23.9421C11.3674 24.2329 11 24.8275 11 25.4779V27.6667C11 28.7712 11.8954 29.6667 13 29.6667H14.5103C15.1313 29.6667 15.7466 29.8106 16.298 30.0961C21.2306 32.6498 23.1536 34.3333 32 34.3333C40.8464 34.3333 42.7694 32.6498 47.702 30.0961C48.2534 29.8106 48.8688 29.6667 49.4897 29.6667H51C52.1046 29.6667 53 28.7712 53 27.6667V25.4779C53 24.8275 52.6326 24.2329 52.0508 23.9421C51.9175 23.8754 51.8337 23.7372 51.8318 23.5882C51.6994 12.8104 42.8338 5.75 32 5.75Z" fill="#44C650"/>
<path d="M37.3694 5.42842C37.8255 5.54819 38.1184 5.98482 38.0782 6.45467L37.1297 17.5475C37.1051 17.835 36.9563 18.0973 36.6993 18.2286C36.0342 18.5683 34.5068 19.1667 32.0001 19.1667C29.4934 19.1667 27.966 18.5683 27.3009 18.2286C27.0438 18.0973 26.895 17.835 26.8705 17.5474L25.9219 6.45465C25.8817 5.98479 26.1746 5.54816 26.6307 5.42839C28.338 4.98006 30.139 4.74243 32 4.74243C33.8611 4.74243 35.6621 4.98007 37.3694 5.42842Z" fill="#2F8D38"/>
<path d="M32.0001 26.1667C25.8279 26.1667 22.0056 26.7392 20.2697 27.0821C20.0069 27.134 19.8662 26.8257 20.0944 26.6854C21.7398 25.6737 25.6109 23.8334 32.0001 23.8334C38.3893 23.8334 42.2604 25.6737 43.9058 26.6854C44.134 26.8257 43.9932 27.134 43.7304 27.0821C41.9945 26.7392 38.1723 26.1667 32.0001 26.1667Z" fill="#2F8D38"/>
<path d="M30.8334 7.08563V4.41669C30.8334 3.8644 31.2811 3.41669 31.8334 3.41669H32.1667C32.719 3.41669 33.1667 3.8644 33.1667 4.41669V7.08567C33.1667 10.184 33.4436 13.2761 33.9941 16.3251L34.5455 19.3788H29.4546L30.0059 16.3252C30.5565 13.2761 30.8334 10.184 30.8334 7.08563Z" fill="#44C650"/>
<circle cx="42" cy="38" r="12" fill="white" stroke="#44C650" stroke-width="2" stroke-linecap="round" stroke-linejoin="round"/>
<circle cx="42" cy="38" r="4" fill="#2F8D38"/>
<rect x="29.6777" y="46.4104" width="5.55169" height="16.5149" rx="2.22068" transform="rotate(45 29.6777 46.4104)" fill="#44C650"/>
<path d="M34 39C35.5036 36.0287 38.5218 34 42 34C45.4782 34 48.4964 36.0287 50 39" stroke="#2F8D38" stroke-linecap="round" stroke-linejoin="round"/>
</g>
<defs>
<clipPath id="clip0_299_3105">
<rect width="64" height="64" fill="white"/>
</clipPath>
</defs>
</svg>
