<svg width="64" height="64" viewBox="0 0 64 64" fill="none" xmlns="http://www.w3.org/2000/svg">
<rect x="4" y="10" width="56" height="38" rx="2" fill="white"/>
<path d="M20.5 17C18.4444 17 16.4205 17.507 14.6075 18.476C12.7946 19.445 11.2487 20.8462 10.1066 22.5554C8.96458 24.2646 8.26168 26.229 8.06019 28.2748C7.8587 30.3205 8.16485 32.3844 8.95151 34.2835C9.73816 36.1827 10.9811 37.8585 12.5701 39.1626C14.1591 40.4667 16.0452 41.3588 18.0614 41.7598C20.0775 42.1609 22.1614 42.0585 24.1286 41.4618C26.0957 40.865 27.8853 39.7924 29.3388 38.3388L24.0355 33.0355C23.4541 33.617 22.7383 34.046 21.9514 34.2847C21.1646 34.5234 20.331 34.5643 19.5245 34.4039C18.7181 34.2435 17.9636 33.8867 17.328 33.3651C16.6924 32.8434 16.1953 32.1731 15.8806 31.4134C15.5659 30.6538 15.4435 29.8282 15.5241 29.0099C15.6047 28.1916 15.8858 27.4058 16.3427 26.7221C16.7995 26.0385 17.4179 25.478 18.143 25.0904C18.8682 24.7028 19.6777 24.5 20.5 24.5V17Z" fill="#2F8D38"/>
<path d="M20.5 17C22.9723 17 25.389 17.7331 27.4446 19.1066C29.5002 20.4801 31.1024 22.4324 32.0485 24.7165C32.9946 27.0005 33.2421 29.5139 32.7598 31.9386C32.2775 34.3634 31.087 36.5907 29.3388 38.3388L24.0355 33.0355C24.7348 32.3363 25.211 31.4454 25.4039 30.4755C25.5969 29.5055 25.4978 28.5002 25.1194 27.5866C24.741 26.673 24.1001 25.8921 23.2779 25.3427C22.4556 24.7932 21.4889 24.5 20.5 24.5V17Z" fill="#44C650"/>
<rect x="37" y="31" width="4" height="10" fill="#44C650"/>
<rect x="44" y="18" width="4" height="23" fill="#44C650"/>
<rect x="51" y="18" width="4" height="23" fill="#44C650"/>
<path d="M21 48L19 53.5H45L43 48H21Z" fill="#2F8D38"/>
<rect x="15" y="53" width="34" height="2" rx="0.5" fill="white"/>
</svg>
