<svg width="64" height="64" viewBox="0 0 64 64" fill="none" xmlns="http://www.w3.org/2000/svg">
<g clip-path="url(#clip0_299_3130)">
<path d="M27.5 24.5L35.8095 17.6107M53 7.5V25M53 7.5L50.1456 10.6548M53 7.5H50.1456M33 29.5L35.8095 26.5M35.8095 26.5V17.6107M35.8095 26.5L43.8522 17.6107M35.8095 17.6107H43.8522M35.8095 17.6107L43.8522 10.6548M43.8522 17.6107V10.6548M43.8522 17.6107L50.1456 10.6548M43.8522 10.6548L47.2183 7.74364C47.4 7.58649 47.6322 7.5 47.8724 7.5H50.1456M43.8522 10.6548H50.1456M50.1456 10.6548V7.5" stroke="#2F8D38" stroke-width="2" stroke-linecap="round" stroke-linejoin="round"/>
<rect x="17" y="37" width="14" height="6" fill="#44C650"/>
<rect x="8" y="42" width="32" height="10" rx="5" fill="#2F8D38"/>
<path d="M12 23C12 22.4477 12.4477 22 13 22H26.5858C26.851 22 27.1054 22.1054 27.2929 22.2929L35.7071 30.7071C35.8946 30.8946 36 31.149 36 31.4142V38C36 38.5523 35.5523 39 35 39H13C12.4477 39 12 38.5523 12 38V23Z" fill="#2F8D38"/>
<path fill-rule="evenodd" clip-rule="evenodd" d="M22.5 22V32C22.5 32.5523 22.9477 33 23.5 33H36V31.4142C36 31.149 35.8946 30.8946 35.7071 30.7071L27.2929 22.2929C27.1054 22.1054 26.851 22 26.5858 22H22.5Z" fill="#44C650"/>
<circle cx="53" cy="26" r="2" fill="#2F8D38"/>
<path d="M51 33C51 34.1046 51.8954 35 53 35C54.1046 35 55 34.1046 55 33C55 32.2429 54.5793 31.5841 53.959 31.2445C53.4745 30.9793 53 30.5523 53 30V26" stroke="#2F8D38" stroke-width="2" stroke-linecap="round" stroke-linejoin="round"/>
<path fill-rule="evenodd" clip-rule="evenodd" d="M41.6605 39.6533L39.9705 41.3433L42.6663 44.0392C42.7437 44.1165 42.8486 44.16 42.958 44.16L43.3504 44.16L49.5372 50.3467C49.6982 50.5078 49.9594 50.5078 50.1204 50.3467L50.6639 49.8033C50.8249 49.6422 50.8249 49.3811 50.6639 49.2201L44.4771 43.0334V42.6408C44.4771 42.5314 44.4337 42.4265 44.3563 42.3492L41.6605 39.6533Z" fill="#44C650"/>
<path d="M47.8229 49.7591C47.7456 49.6818 47.7021 49.5769 47.7021 49.4675L47.7021 47.385L49.7846 47.385C49.894 47.385 49.9989 47.4284 50.0762 47.5058L56.8605 54.2901C57.0216 54.4511 57.0216 54.7122 56.8605 54.8733L55.1904 56.5434C55.0294 56.7044 54.7682 56.7044 54.6072 56.5434L47.8229 49.7591Z" fill="#44C650"/>
<path fill-rule="evenodd" clip-rule="evenodd" d="M48.8013 44.1839C48.7477 44.0468 48.7011 43.9053 48.6621 43.7597C48.0927 41.6347 49.3538 39.4505 51.4788 38.8811C52.8715 38.5079 54.2898 38.921 55.2621 39.8484L50.8197 41.0387L50.2011 43.3473L51.8911 45.0373L56.3335 43.847C55.9551 45.1363 54.9335 46.2032 53.5407 46.5764C52.6852 46.8056 51.8202 46.7382 51.0547 46.4371L41.3799 56.1119C40.7577 56.7342 39.7488 56.7342 39.1266 56.1119C38.5044 55.4897 38.5044 54.4808 39.1266 53.8586L48.8013 44.1839Z" fill="#44C650"/>
<circle cx="13" cy="47" r="2" fill="white"/>
<circle cx="20" cy="47" r="2" fill="white"/>
<circle cx="28" cy="47" r="2" fill="white"/>
<circle cx="35" cy="47" r="2" fill="white"/>
</g>
<defs>
<clipPath id="clip0_299_3130">
<rect width="64" height="64" fill="white"/>
</clipPath>
</defs>
</svg>
