<svg width="64" height="64" viewBox="0 0 64 64" fill="none" xmlns="http://www.w3.org/2000/svg">
<path d="M8 10C8 8.34315 9.34315 7 11 7H35.5V14.5C35.5 16.1569 36.8431 17.5 38.5 17.5H46V52C46 53.6569 44.6569 55 43 55H11C9.34315 55 8 53.6569 8 52V10Z" fill="#44C650"/>
<path d="M46 17.5H38.5C36.8431 17.5 35.5 16.1569 35.5 14.5V7L46 17.5Z" fill="white"/>
<path d="M46 17.5H37.5C36.3954 17.5 35.5 16.6046 35.5 15.5V7L46 17.5Z" fill="#2F8D38"/>
<path d="M23 14H30" stroke="white" stroke-linecap="round" stroke-linejoin="round"/>
<path d="M23 17H27" stroke="white" stroke-linecap="round" stroke-linejoin="round"/>
<path d="M23 26H30" stroke="#44C650" stroke-linecap="round" stroke-linejoin="round"/>
<path d="M23 29H27" stroke="#44C650" stroke-linecap="round" stroke-linejoin="round"/>
<path d="M13 25L18 30" stroke="white" stroke-linecap="round" stroke-linejoin="round"/>
<path d="M18 25L13 30" stroke="white" stroke-linecap="round" stroke-linejoin="round"/>
<path d="M13 15.1429L15.4 18L19 13" stroke="white" stroke-linecap="round" stroke-linejoin="round"/>
<g clip-path="url(#clip0_299_3128)">
<path d="M22 25.5556C22 23.5919 23.5919 22 25.5556 22H54.4444C56.4081 22 58 23.5919 58 25.5556V54.4444C58 56.4081 56.4081 58 54.4444 58H25.5556C23.5919 58 22 56.4081 22 54.4444V25.5556Z" fill="#2F8D38"/>
<path fill-rule="evenodd" clip-rule="evenodd" d="M34.4821 41.7265L31.446 40.8945L29.6441 47.4695L25.392 52.7221C24.845 53.3978 24.9493 54.3889 25.625 54.9359C26.3006 55.4828 27.2918 55.3785 27.8387 54.7028L32.5058 48.9376L34.4821 41.7265Z" fill="white"/>
<path fill-rule="evenodd" clip-rule="evenodd" d="M33.7078 34.3508L35.7926 34.492L36.9739 35.6603L37.2463 38.9774L40.7072 41.7084C41.3896 42.2469 41.5063 43.2366 40.9678 43.9191C40.4293 44.6015 39.4396 44.7181 38.7572 44.1797L34.221 40.6002L33.7078 34.3508Z" fill="white"/>
<path fill-rule="evenodd" clip-rule="evenodd" d="M30.9858 43.2283C30.5517 42.5665 30.3787 41.7352 30.572 40.9035L31.1676 38.3408L30.3694 38.6353L28.6669 42.702C28.3312 43.5039 27.4091 43.8818 26.6072 43.5461C25.8053 43.2104 25.4274 42.2882 25.7631 41.4864L27.9945 36.1562L33.156 34.2516L33.4482 34.3996C33.9853 34.1957 34.5868 34.1436 35.1885 34.2835C36.3981 34.5646 37.1508 35.7731 36.8696 36.9827L35.3617 43.4708L39.2285 46.6944L39.7497 53.8258C39.8131 54.6927 39.1616 55.4469 38.2946 55.5103C37.4277 55.5736 36.6735 54.9222 36.6101 54.0552L36.1845 48.2311L30.6396 43.632L30.9858 43.2283Z" fill="#44C650"/>
<path d="M43.0281 40.2452C43.0281 39.6929 43.4758 39.2452 44.0281 39.2452H44.6743C45.2266 39.2452 45.6743 39.6929 45.6743 40.2452V55.5145H43.0281V40.2452Z" fill="white"/>
<rect x="43.0281" y="42.4388" width="2.64625" height="3.62951" fill="#44C650"/>
<path d="M40.4478 54.4335C40.4478 54.1228 40.6996 53.871 41.0103 53.871H47.6923C48.003 53.871 48.2548 54.1228 48.2548 54.4335V55.5146H40.4478V54.4335Z" fill="white"/>
<path d="M50.2486 45.108L51.3263 47.8806L54.0488 46.6821L52.8504 49.4047L55.6229 50.4823L52.8504 51.56L54.0488 54.2826L51.3263 53.0841L50.2486 55.8567L49.1709 53.0841L46.4484 54.2826L47.6468 51.56L44.8743 50.4823L47.6468 49.4047L46.4484 46.6821L49.1709 47.8806L50.2486 45.108Z" fill="white"/>
<circle cx="36.4141" cy="28.9609" r="4.125" fill="white"/>
<path d="M32.0312 27.9297C32.0312 25.3667 34.1419 23.2891 36.7455 23.2891C37.652 23.2891 38.4712 23.6162 39.1558 23.9996C39.5518 24.2214 39.8054 24.6253 39.8809 25.0728L40.0234 25.918L32.0312 27.9297Z" fill="#44C650"/>
<path d="M32.0312 28.1197C32.0312 25.7216 34.0201 24.3203 36.4736 24.3203C38.7389 24.3203 40.5391 25.4661 40.7969 28.0443L41.1643 28.1974C41.8955 28.502 41.9115 29.375 41.1232 29.4528C40.9702 29.468 40.8084 29.4766 40.6382 29.4766H40.2652C38.4861 29.4766 36.7152 29.2349 35.0012 28.7582C34.7726 28.6946 34.5365 28.6624 34.2993 28.6624H32.574C32.2743 28.6624 32.0312 28.4194 32.0312 28.1197Z" fill="#44C650"/>
<path d="M36.2189 24.8359C36.8775 24.8359 37.4966 24.9337 38.0497 25.1362C38.3118 25.2322 38.1785 25.5154 37.9027 25.4733C37.3891 25.3948 36.8644 25.3799 36.2189 25.3799C35.9314 25.3799 35.6526 25.3878 35.3838 25.4058C35.0773 25.4263 34.8592 24.9826 35.1616 24.9282C35.5004 24.8671 35.8545 24.8359 36.2189 24.8359Z" fill="white"/>
</g>
<defs>
<clipPath id="clip0_299_3128">
<path d="M22 25.5556C22 23.5919 23.5919 22 25.5556 22H54.4444C56.4081 22 58 23.5919 58 25.5556V54.4444C58 56.4081 56.4081 58 54.4444 58H25.5556C23.5919 58 22 56.4081 22 54.4444V25.5556Z" fill="white"/>
</clipPath>
</defs>
</svg>
