<svg width="64" height="64" viewBox="0 0 64 64" fill="none" xmlns="http://www.w3.org/2000/svg">
<g clip-path="url(#clip0_299_3124)">
<path d="M8 10C8 8.34315 9.34315 7 11 7H35.5V14.5C35.5 16.1569 36.8431 17.5 38.5 17.5H46V52C46 53.6569 44.6569 55 43 55H11C9.34315 55 8 53.6569 8 52V10Z" fill="#44C650"/>
<path d="M46 17.5H38.5C36.8431 17.5 35.5 16.1569 35.5 14.5V7L46 17.5Z" fill="white"/>
<path d="M46 17.5H37.5C36.3954 17.5 35.5 16.6046 35.5 15.5V7L46 17.5Z" fill="#2F8D38"/>
<path d="M23 14H30" stroke="white" stroke-linecap="round" stroke-linejoin="round"/>
<path d="M23 17H27" stroke="white" stroke-linecap="round" stroke-linejoin="round"/>
<path d="M23 26H30" stroke="white" stroke-linecap="round" stroke-linejoin="round"/>
<path d="M23 29H27" stroke="white" stroke-linecap="round" stroke-linejoin="round"/>
<path d="M13 25L18 30" stroke="white" stroke-linecap="round" stroke-linejoin="round"/>
<path d="M18 25L13 30" stroke="white" stroke-linecap="round" stroke-linejoin="round"/>
<path d="M13 15.1429L15.4 18L19 13" stroke="white" stroke-linecap="round" stroke-linejoin="round"/>
<g clip-path="url(#clip1_299_3124)">
<path d="M43 52.9531C49.7655 52.9531 55.25 47.4686 55.25 40.7031H30.75C30.75 47.4686 36.2345 52.9531 43 52.9531Z" fill="white"/>
<path d="M43 25.7734C35.8903 25.7734 30.0723 30.4068 29.9854 37.4797C29.9842 37.5775 29.9291 37.6682 29.8416 37.712C29.4599 37.9028 29.2188 38.293 29.2188 38.7198V40.1562C29.2188 40.8811 29.8064 41.4687 30.5312 41.4687H31.5224C31.9299 41.4687 32.3337 41.5632 32.6956 41.7505C35.9326 43.4264 37.1945 44.5312 43 44.5312C48.8054 44.5312 50.0674 43.4264 53.3044 41.7505C53.6663 41.5632 54.0701 41.4687 54.4776 41.4687H55.4688C56.1936 41.4687 56.7813 40.8811 56.7813 40.1562V38.7198C56.7813 38.293 56.5401 37.9028 56.1584 37.712C56.0709 37.6682 56.0158 37.5775 56.0146 37.4797C55.9277 30.4068 50.1097 25.7734 43 25.7734Z" fill="#2F8D38"/>
<path d="M46.5237 25.5624C46.823 25.641 47.0152 25.9275 46.9888 26.2358L46.3664 33.5155C46.3502 33.7042 46.2526 33.8763 46.0839 33.9625C45.6474 34.1854 44.6451 34.5781 43.0001 34.5781C41.3551 34.5781 40.3527 34.1854 39.9162 33.9625C39.7475 33.8763 39.6499 33.7042 39.6337 33.5155L39.0113 26.2358C38.9849 25.9275 39.1771 25.6409 39.4764 25.5623C40.5968 25.2681 41.7787 25.1122 43 25.1122C44.2214 25.1122 45.4033 25.2681 46.5237 25.5624Z" fill="white"/>
<path d="M43 39.1719C38.9495 39.1719 36.4411 39.5476 35.302 39.7726C35.1295 39.8067 35.0371 39.6044 35.1869 39.5123C36.2667 38.8483 38.8071 37.6406 43 37.6406C47.1929 37.6406 49.7333 38.8483 50.8131 39.5123C50.9629 39.6044 50.8705 39.8067 50.698 39.7726C49.5589 39.5476 47.0505 39.1719 43 39.1719Z" fill="white"/>
<path d="M42.2344 26.6499V24.8984C42.2344 24.536 42.5282 24.2422 42.8907 24.2422H43.1094C43.4719 24.2422 43.7657 24.536 43.7657 24.8984V26.65C43.7657 28.6832 43.9474 30.7124 44.3087 32.7133L44.6705 34.7173H41.3296L41.6914 32.7134C42.0527 30.7124 42.2344 28.6832 42.2344 26.6499Z" fill="#2F8D38"/>
<circle cx="49.5625" cy="46.9375" r="7.875" fill="#44C650" stroke="#2F8D38" stroke-width="1.3125" stroke-linecap="round" stroke-linejoin="round"/>
<circle cx="49.5625" cy="46.9375" r="2.625" fill="white"/>
<rect x="41.4761" y="52.4568" width="3.6433" height="10.8379" rx="1.45732" transform="rotate(45 41.4761 52.4568)" fill="#2F8D38"/>
<path d="M44.3125 47.5937C45.2992 45.6439 47.2799 44.3125 49.5625 44.3125C51.8451 44.3125 53.8258 45.6439 54.8125 47.5938" stroke="white" stroke-linecap="round" stroke-linejoin="round"/>
</g>
</g>
<defs>
<clipPath id="clip0_299_3124">
<rect width="64" height="64" fill="white"/>
</clipPath>
<clipPath id="clip1_299_3124">
<rect width="42" height="42" fill="white" transform="translate(22 22)"/>
</clipPath>
</defs>
</svg>
