<svg width="64" height="64" viewBox="0 0 64 64" fill="none" xmlns="http://www.w3.org/2000/svg">
<g clip-path="url(#clip0_299_3107)">
<path fill-rule="evenodd" clip-rule="evenodd" d="M22.19 35.0693L16.7927 33.5901L13.5892 45.2791L6.02989 54.6171C5.05753 55.8183 5.24301 57.5803 6.44416 58.5526C7.64531 59.525 9.40729 59.3395 10.3797 58.1383L18.6767 47.889L22.19 35.0693Z" fill="#2F8D38"/>
<path fill-rule="evenodd" clip-rule="evenodd" d="M20.814 21.9569L24.5203 22.208L26.6204 24.285L27.1046 30.1821L33.2574 35.0372C34.4706 35.9945 34.678 37.754 33.7207 38.9672C32.7634 40.1804 31.0039 40.3878 29.7907 39.4305L21.7263 33.067L20.814 21.9569Z" fill="#2F8D38"/>
<path fill-rule="evenodd" clip-rule="evenodd" d="M16.3273 39.2597C15.091 38.6635 14.3873 37.2718 14.711 35.8789L16.2981 29.0503L14.8791 29.5739L11.8525 36.8036C11.2557 38.2291 9.61629 38.9009 8.19077 38.3042C6.76524 37.7074 6.09342 36.068 6.6902 34.6425L10.6572 25.1666L19.1207 22.0434C19.9914 21.4975 21.071 21.2852 22.151 21.5363L24.4179 22.0631C26.0318 22.4382 27.036 24.0505 26.6609 25.6644L23.7544 38.1702L30.6287 43.9012L31.5552 56.5791C31.6679 58.1204 30.5097 59.4612 28.9685 59.5738C27.4272 59.6865 26.0864 58.5283 25.9737 56.9871L25.217 46.6331L16.3273 39.2597Z" fill="#44C650"/>
<path d="M37.3833 31.6581C37.3833 31.1058 37.831 30.6581 38.3833 30.6581H41.0877C41.64 30.6581 42.0877 31.1058 42.0877 31.6581V59.5813H37.3833V31.6581Z" fill="#2F8D38"/>
<rect x="37.3833" y="36.3356" width="4.70444" height="6.45246" fill="#44C650"/>
<path d="M32.7959 57.6595C32.7959 57.1073 33.2436 56.6595 33.7959 56.6595H45.6751C46.2274 56.6595 46.6751 57.1073 46.6751 57.6595V59.5814H32.7959V57.6595Z" fill="#2F8D38"/>
<path d="M50.2194 41.0809L52.1353 46.0099L56.9753 43.8793L54.8447 48.7194L59.7737 50.6353L54.8447 52.5512L56.9753 57.3912L52.1353 55.2606L50.2194 60.1896L48.3035 55.2606L43.4634 57.3912L45.594 52.5512L40.665 50.6353L45.594 48.7194L43.4634 43.8793L48.3035 46.0099L50.2194 41.0809Z" fill="#44C650"/>
<circle cx="25.6248" cy="12.375" r="7.33333" fill="#2F8D38"/>
<path d="M17.8332 10.5417C17.8332 5.98534 21.5854 2.29169 26.214 2.29169C27.8256 2.29169 29.2821 2.87332 30.4991 3.55491C31.2031 3.94916 31.6539 4.66718 31.7881 5.46281L32.0415 6.96528L17.8332 10.5417Z" fill="#44C650"/>
<path d="M17.8333 10.8794C17.8333 6.61614 21.3691 4.125 25.7307 4.125C29.758 4.125 32.9583 6.16204 33.4166 10.7454L35.3881 11.5669C36.1193 11.8715 36.163 12.7766 35.3998 12.9888C34.7891 13.1587 34.0263 13.2917 33.1345 13.2917H32.4714C29.3085 13.2917 26.1603 12.862 23.1131 12.0146C22.7068 11.9016 22.287 11.8443 21.8653 11.8443H18.7982C18.2653 11.8443 17.8333 11.4123 17.8333 10.8794Z" fill="#44C650"/>
<path d="M25.2781 5.04169C26.8599 5.04169 28.3137 5.35876 29.523 6.02412C29.7674 6.15864 29.6069 6.46319 29.3368 6.39321C28.0503 6.05991 26.871 6.00875 25.2781 6.00875C23.8677 6.00875 22.5764 6.11558 21.4456 6.41229C21.1485 6.49026 20.8623 6.05793 21.1392 5.92477C22.3418 5.34628 23.7598 5.04169 25.2781 5.04169Z" fill="#2F8D38"/>
</g>
<defs>
<clipPath id="clip0_299_3107">
<rect width="64" height="64" fill="white"/>
</clipPath>
</defs>
</svg>
