<svg width="64" height="64" viewBox="0 0 64 64" fill="none" xmlns="http://www.w3.org/2000/svg">
<g clip-path="url(#clip0_883_3761)">
<path fill-rule="evenodd" clip-rule="evenodd" d="M22.1902 35.0693L16.7928 33.5901L13.5894 45.2791L6.03001 54.6171C5.05765 55.8183 5.24313 57.5803 6.44428 58.5526C7.64543 59.525 9.40742 59.3395 10.3798 58.1383L18.6768 47.889L22.1902 35.0693Z" fill="#2F8D38"/>
<path fill-rule="evenodd" clip-rule="evenodd" d="M20.814 21.9569L24.5203 22.208L26.6204 24.285L27.1046 30.1821L33.2574 35.0372C34.4706 35.9945 34.678 37.754 33.7207 38.9672C32.7634 40.1804 31.0039 40.3878 29.7907 39.4305L21.7263 33.067L20.814 21.9569Z" fill="#2F8D38"/>
<path fill-rule="evenodd" clip-rule="evenodd" d="M16.3273 39.2597C15.091 38.6635 14.3873 37.2718 14.711 35.8789L16.2981 29.0503L14.8791 29.5739L11.8525 36.8036C11.2557 38.2291 9.61629 38.9009 8.19077 38.3042C6.76524 37.7074 6.09342 36.068 6.6902 34.6425L10.6572 25.1666L19.1207 22.0434C19.9914 21.4975 21.071 21.2852 22.151 21.5363L24.4179 22.0631C26.0318 22.4382 27.036 24.0505 26.6609 25.6644L23.7544 38.1702L30.6287 43.9012L31.5552 56.5791C31.6679 58.1204 30.5097 59.4612 28.9685 59.5738C27.4272 59.6865 26.0864 58.5283 25.9737 56.9871L25.217 46.6331L16.3273 39.2597Z" fill="white"/>
<path d="M37.3834 31.6581C37.3834 31.1058 37.8311 30.6581 38.3834 30.6581H41.0879C41.6401 30.6581 42.0879 31.1058 42.0879 31.6581V59.5813H37.3834V31.6581Z" fill="#2F8D38"/>
<rect x="37.3834" y="36.3356" width="4.70444" height="6.45246" fill="white"/>
<path d="M32.796 57.6595C32.796 57.1073 33.2437 56.6595 33.796 56.6595H45.6752C46.2275 56.6595 46.6752 57.1073 46.6752 57.6595V59.5814H32.796V57.6595Z" fill="#2F8D38"/>
<path d="M50.2195 41.0809L52.1354 46.0099L56.9754 43.8793L54.8449 48.7194L59.7738 50.6353L54.8449 52.5512L56.9754 57.3912L52.1354 55.2606L50.2195 60.1896L48.3036 55.2606L43.4636 57.3912L45.5941 52.5512L40.6652 50.6353L45.5941 48.7194L43.4636 43.8793L48.3036 46.0099L50.2195 41.0809Z" fill="white"/>
<circle cx="25.6251" cy="12.375" r="7.33333" fill="#2F8D38"/>
<path d="M17.8334 10.5417C17.8334 5.98534 21.5856 2.29169 26.2142 2.29169C27.8259 2.29169 29.2823 2.87332 30.4993 3.55491C31.2033 3.94916 31.6542 4.66718 31.7884 5.46281L32.0418 6.96528L17.8334 10.5417Z" fill="white"/>
<path d="M17.8334 10.8794C17.8334 6.61614 21.3692 4.125 25.7308 4.125C29.7581 4.125 32.9584 6.16204 33.4167 10.7454L35.3883 11.5669C36.1195 11.8715 36.1631 12.7766 35.3999 12.9888C34.7892 13.1587 34.0264 13.2917 33.1347 13.2917H32.4715C29.3087 13.2917 26.1604 12.862 23.1132 12.0146C22.7069 11.9016 22.2872 11.8443 21.8654 11.8443H18.7983C18.2654 11.8443 17.8334 11.4123 17.8334 10.8794Z" fill="white"/>
<path d="M25.278 5.04169C26.8598 5.04169 28.3136 5.35876 29.5228 6.02412C29.7673 6.15864 29.6068 6.46319 29.3367 6.39321C28.0502 6.05991 26.8708 6.00875 25.278 6.00875C23.8676 6.00875 22.5762 6.11558 21.4455 6.41229C21.1484 6.49026 20.8622 6.05793 21.139 5.92477C22.3417 5.34628 23.7597 5.04169 25.278 5.04169Z" fill="#2F8D38"/>
</g>
<defs>
<clipPath id="clip0_883_3761">
<rect width="64" height="64" fill="white"/>
</clipPath>
</defs>
</svg>
