<svg width="64" height="64" viewBox="0 0 64 64" fill="none" xmlns="http://www.w3.org/2000/svg">
<g clip-path="url(#clip0_299_3142)">
<path d="M18 40.625C25.732 40.625 32 34.357 32 26.625H4C4 34.357 10.268 40.625 18 40.625Z" fill="#2F8D38"/>
<path d="M18 9.5625C9.87462 9.5625 3.22548 14.8578 3.12613 22.9411C3.12475 23.0529 3.06184 23.1566 2.96186 23.2066C2.52559 23.4247 2.25 23.8706 2.25 24.3584V25.5C2.25 26.6046 3.14543 27.5 4.25 27.5H4.64664C5.26762 27.5 5.88227 27.6432 6.43261 27.9309C9.97979 29.785 11.4916 31 18 31C24.5083 31 26.0202 29.785 29.5674 27.9309C30.1177 27.6432 30.7324 27.5 31.3534 27.5H31.75C32.8546 27.5 33.75 26.6046 33.75 25.5V24.3584C33.75 23.8706 33.4744 23.4247 33.0381 23.2066C32.9382 23.1566 32.8752 23.0529 32.8739 22.9411C32.7745 14.8578 26.1254 9.5625 18 9.5625Z" fill="#44C650"/>
<path d="M21.8311 9.27123C22.2887 9.38502 22.5815 9.82251 22.5413 10.2924L21.8568 18.2974C21.8322 18.585 21.6836 18.8472 21.4231 18.9714C20.8793 19.2306 19.7623 19.625 18 19.625C16.2376 19.625 15.1206 19.2306 14.5768 18.9714C14.3162 18.8472 14.1676 18.585 14.143 18.2974L13.4585 10.2923C13.4184 9.82249 13.7111 9.385 14.1687 9.27121C15.3908 8.96736 16.6751 8.80679 17.9999 8.80679C19.3247 8.80679 20.609 8.96736 21.8311 9.27123Z" fill="#2F8D38"/>
<path d="M18 24.875C13.6784 24.875 10.8928 25.2492 9.48248 25.5082C9.21901 25.5566 9.08233 25.2526 9.31454 25.1191C10.665 24.3424 13.4996 23.125 18 23.125C22.5004 23.125 25.335 24.3424 26.6855 25.1191C26.9177 25.2526 26.781 25.5566 26.5175 25.5082C25.1072 25.2492 22.3216 24.875 18 24.875Z" fill="#2F8D38"/>
<path d="M17.1249 9.4V8.6875C17.1249 8.20425 17.5167 7.8125 17.9999 7.8125C18.4832 7.8125 18.8749 8.20425 18.8749 8.6875V9.40005C18.8749 12.4984 19.1518 15.5905 19.7023 18.6395L19.909 19.7841H16.0908L16.2975 18.6395C16.848 15.5905 17.1249 12.4983 17.1249 9.4Z" fill="#44C650"/>
<path d="M46 40.625C53.732 40.625 60 34.357 60 26.625H32C32 34.357 38.268 40.625 46 40.625Z" fill="#2F8D38"/>
<path d="M46 9.5625C37.8746 9.5625 31.2255 14.8578 31.1261 22.9411C31.1248 23.0529 31.0618 23.1566 30.9619 23.2066C30.5256 23.4247 30.25 23.8706 30.25 24.3584V25.5C30.25 26.6046 31.1454 27.5 32.25 27.5H32.6466C33.2676 27.5 33.8823 27.6432 34.4326 27.9309C37.9798 29.785 39.4916 31 46 31C52.5083 31 54.0202 29.785 57.5674 27.9309C58.1177 27.6432 58.7324 27.5 59.3534 27.5H59.75C60.8546 27.5 61.75 26.6046 61.75 25.5V24.3584C61.75 23.8706 61.4744 23.4247 61.0381 23.2066C60.9382 23.1566 60.8752 23.0529 60.8739 22.9411C60.7745 14.8578 54.1254 9.5625 46 9.5625Z" fill="#44C650"/>
<path d="M49.8311 9.27123C50.2887 9.38502 50.5815 9.82251 50.5413 10.2924L49.8568 18.2974C49.8322 18.585 49.6836 18.8472 49.4231 18.9714C48.8793 19.2306 47.7623 19.625 46 19.625C44.2376 19.625 43.1206 19.2306 42.5768 18.9714C42.3162 18.8472 42.1676 18.585 42.143 18.2974L41.4585 10.2923C41.4184 9.82249 41.7111 9.385 42.1687 9.27121C43.3908 8.96736 44.6751 8.80679 45.9999 8.80679C47.3247 8.80679 48.609 8.96736 49.8311 9.27123Z" fill="#2F8D38"/>
<path d="M46 24.875C41.6784 24.875 38.8928 25.2492 37.4825 25.5082C37.219 25.5566 37.0823 25.2526 37.3145 25.1191C38.665 24.3424 41.4996 23.125 46 23.125C50.5004 23.125 53.335 24.3424 54.6855 25.1191C54.9177 25.2526 54.781 25.5566 54.5175 25.5082C53.1072 25.2492 50.3216 24.875 46 24.875Z" fill="#2F8D38"/>
<path d="M45.1249 9.4V8.6875C45.1249 8.20425 45.5167 7.8125 45.9999 7.8125C46.4832 7.8125 46.8749 8.20425 46.8749 8.6875V9.40005C46.8749 12.4984 47.1518 15.5905 47.7023 18.6395L47.909 19.7841H44.0908L44.2975 18.6395C44.848 15.5905 45.1249 12.4983 45.1249 9.4Z" fill="#44C650"/>
<path d="M32 56C40.8366 56 48 48.8366 48 40H16C16 48.8366 23.1634 56 32 56Z" fill="#2F8D38"/>
<path d="M32 20.5C22.7138 20.5 15.1148 26.5518 15.0013 35.7899C14.9997 35.9176 14.9278 36.0361 14.8136 36.0932C14.315 36.3425 14 36.8521 14 37.4096V39C14 40.1046 14.8954 41 16 41H16.8739C17.4949 41 18.1086 41.1429 18.6595 41.4295C22.8005 43.5839 24.4885 45 32 45C39.5114 45 41.1995 43.5839 45.3405 41.4295C45.8914 41.1429 46.5051 41 47.1261 41H48C49.1046 41 50 40.1046 50 39V37.4096C50 36.8521 49.685 36.3425 49.1864 36.0932C49.0722 36.0361 49.0003 35.9176 48.9987 35.7899C48.8852 26.5518 41.2861 20.5 32 20.5Z" fill="#44C650"/>
<path d="M36.4906 20.1954C36.9474 20.3121 37.2403 20.7492 37.2001 21.219L36.4024 30.5474C36.3778 30.835 36.2291 31.0973 35.9702 31.2249C35.3722 31.5198 34.0791 32 32.0001 32C29.9212 32 28.628 31.5198 28.0299 31.2249C27.7711 31.0973 27.6223 30.835 27.5978 30.5474L26.8001 21.219C26.7599 20.7492 27.0527 20.3121 27.5096 20.1953C28.9397 19.8298 30.4454 19.6363 32 19.6363C33.5547 19.6363 35.0604 19.8298 36.4906 20.1954Z" fill="#2F8D38"/>
<path d="M30.9999 20.9795V19.5C30.9999 18.9477 31.4477 18.5 31.9999 18.5C32.5522 18.5 32.9999 18.9477 32.9999 19.5V20.9796C32.9999 24.0779 33.2768 27.17 33.8274 30.219L34.1818 32.1818H29.8181L30.1725 30.2191C30.723 27.17 30.9999 24.0779 30.9999 20.9795Z" fill="#44C650"/>
<path d="M25.3086 35L27.1836 40L29.0586 35" stroke="white" stroke-width="1.5" stroke-linecap="round" stroke-linejoin="round"/>
<path d="M32.1179 35V40" stroke="white" stroke-width="1.5" stroke-linecap="round" stroke-linejoin="round"/>
<path d="M35.8677 35V40" stroke="white" stroke-width="1.5" stroke-linecap="round" stroke-linejoin="round"/>
<path d="M35.8677 35H37.1177C37.808 35 38.3677 35.5596 38.3677 36.25C38.3677 36.9404 37.808 37.5 37.1177 37.5H35.8677" stroke="white" stroke-width="1.5" stroke-linecap="round" stroke-linejoin="round"/>
</g>
<defs>
<clipPath id="clip0_299_3142">
<rect width="64" height="64" fill="white"/>
</clipPath>
</defs>
</svg>
