<svg width="64" height="64" viewBox="0 0 64 64" fill="none" xmlns="http://www.w3.org/2000/svg">
<rect width="64" height="64" fill="white"/>
<path d="M23.5238 31L12 57.7241L19.3333 56.6552L23.5238 62L34 35.2759L23.5238 31Z" fill="#2F8D38"/>
<path d="M40.4762 31L52 57.7241L44.6667 56.6552L40.4762 62L30 35.2759L40.4762 31Z" fill="#2F8D38"/>
<circle cx="31.5" cy="26.5" r="22.5" fill="#44C650"/>
<circle cx="31.5" cy="26.5" r="19.5" fill="white"/>
<path d="M31.5 40.1249C38.1274 40.1249 43.5 34.7523 43.5 28.1249H19.5C19.5 34.7523 24.8726 40.1249 31.5 40.1249Z" fill="#2F8D38"/>
<path d="M31.5 13.5C24.5354 13.5 18.8361 18.0388 18.751 24.9674C18.7498 25.0632 18.6959 25.1521 18.6102 25.1949C18.2362 25.3819 18 25.7641 18 26.1822V26.9298C18 28.0041 18.8709 28.875 19.9452 28.875C20.5492 28.875 21.1473 29.0143 21.682 29.2951C24.6537 30.8557 25.981 31.875 31.5 31.875C37.019 31.875 38.3463 30.8557 41.318 29.2951C41.8527 29.0143 42.4508 28.875 43.0548 28.875C44.1291 28.875 45 28.0041 45 26.9298V26.1822C45 25.7641 44.7638 25.3819 44.3898 25.1949C44.3041 25.1521 44.2502 25.0632 44.249 24.9674C44.1639 18.0388 38.4646 13.5 31.5 13.5Z" fill="#44C650"/>
<path d="M34.6717 13.2229C35.1303 13.3327 35.423 13.7707 35.3828 14.2406L34.8114 20.9223C34.7868 21.2099 34.6379 21.4723 34.3753 21.5921C33.8898 21.8136 32.9496 22.1249 31.5 22.1249C30.0504 22.1249 29.1102 21.8136 28.6248 21.5921C28.3622 21.4723 28.2132 21.2099 28.1886 20.9223L27.6172 14.2406C27.577 13.7707 27.8697 13.3327 28.3283 13.2229C29.3421 12.9802 30.4049 12.8522 31.5 12.8522C32.5951 12.8522 33.6578 12.9802 34.6717 13.2229Z" fill="#2F8D38"/>
<path d="M31.5 26.6248C27.9524 26.6248 25.6125 26.9189 24.359 27.1388C24.0952 27.1851 23.9627 26.8833 24.1973 26.754C25.4056 26.088 27.7937 25.1248 31.5 25.1248C35.2063 25.1248 37.5944 26.088 38.8027 26.754C39.0373 26.8833 38.9048 27.1851 38.641 27.1388C37.3875 26.9189 35.0476 26.6248 31.5 26.6248Z" fill="#2F8D38"/>
<path d="M30.7501 12.9462V12.75C30.7501 12.3358 31.0859 12 31.5001 12C31.9144 12 32.2501 12.3358 32.2501 12.75V12.9462C32.2501 15.8777 32.5121 18.8034 33.033 21.6883L33.1365 22.2614H29.8638L29.9672 21.6883C30.4881 18.8034 30.7501 15.8777 30.7501 12.9462Z" fill="#44C650"/>
</svg>
