<svg width="64" height="64" viewBox="0 0 64 64" fill="none" xmlns="http://www.w3.org/2000/svg">
<g clip-path="url(#clip0_299_3075)">
<path d="M32 42C40.8366 42 48 34.8366 48 26H16C16 34.8366 23.1634 42 32 42Z" fill="#2F8D38"/>
<path d="M32 6.5C22.7138 6.5 15.1148 12.5518 15.0013 21.7899C14.9997 21.9176 14.9278 22.0361 14.8136 22.0932C14.315 22.3425 14 22.8521 14 23.4096V25C14 26.1046 14.8954 27 16 27H16.8739C17.4949 27 18.1086 27.1429 18.6595 27.4295C22.8005 29.5839 24.4885 31 32 31C39.5114 31 41.1995 29.5839 45.3405 27.4295C45.8914 27.1429 46.5051 27 47.1261 27H48C49.1046 27 50 26.1046 50 25V23.4096C50 22.8521 49.685 22.3425 49.1864 22.0932C49.0722 22.0361 49.0003 21.9176 48.9987 21.7899C48.8852 12.5518 41.2861 6.5 32 6.5Z" fill="#44C650"/>
<path d="M36.4906 6.19537C36.9474 6.31215 37.2403 6.74921 37.2001 7.21907L36.4024 16.5474C36.3778 16.835 36.2291 17.0973 35.9702 17.2249C35.3722 17.5198 34.0791 18 32.0001 18C29.9212 18 28.628 17.5198 28.0299 17.2249C27.7711 17.0973 27.6223 16.835 27.5978 16.5474L26.8001 7.21904C26.7599 6.74919 27.0527 6.31212 27.5096 6.19535C28.9397 5.82981 30.4454 5.63635 32 5.63635C33.5547 5.63635 35.0604 5.82981 36.4906 6.19537Z" fill="#2F8D38"/>
<path d="M32 24C26.8908 24 23.6602 24.4576 22.1047 24.7537C21.8415 24.8038 21.7027 24.4981 21.933 24.3612C23.4151 23.4803 26.6948 22 32 22C37.3052 22 40.5849 23.4803 42.067 24.3612C42.2973 24.4981 42.1585 24.8038 41.8953 24.7537C40.3398 24.4576 37.1092 24 32 24Z" fill="#2F8D38"/>
<path d="M30.9999 6.97955V5.5C30.9999 4.94772 31.4477 4.5 31.9999 4.5C32.5522 4.5 32.9999 4.94772 32.9999 5.5V6.97959C32.9999 10.0779 33.2768 13.17 33.8274 16.219L34.1818 18.1818H29.8181L30.1725 16.2191C30.723 13.17 30.9999 10.0779 30.9999 6.97955Z" fill="#44C650"/>
<path d="M43.2132 44H52L59 54H43.2132C39.235 54 35.4196 55.5804 32.6066 58.3934L32 59V49L32.6066 48.3934C35.4196 45.5804 39.235 44 43.2132 44Z" fill="#2F8D38"/>
<path d="M20.7868 44H12.5207C12.1943 44 11.8886 44.1592 11.7014 44.4265L6.10142 52.4265C5.63748 53.0893 6.11163 54 6.92066 54H20.7868C24.765 54 28.5804 55.5804 31.3934 58.3934L32 59V49L31.3934 48.3934C28.5804 45.5804 24.765 44 20.7868 44Z" fill="#2F8D38"/>
<path d="M54.8188 28.2813C54.8188 28.2813 55.3188 28.2813 56.3188 28.7813C57.3188 29.2813 57.4169 29.7813 57.4169 29.7813L47.4619 47.0239C47.4328 47.0743 47.387 47.1129 47.3325 47.1332L45.6228 47.7686C45.311 47.8845 44.9751 47.6693 44.95 47.3376L44.8246 45.6788C44.8208 45.6287 44.8322 45.5785 44.8574 45.535L54.8188 28.2813Z" fill="#44C650"/>
</g>
<defs>
<clipPath id="clip0_299_3075">
<rect width="64" height="64" fill="white"/>
</clipPath>
</defs>
</svg>
