<svg width="64" height="64" viewBox="0 0 64 64" fill="none" xmlns="http://www.w3.org/2000/svg">
<rect x="10" y="7" width="44" height="53" rx="3" fill="#2F8D38"/>
<circle cx="32" cy="6" r="2" fill="#44C650"/>
<rect x="16" y="18" width="32" height="32" rx="2" fill="white"/>
<mask id="mask0_299_3070" style="mask-type:alpha" maskUnits="userSpaceOnUse" x="18" y="22" width="28" height="28">
<rect x="18" y="22" width="28" height="28" rx="2" fill="black"/>
</mask>
<g mask="url(#mask0_299_3070)">
<rect x="20" y="42" width="24" height="16" rx="5" fill="#44C650"/>
</g>
<path d="M32 39.875C37.5228 39.875 42 35.3978 42 29.875H22C22 35.3978 26.4772 39.875 32 39.875Z" fill="#2F8D38"/>
<path d="M32 17.6875C26.1962 17.6875 21.4468 21.4699 21.3758 27.2437C21.3748 27.3235 21.3299 27.3976 21.2585 27.4333C20.9468 27.5891 20.75 27.9076 20.75 28.256V28.879C20.75 29.7742 21.4758 30.5 22.371 30.5C22.8743 30.5 23.3727 30.616 23.8183 30.8501C26.2948 32.1506 27.4008 33 32 33C36.5991 33 37.7052 32.1506 40.1817 30.8501C40.6273 30.616 41.1257 30.5 41.629 30.5C42.5242 30.5 43.25 29.7742 43.25 28.879V28.256C43.25 27.9076 43.0532 27.5891 42.7415 27.4333C42.6701 27.3976 42.6252 27.3235 42.6242 27.2437C42.5532 21.4699 37.8038 17.6875 32 17.6875Z" fill="#44C650"/>
<path d="M34.5119 17.4261C34.9718 17.5303 35.2644 17.9691 35.2243 18.439L34.7661 23.7974C34.7415 24.085 34.5921 24.3476 34.327 24.4616C33.9053 24.6429 33.1426 24.875 32.0001 24.875C30.8576 24.875 30.0949 24.643 29.6732 24.4616C29.4081 24.3476 29.2587 24.085 29.2341 23.7974L28.7759 18.439C28.7357 17.9691 29.0284 17.5302 29.4883 17.426C30.2934 17.2436 31.1346 17.1477 32.0001 17.1477C32.8655 17.1477 33.7067 17.2436 34.5119 17.4261Z" fill="#2F8D38"/>
<path d="M32 28.625C29.211 28.625 27.3177 28.8432 26.2353 29.0217C25.971 29.0653 25.8431 28.7674 26.0807 28.6437C27.1327 28.0959 29.0732 27.375 32 27.375C34.9268 27.375 36.8673 28.0959 37.9193 28.6437C38.1569 28.7674 38.029 29.0653 37.7647 29.0217C36.6823 28.8432 34.789 28.625 32 28.625Z" fill="#2F8D38"/>
<path d="M31.3751 17.226V17.0625C31.3751 16.7173 31.6549 16.4375 32.0001 16.4375C32.3453 16.4375 32.6251 16.7173 32.6251 17.0625V17.226C32.6251 19.6689 32.8435 22.107 33.2775 24.5111L33.3637 24.9886H30.6365L30.7227 24.5111C31.1568 22.107 31.3751 19.6689 31.3751 17.226Z" fill="#44C650"/>
<path d="M20 55H26" stroke="white" stroke-width="2" stroke-linecap="round"/>
<path d="M30 55H44" stroke="white" stroke-width="2" stroke-linecap="round"/>
<path d="M27 7C27 4.23858 29.2386 2 32 2C34.7614 2 37 4.23858 37 7V10C37 11.1046 36.1046 12 35 12H29C27.8954 12 27 11.1046 27 10V7Z" fill="#44C650"/>
<circle cx="31.9999" cy="6.09093" r="1.36364" fill="white"/>
</svg>
