<svg width="64" height="64" viewBox="0 0 64 64" fill="none" xmlns="http://www.w3.org/2000/svg">
<rect x="8" y="4" width="35.3183" height="56" rx="9" fill="white"/>
<path fill-rule="evenodd" clip-rule="evenodd" d="M51.0801 40.3032C55.7691 35.6382 55.7691 28.0748 51.0801 23.4098C50.4685 22.8014 50.4685 21.8148 51.0801 21.2063C51.6918 20.5979 52.6834 20.5979 53.295 21.2063C59.2072 27.0883 59.2072 36.6247 53.295 42.5067C52.6834 43.1151 51.6918 43.1151 51.0801 42.5067C50.4685 41.8982 50.4685 40.9117 51.0801 40.3032Z" fill="#2F8D38"/>
<path fill-rule="evenodd" clip-rule="evenodd" d="M47.1289 35.8307C49.3715 33.5997 49.3715 29.9824 47.129 27.7513C46.5173 27.1428 46.5173 26.1563 47.129 25.5478C47.7406 24.9393 48.7322 24.9393 49.3438 25.5478C52.8096 28.9958 52.8096 34.5862 49.3438 38.0342C48.7322 38.6427 47.7406 38.6427 47.1289 38.0342C46.5173 37.4257 46.5173 36.4392 47.1289 35.8307Z" fill="#2F8D38"/>
<rect x="22.3481" y="7.6601" width="6.25428" height="1.83007" rx="0.915033" fill="white"/>
<rect x="11.679" y="12.0522" width="28.3282" height="39.8954" rx="2" fill="#44C650"/>
<path d="M18.5 25.5H23.75V30.75H18.5V25.5ZM32.5 25.5V30.75H27.25V25.5H32.5ZM27.25 35.125H29V33.375H27.25V31.625H29V33.375H30.75V31.625H32.5V33.375H30.75V35.125H32.5V37.75H30.75V39.5H29V37.75H26.375V39.5H24.625V36H27.25V35.125ZM29 35.125V37.75H30.75V35.125H29ZM18.5 39.5V34.25H23.75V39.5H18.5ZM20.25 27.25V29H22V27.25H20.25ZM29 27.25V29H30.75V27.25H29ZM20.25 36V37.75H22V36H20.25ZM18.5 31.625H20.25V33.375H18.5V31.625ZM22.875 31.625H26.375V35.125H24.625V33.375H22.875V31.625ZM24.625 27.25H26.375V30.75H24.625V27.25ZM16.75 23.75V27.25H15V23.75C15 23.2859 15.1844 22.8408 15.5126 22.5126C15.8408 22.1844 16.2859 22 16.75 22H20.25V23.75H16.75ZM34.25 22C34.7141 22 35.1592 22.1844 35.4874 22.5126C35.8156 22.8408 36 23.2859 36 23.75V27.25H34.25V23.75H30.75V22H34.25ZM16.75 37.75V41.25H20.25V43H16.75C16.2859 43 15.8408 42.8156 15.5126 42.4874C15.1844 42.1592 15 41.7141 15 41.25V37.75H16.75ZM34.25 41.25V37.75H36V41.25C36 41.7141 35.8156 42.1592 35.4874 42.4874C35.1592 42.8156 34.7141 43 34.25 43H30.75V41.25H34.25Z" fill="#2F8D38"/>
</svg>
