<svg width="153" height="153" viewBox="0 0 153 153" fill="none" xmlns="http://www.w3.org/2000/svg">
<rect width="96" height="153" rx="9" fill="#44C650"/>
<path fill-rule="evenodd" clip-rule="evenodd" d="M117.098 99.1854C129.843 86.4401 129.843 65.7757 117.098 53.0304C115.435 51.3679 115.435 48.6726 117.098 47.0102C118.76 45.3477 121.456 45.3477 123.118 47.0102C139.188 63.0804 139.188 89.1354 123.118 105.206C121.456 106.868 118.76 106.868 117.098 105.206C115.435 103.543 115.435 100.848 117.098 99.1854Z" fill="#2F8D38"/>
<path fill-rule="evenodd" clip-rule="evenodd" d="M106.358 86.966C112.453 80.8704 112.453 70.9875 106.358 64.8919C104.695 63.2294 104.695 60.5341 106.358 58.8717C108.02 57.2092 110.716 57.2092 112.378 58.8717C121.798 68.2921 121.798 83.5658 112.378 92.9863C110.716 94.6487 108.02 94.6487 106.358 92.9863C104.695 91.3238 104.695 88.6285 106.358 86.966Z" fill="#2F8D38"/>
<rect x="39" y="10" width="17" height="5" rx="2.5" fill="white"/>
<rect x="10" y="22" width="77" height="109" rx="2" fill="white"/>
<path d="M18.8339 88H23.3139V78.528C23.3139 75.776 22.9299 72.8 22.7059 70.272H22.8659L25.2659 75.328L32.1139 88H36.9459V64.32H32.4339V73.76C32.4339 76.448 32.8179 79.616 33.0739 82.08H32.9139L30.5139 76.96L23.6339 64.32H18.8339V88ZM42.8026 88H47.5386V78.4H55.9546V74.464H47.5386V68.256H57.3946V64.32H42.8026V88ZM70.6221 88.448C73.6941 88.448 76.2221 87.264 78.1741 84.992L75.6781 82.016C74.4301 83.392 72.8301 84.352 70.8141 84.352C67.0381 84.352 64.6381 81.28 64.6381 76.096C64.6381 71.04 67.3261 67.968 70.8781 67.968C72.7021 67.968 74.0461 68.768 75.2621 69.952L77.7581 66.912C76.2221 65.312 73.8221 63.904 70.8141 63.904C64.7981 63.904 59.8061 68.448 59.8061 76.256C59.8061 84.16 64.6381 88.448 70.6221 88.448Z" fill="#2F8D38"/>
</svg>
