<svg width="64" height="64" viewBox="0 0 64 64" fill="none" xmlns="http://www.w3.org/2000/svg">
<path d="M32.0002 53.6667C36.7866 53.6667 40.6668 49.7865 40.6668 45H23.3335C23.3335 49.7865 27.2137 53.6667 32.0002 53.6667Z" fill="#2F8D38"/>
<path d="M49.3335 27.6667V43.9167H14.6668V27.6667C14.6668 18.0937 22.4272 10.3333 32.0002 10.3333C41.5731 10.3333 49.3335 18.0937 49.3335 27.6667Z" fill="#44C650"/>
<path d="M32.0002 10.3333C22.4272 10.3333 14.6668 18.0937 14.6668 27.6667V43.9167M32.0002 10.3333C41.5731 10.3333 49.3335 18.0937 49.3335 27.6667V43.9167M32.0002 10.3333V8.5M49.3335 43.9167H14.6668M49.3335 43.9167H53.6668M14.6668 43.9167H10.3335" stroke="#44C650" stroke-width="2" stroke-linecap="round" stroke-linejoin="round"/>
<path d="M32 14C24.8203 14 19 19.5459 19 26.3871V30" stroke="#2F8D38" stroke-width="2" stroke-linecap="round"/>
</svg>
