<svg width="64" height="64" viewBox="0 0 64 64" fill="none" xmlns="http://www.w3.org/2000/svg">
<g clip-path="url(#clip0_884_3791)">
<path d="M8 10C8 8.34315 9.34315 7 11 7H35.5V14.5C35.5 16.1569 36.8431 17.5 38.5 17.5H46V52C46 53.6569 44.6569 55 43 55H11C9.34315 55 8 53.6569 8 52V10Z" fill="white"/>
<path d="M46 17.5H38.5C36.8431 17.5 35.5 16.1569 35.5 14.5V7L46 17.5Z" fill="white"/>
<path d="M46 17.5H37.5C36.3954 17.5 35.5 16.6046 35.5 15.5V7L46 17.5Z" fill="#2F8D38"/>
<path d="M23 14H30" stroke="#44C650" stroke-linecap="round" stroke-linejoin="round"/>
<path d="M23 17H27" stroke="#44C650" stroke-linecap="round" stroke-linejoin="round"/>
<path d="M23 26H30" stroke="#44C650" stroke-linecap="round" stroke-linejoin="round"/>
<path d="M23 29H27" stroke="#44C650" stroke-linecap="round" stroke-linejoin="round"/>
<path d="M13 25L18 30" stroke="#44C650" stroke-linecap="round" stroke-linejoin="round"/>
<path d="M18 25L13 30" stroke="#44C650" stroke-linecap="round" stroke-linejoin="round"/>
<path d="M13 15.1429L15.4 18L19 13" stroke="#44C650" stroke-linecap="round" stroke-linejoin="round"/>
<g clip-path="url(#clip1_884_3791)">
<path d="M39.4688 53.362C46.3954 53.362 52.0105 47.7469 52.0105 40.8203H26.9271C26.9271 47.7469 32.5422 53.362 39.4688 53.362Z" fill="#2F8D38"/>
<path d="M39.4687 25.5352C32.1898 25.5352 26.2332 30.2789 26.1442 37.5202C26.143 37.6203 26.0867 37.7132 25.9971 37.758C25.6063 37.9534 25.3594 38.3528 25.3594 38.7898V40.2604C25.3594 41.0026 25.961 41.6042 26.7031 41.6042H27.7178C28.1351 41.6042 28.5485 41.7009 28.919 41.8927C32.233 43.6084 33.5251 44.7396 39.4687 44.7396C45.4124 44.7396 46.7045 43.6084 50.0185 41.8927C50.389 41.7009 50.8024 41.6042 51.2197 41.6042H52.2344C52.9765 41.6042 53.5781 41.0026 53.5781 40.2604V38.7898C53.5781 38.3528 53.3312 37.9534 52.9404 37.758C52.8509 37.7132 52.7945 37.6203 52.7933 37.5202C52.7043 30.2789 46.7477 25.5352 39.4687 25.5352Z" fill="#44C650"/>
<path d="M43.0762 25.3191C43.3826 25.3996 43.5794 25.6929 43.5524 26.0086L42.9151 33.4616C42.8986 33.6548 42.7986 33.831 42.6259 33.9192C42.1791 34.1475 41.1529 34.5495 39.4687 34.5495C37.7845 34.5495 36.7583 34.1475 36.3114 33.9192C36.1387 33.831 36.0387 33.6548 36.0222 33.4616L35.3849 26.0086C35.3579 25.6929 35.5547 25.3996 35.8611 25.3191C37.0082 25.0179 38.2182 24.8582 39.4686 24.8582C40.719 24.8582 41.9291 25.0179 43.0762 25.3191Z" fill="#2F8D38"/>
<path d="M39.4687 39.2526C35.3218 39.2526 32.7537 39.6373 31.5874 39.8677C31.4108 39.9026 31.3162 39.6954 31.4696 39.6011C32.5751 38.9214 35.176 37.6849 39.4687 37.6849C43.7615 37.6849 46.3624 38.9214 47.4679 39.6011C47.6212 39.6954 47.5266 39.9026 47.35 39.8677C46.1837 39.6373 43.6157 39.2526 39.4687 39.2526Z" fill="#2F8D38"/>
<path d="M38.6849 26.4325V24.6393C38.6849 24.2683 38.9857 23.9675 39.3568 23.9675H39.5808C39.9518 23.9675 40.2526 24.2683 40.2526 24.6393V26.4326C40.2526 28.5143 40.4387 30.5918 40.8086 32.6403L41.179 34.692H37.7585L38.129 32.6403C38.4989 30.5918 38.6849 28.5142 38.6849 26.4325Z" fill="#44C650"/>
<circle cx="52.2344" cy="53.25" r="8.0625" fill="white"/>
<circle cx="52.2344" cy="53.25" r="6.71875" fill="#44C650"/>
<path d="M52.2344 47.875V54.0898L49.8828 56.9453" stroke="#2F8D38" stroke-width="2" stroke-linecap="round" stroke-linejoin="round"/>
</g>
</g>
<defs>
<clipPath id="clip0_884_3791">
<rect width="64" height="64" fill="white"/>
</clipPath>
<clipPath id="clip1_884_3791">
<rect width="43" height="43" fill="white" transform="translate(22 21)"/>
</clipPath>
</defs>
</svg>
