<svg width="48" height="58" viewBox="0 0 48 58" fill="none" xmlns="http://www.w3.org/2000/svg">
<path d="M0 3C0 1.34315 1.34315 0 3 0H37.5V7.5C37.5 9.15685 38.8431 10.5 40.5 10.5H48V55C48 56.6569 46.6569 58 45 58H3C1.34315 58 0 56.6569 0 55V3Z" fill="white"/>
<path d="M48 10.5H39.5C38.3954 10.5 37.5 9.60457 37.5 8.5V0L48 10.5Z" fill="#2F8D38"/>
<path d="M23.1005 7.125C23.3892 6.625 24.1108 6.625 24.3995 7.125L41.0705 36C41.3592 36.5 40.9983 37.125 40.421 37.125H7.07901C6.50166 37.125 6.14082 36.5 6.42949 36L23.1005 7.125Z" fill="#44C650"/>
<circle cx="23.75" cy="31.3612" r="2.30556" fill="white"/>
<path d="M21.0168 15.7051C20.9369 14.8267 21.6285 14.0693 22.5106 14.0693H24.9894C25.8714 14.0693 26.5631 14.8267 26.4832 15.7051L25.6032 25.3857C25.5329 26.1583 24.8851 26.7499 24.1093 26.7499H23.3906C22.6148 26.7499 21.967 26.1583 21.8968 25.3857L21.0168 15.7051Z" fill="white"/>
<path d="M12.4342 47.14L13.426 41.7235C13.4575 41.5517 13.6786 41.4999 13.7831 41.6399L17.0679 46.0428" stroke="#44C650" stroke-linecap="round"/>
<path d="M15.0973 44.0973L13.0757 44.6027" stroke="#44C650" stroke-linecap="round"/>
<path d="M29.2487 42.0757L18.1298 43.5919M31.7757 42.0757L34.606 43.9625C34.7107 44.0323 34.8532 43.9892 34.9016 43.873L37.3352 38.0324" stroke="#44C650" stroke-linecap="round"/>
<rect x="6.55967" y="39.8613" width="33.7369" height="11.1297" rx="1.5" transform="rotate(-7.32542 6.55967 39.8613)" stroke="#44C650"/>
</svg>
