<svg width="64" height="64" viewBox="0 0 64 64" fill="none" xmlns="http://www.w3.org/2000/svg">
<path d="M8 6C8 4.34315 9.34315 3 11 3H45.5V10.5C45.5 12.1569 46.8431 13.5 48.5 13.5H56V58C56 59.6569 54.6569 61 53 61H11C9.34315 61 8 59.6569 8 58V6Z" fill="#44C650"/>
<path d="M56 13.5H47.5C46.3954 13.5 45.5 12.6046 45.5 11.5V3L56 13.5Z" fill="#2F8D38"/>
<path d="M31.1005 10.125C31.3892 9.625 32.1108 9.625 32.3995 10.125L49.0705 39C49.3592 39.5 48.9983 40.125 48.421 40.125H15.079C14.5017 40.125 14.1408 39.5 14.4295 39L31.1005 10.125Z" fill="#2F8D38"/>
<circle cx="31.7499" cy="34.3612" r="2.30556" fill="#44C650"/>
<path d="M29.0169 18.7051C28.937 17.8267 29.6287 17.0693 30.5107 17.0693H32.9895C33.8715 17.0693 34.5632 17.8267 34.4833 18.7051L33.6033 28.3857C33.5331 29.1583 32.8853 29.7499 32.1095 29.7499H31.3908C30.615 29.7499 29.9672 29.1583 29.8969 28.3857L29.0169 18.7051Z" fill="#44C650"/>
<path d="M20.4344 50.14L21.4262 44.7235C21.4576 44.5517 21.6788 44.4999 21.7832 44.6399L25.068 49.0428" stroke="white" stroke-linecap="round"/>
<path d="M23.0973 47.0973L21.0757 47.6027" stroke="white" stroke-linecap="round"/>
<path d="M37.2486 45.0757L26.1296 46.5919M39.7756 45.0757L42.6059 46.9625C42.7106 47.0323 42.853 46.9892 42.9014 46.873L45.335 41.0324" stroke="white" stroke-linecap="round"/>
<rect x="14.5597" y="42.8613" width="33.7369" height="11.1297" rx="1.5" transform="rotate(-7.32542 14.5597 42.8613)" stroke="white"/>
</svg>
