<svg width="64" height="64" viewBox="0 0 64 64" fill="none" xmlns="http://www.w3.org/2000/svg">
<rect x="8" y="8" width="38" height="40" rx="2" fill="#44C650"/>
<path d="M8 44H46V46C46 47.1046 45.1046 48 44 48H10C8.89543 48 8 47.1046 8 46V44Z" fill="#2F8D38"/>
<path d="M12 48V54.5" stroke="#2F8D38" stroke-linecap="round" stroke-linejoin="round"/>
<path d="M14 15H40M16 20H38" stroke="white" stroke-linecap="round" stroke-linejoin="round"/>
<path d="M25.5 48.5L20 36" stroke="white" stroke-linecap="round" stroke-linejoin="round"/>
<path fill-rule="evenodd" clip-rule="evenodd" d="M35 55.4684L33.4378 56.7902C32.2467 57.7981 30.482 57.7247 29.3787 56.6214L23.8787 51.1214C22.7071 49.9498 22.7071 48.0503 23.8787 46.8787C25.0503 45.7072 26.9497 45.7072 28.1213 46.8787L31.6694 50.4268L36.0435 46.7257C36.5039 46.3293 37.086 46.0703 37.726 46.0123C37.8169 46.0041 37.9081 46 37.9992 46C37.9995 46 37.9997 46 38 46H54C55.6569 46 57 47.3431 57 49V59C57 59.5523 56.5523 60 56 60H36C35.4477 60 35 59.5523 35 59V55.4684Z" fill="#2F8D38"/>
<path d="M45.1318 51.4806L42 46H50L46.8682 51.4806C46.4843 52.1524 45.5157 52.1524 45.1318 51.4806Z" fill="#44C650"/>
<path d="M46 43.875C51.5228 43.875 56 39.3978 56 33.875H36C36 39.3978 40.4772 43.875 46 43.875Z" fill="white"/>
<path d="M46 21.6875C40.1962 21.6875 35.4468 25.4699 35.3758 31.2437C35.3748 31.3235 35.3299 31.3976 35.2585 31.4333C34.9468 31.5891 34.75 31.9076 34.75 32.256V32.879C34.75 33.7742 35.4758 34.5 36.371 34.5C36.8743 34.5 37.3727 34.616 37.8183 34.8501C40.2948 36.1506 41.4008 37 46 37C50.5991 37 51.7052 36.1506 54.1817 34.8501C54.6273 34.616 55.1257 34.5 55.629 34.5C56.5242 34.5 57.25 33.7742 57.25 32.879V32.256C57.25 31.9076 57.0532 31.5891 56.7415 31.4333C56.6701 31.3976 56.6252 31.3235 56.6242 31.2437C56.5532 25.4699 51.8038 21.6875 46 21.6875Z" fill="#2F8D38"/>
<path d="M48.5119 21.4261C48.9718 21.5303 49.2644 21.9691 49.2243 22.439L48.7661 27.7974C48.7415 28.085 48.5921 28.3476 48.327 28.4616C47.9053 28.6429 47.1426 28.875 46.0001 28.875C44.8576 28.875 44.0949 28.643 43.6732 28.4616C43.4081 28.3476 43.2587 28.085 43.2341 27.7974L42.7759 22.439C42.7357 21.9691 43.0284 21.5302 43.4883 21.426C44.2934 21.2436 45.1346 21.1477 46.0001 21.1477C46.8655 21.1477 47.7067 21.2436 48.5119 21.4261Z" fill="white"/>
<path d="M46 32.625C43.211 32.625 41.3177 32.8432 40.2353 33.0217C39.971 33.0653 39.8431 32.7674 40.0807 32.6437C41.1327 32.0959 43.0732 31.375 46 31.375C48.9268 31.375 50.8673 32.0959 51.9193 32.6437C52.1569 32.7674 52.029 33.0653 51.7647 33.0217C50.6823 32.8432 48.789 32.625 46 32.625Z" fill="white"/>
<path d="M45.3751 21.226V21.0625C45.3751 20.7173 45.6549 20.4375 46.0001 20.4375C46.3453 20.4375 46.6251 20.7173 46.6251 21.0625V21.226C46.6251 23.6689 46.8435 26.107 47.2775 28.5111L47.3637 28.9886H44.6365L44.7227 28.5111C45.1568 26.107 45.3751 23.6689 45.3751 21.226Z" fill="#2F8D38"/>
<rect x="35" y="56" width="22" height="2" fill="#44C650"/>
<rect x="38" y="46" width="2" height="12" fill="#44C650"/>
<rect x="52" y="46" width="2" height="12" fill="#44C650"/>
</svg>
