<svg id="레이어_1" data-name="레이어 1" xmlns="http://www.w3.org/2000/svg" viewBox="0 0 80 80"><defs><style>.cls-1{fill:none;stroke:#86a1ad;stroke-miterlimit:10;stroke-width:3px;}</style></defs><circle class="cls-1" cx="40" cy="40.06" r="13.69"/><path class="cls-1" d="M67.4,36l5.47-4.82a3.13,3.13,0,0,0,.64-3.9l-5.68-9.83A3.11,3.11,0,0,0,64.14,16l-6.89,2.32a5.07,5.07,0,0,1-3.93-.28,8.69,8.69,0,0,1-1.3-.83,5,5,0,0,1-1.86-3L48.73,7.15a3.12,3.12,0,0,0-3-2.5H34.32a3.12,3.12,0,0,0-3.05,2.5l-1.43,7.08a5,5,0,0,1-1.86,3,8.69,8.69,0,0,1-1.3.83,5.07,5.07,0,0,1-3.93.28L15.86,16a3.11,3.11,0,0,0-3.69,1.4L6.49,27.27a3.13,3.13,0,0,0,.64,3.9L12.6,36a5.12,5.12,0,0,1,1.69,3.19,8,8,0,0,1,.07,1.41,5,5,0,0,1-1.72,3.51L7.13,49a3.13,3.13,0,0,0-.64,3.9l5.68,9.83a3.11,3.11,0,0,0,3.69,1.4l6.89-2.32a5.07,5.07,0,0,1,3.93.28,10.67,10.67,0,0,1,1.3.83,5,5,0,0,1,1.86,3L31.27,73a3.11,3.11,0,0,0,3.05,2.5H45.68a3.11,3.11,0,0,0,3-2.5l1.43-7.08a5,5,0,0,1,1.86-3,10.67,10.67,0,0,1,1.3-.83,5.07,5.07,0,0,1,3.93-.28l6.89,2.32a3.11,3.11,0,0,0,3.69-1.4l5.68-9.83a3.13,3.13,0,0,0-.64-3.9l-5.46-4.81a5,5,0,0,1-1.68-3.07,8.26,8.26,0,0,1,0-1.55A5.07,5.07,0,0,1,67.4,36Z"/></svg>