<svg width="64" height="64" viewBox="0 0 64 64" fill="none" xmlns="http://www.w3.org/2000/svg">
<g clip-path="url(#clip0_312_3628)">
<rect x="15" y="9" width="5" height="43" rx="0.5" fill="#44C650"/>
<rect x="44" y="9" width="5" height="43" rx="0.5" fill="#44C650"/>
<rect x="8" y="13" width="48.4848" height="8.48485" rx="0.5" fill="#44C650"/>
<rect x="7" y="25.9697" width="48.4848" height="8.48485" rx="0.5" fill="#44C650"/>
<path d="M17.9529 13.1334C17.9811 13.0535 18.0567 13 18.1415 13H22.2173C22.3553 13 22.4518 13.1364 22.4059 13.2666L19.5471 21.3666C19.5189 21.4465 19.4433 21.5 19.3585 21.5H15.2827C15.1447 21.5 15.0482 21.3636 15.0941 21.2334L17.9529 13.1334Z" fill="#2F8D38"/>
<path d="M15.9529 26.1334C15.9811 26.0535 16.0567 26 16.1415 26H20.2173C20.3553 26 20.4518 26.1364 20.4059 26.2666L17.5471 34.3666C17.5189 34.4465 17.4433 34.5 17.3585 34.5H13.2827C13.1447 34.5 13.0482 34.3636 13.0941 34.2334L15.9529 26.1334Z" fill="#2F8D38"/>
<path d="M31.9529 13.1334C31.9811 13.0535 32.0567 13 32.1415 13H36.2173C36.3553 13 36.4518 13.1364 36.4059 13.2666L33.5471 21.3666C33.5189 21.4465 33.4433 21.5 33.3585 21.5H29.2827C29.1447 21.5 29.0482 21.3636 29.0941 21.2334L31.9529 13.1334Z" fill="#2F8D38"/>
<path d="M29.9529 26.1334C29.9811 26.0535 30.0567 26 30.1415 26H34.2173C34.3553 26 34.4518 26.1364 34.4059 26.2666L31.5471 34.3666C31.5189 34.4465 31.4433 34.5 31.3585 34.5H27.2827C27.1447 34.5 27.0482 34.3636 27.0941 34.2334L29.9529 26.1334Z" fill="#2F8D38"/>
<path d="M45.9529 13.1334C45.9811 13.0535 46.0567 13 46.1415 13H50.2173C50.3553 13 50.4518 13.1364 50.4059 13.2666L47.5471 21.3666C47.5189 21.4465 47.4433 21.5 47.3585 21.5H43.2827C43.1447 21.5 43.0482 21.3636 43.0941 21.2334L45.9529 13.1334Z" fill="#2F8D38"/>
<path d="M43.9529 26.1334C43.9811 26.0535 44.0567 26 44.1415 26H48.2173C48.3553 26 48.4518 26.1364 48.4059 26.2666L45.5471 34.3666C45.5189 34.4465 45.4433 34.5 45.3585 34.5H41.2827C41.1447 34.5 41.0482 34.3636 41.0941 34.2334L43.9529 26.1334Z" fill="#2F8D38"/>
<path fill-rule="evenodd" clip-rule="evenodd" d="M41.2681 38.4749L39.5781 40.1649L42.274 42.8608C42.3513 42.9381 42.4562 42.9816 42.5656 42.9816L42.9581 42.9816L49.1449 49.1683C49.3059 49.3294 49.567 49.3294 49.7281 49.1683L50.2715 48.6249C50.4326 48.4638 50.4326 48.2027 50.2715 48.0417L44.0848 41.8549V41.4624C44.0848 41.353 44.0414 41.2481 43.964 41.1708L41.2681 38.4749Z" fill="#2F8D38"/>
<path d="M47.4306 48.5808C47.3532 48.5035 47.3098 48.3986 47.3098 48.2892L47.3098 46.2067L49.3923 46.2067C49.5017 46.2067 49.6066 46.2502 49.6839 46.3275L56.4682 53.1118C56.6292 53.2728 56.6292 53.5339 56.4682 53.695L54.7981 55.3651C54.637 55.5262 54.3759 55.5262 54.2148 55.3651L47.4306 48.5808Z" fill="#2F8D38"/>
<path fill-rule="evenodd" clip-rule="evenodd" d="M48.409 43.0056C48.3553 42.8685 48.3088 42.7269 48.2697 42.5814C47.7004 40.4564 48.9614 38.2722 51.0864 37.7028C52.4792 37.3296 53.8975 37.7427 54.8698 38.6701L50.4274 39.8604L49.8088 42.169L51.4988 43.859L55.9412 42.6687C55.5628 43.9579 54.5412 45.0249 53.1484 45.3981C52.2929 45.6273 51.4278 45.5599 50.6624 45.2588L40.9876 54.9336C40.3654 55.5559 39.3565 55.5559 38.7343 54.9336C38.112 54.3114 38.112 53.3025 38.7343 52.6803L48.409 43.0056Z" fill="#2F8D38"/>
</g>
<defs>
<clipPath id="clip0_312_3628">
<rect width="64" height="64" fill="white"/>
</clipPath>
</defs>
</svg>
