<svg width="64" height="64" viewBox="0 0 64 64" fill="none" xmlns="http://www.w3.org/2000/svg">
<g clip-path="url(#clip0_884_3855)">
<path d="M36 25.6875C24.0054 25.6875 14.19 33.5044 14.0433 45.4369C14.0413 45.6019 13.9484 45.7549 13.8008 45.8287C13.1568 46.1507 12.75 46.809 12.75 47.529V50.1667C12.75 51.2712 13.6454 52.1667 14.75 52.1667H16.7375C17.3585 52.1667 17.9743 52.311 18.5261 52.5958C24.0537 55.449 26.1524 57.3333 36 57.3333C45.8476 57.3333 47.9463 55.449 53.4739 52.5958C54.0257 52.311 54.6415 52.1667 55.2625 52.1667H57.25C58.3546 52.1667 59.25 51.2712 59.25 50.1667V47.529C59.25 46.809 58.8432 46.1507 58.1992 45.8287C58.0516 45.7549 57.9587 45.6019 57.9567 45.4369C57.81 33.5044 47.9946 25.6875 36 25.6875Z" fill="white"/>
<path d="M42.0283 25.3536C42.484 25.4751 42.7769 25.9115 42.7367 26.3813L41.675 38.7974C41.6505 39.085 41.5026 39.3468 41.2467 39.4803C40.5352 39.8517 38.8321 40.5417 36 40.5417C33.1679 40.5417 31.4648 39.8517 30.7532 39.4803C30.4974 39.3468 30.3495 39.085 30.3249 38.7974L29.2632 26.3813C29.223 25.9114 29.516 25.4751 29.9716 25.3536C31.8866 24.8429 33.909 24.5719 35.9999 24.5719C38.0909 24.5719 40.1133 24.8429 42.0283 25.3536Z" fill="#2F8D38"/>
<path d="M36 48.2917C29.0238 48.2917 24.7592 48.9522 22.8955 49.3286C22.6329 49.3816 22.4877 49.073 22.7146 48.9306C24.4738 47.8263 28.7879 45.7083 36 45.7083C43.212 45.7083 47.5261 47.8263 49.2853 48.9306C49.5122 49.073 49.367 49.3816 49.1044 49.3286C47.2407 48.9522 42.9761 48.2917 36 48.2917Z" fill="#2F8D38"/>
<path d="M34.7083 27.6652V24.1042C34.7083 23.5519 35.156 23.1042 35.7083 23.1042H36.2916C36.8439 23.1042 37.2916 23.5519 37.2916 24.1042V27.6652C37.2916 30.7635 37.5685 33.8556 38.119 36.9046L38.8181 40.7765H33.1818L33.8808 36.9047C34.4314 33.8556 34.7083 30.7635 34.7083 27.6652Z" fill="white"/>
<path fill-rule="evenodd" clip-rule="evenodd" d="M28.0625 15.3125C22.5051 9.75511 13.4949 9.75511 7.9375 15.3125C7.21263 16.0374 6.03737 16.0374 5.3125 15.3125C4.58763 14.5876 4.58763 13.4124 5.3125 12.6875C12.3196 5.68036 23.6804 5.68036 30.6875 12.6875C31.4124 13.4124 31.4124 14.5876 30.6875 15.3125C29.9626 16.0374 28.7874 16.0374 28.0625 15.3125Z" fill="white"/>
<path fill-rule="evenodd" clip-rule="evenodd" d="M22.8125 20.5624C20.1546 17.9045 15.8454 17.9045 13.1875 20.5624C12.4626 21.2873 11.2874 21.2873 10.5625 20.5624C9.83763 19.8375 9.83763 18.6623 10.5625 17.9374C14.6701 13.8298 21.3299 13.8298 25.4375 17.9374C26.1624 18.6623 26.1624 19.8375 25.4375 20.5624C24.7126 21.2873 23.5374 21.2873 22.8125 20.5624Z" fill="white"/>
<circle cx="18" cy="25.375" r="2.47487" fill="white"/>
<path d="M13.5214 46H17C18.1045 46 19 45.1046 19 44V32.6215C15.9571 35.9362 14.1064 40.3061 14.0433 45.4369C14.0413 45.6019 13.9484 45.7549 13.8008 45.8287C13.7019 45.8782 13.6085 45.9356 13.5214 46Z" fill="#2F8D38"/>
</g>
<defs>
<clipPath id="clip0_884_3855">
<rect width="64" height="64" fill="white"/>
</clipPath>
</defs>
</svg>
