<svg width="64" height="64" viewBox="0 0 64 64" fill="none" xmlns="http://www.w3.org/2000/svg">
<g clip-path="url(#clip0_299_3103)">
<path d="M29 12C29 9.79086 27.2091 8 25 8H9C6.79086 8 5 9.79086 5 12V22C5 24.2091 6.79086 26 9 26H12V32L18 26H25C27.2091 26 29 24.2091 29 22V12Z" fill="#2F8D38"/>
<circle cx="17" cy="21.5" r="1.5" fill="#44C650"/>
<path d="M14 14.0407C14 12.3614 15.3431 11 17 11C18.6569 11 20 12.3614 20 14.0407C20 15.0411 19.5234 15.9286 18.7878 16.4828C17.9415 17.1203 17 18 17 18.5" stroke="#44C650" stroke-width="2" stroke-linecap="round" stroke-linejoin="round"/>
<path d="M33 12C33 9.79086 34.7909 8 37 8H53C55.2091 8 57 9.79086 57 12V22C57 24.2091 55.2091 26 53 26H50V32L44 26H37C34.7909 26 33 24.2091 33 22V12Z" fill="#2F8D38"/>
<circle cx="45" cy="21.5" r="1.5" fill="#44C650"/>
<path d="M43.5998 11.4967C43.5458 10.6867 44.1882 10 45 10C45.8118 10 46.4542 10.6867 46.4002 11.4967L45.9599 18.102C45.9262 18.6073 45.5065 19 45 19C44.4935 19 44.0738 18.6073 44.0401 18.102L43.5998 11.4967Z" fill="#44C650"/>
<circle cx="15.0002" cy="48" r="10.6667" fill="#2F8D38"/>
<path d="M3.66683 45.3333C3.66683 38.7059 9.12461 33.3333 15.8571 33.3333C18.2013 33.3333 20.3198 34.1793 22.09 35.1707C23.114 35.7442 23.7697 36.7886 23.9649 37.9459L24.3335 40.1313L3.66683 45.3333Z" fill="#44C650"/>
<path d="M3.66675 45.8246C3.66675 39.6235 8.80973 36 15.1539 36C21.0118 36 25.6667 38.963 26.3334 45.6296L29.9716 47.1456C30.7028 47.4502 30.7584 48.3709 30.0132 48.6396C29.0316 48.9937 27.642 49.3333 25.9232 49.3333H24.9586C20.3581 49.3333 15.7788 48.7084 11.3465 47.4757C10.7555 47.3114 10.145 47.2281 9.53157 47.2281H5.07026C4.29512 47.2281 3.66675 46.5997 3.66675 45.8246Z" fill="#44C650"/>
<path d="M14.4952 37.3333C17.0396 37.3333 19.3565 37.8974 21.2162 39.0869C21.4513 39.2373 21.2778 39.5513 21.0107 39.4708C18.8905 38.8313 17.062 38.74 14.4952 38.74C11.8712 38.74 9.53038 38.9942 7.59958 39.7554C7.3138 39.8681 7.00587 39.4646 7.26349 39.2973C9.23556 38.0165 11.7528 37.3333 14.4952 37.3333Z" fill="#2F8D38"/>
<circle r="10.6667" transform="matrix(-1 0 0 1 48.9998 48)" fill="#2F8D38"/>
<path d="M60.3332 45.3333C60.3332 38.7059 54.8754 33.3333 48.1429 33.3333C45.7987 33.3333 43.6802 34.1793 41.91 35.1707C40.886 35.7442 40.2303 36.7886 40.0351 37.9459L39.6665 40.1313L60.3332 45.3333Z" fill="#44C650"/>
<path d="M60.3333 45.8246C60.3333 39.6235 55.1903 36 48.8461 36C42.9882 36 38.3333 38.963 37.6666 45.6296L34.0284 47.1456C33.2972 47.4502 33.2416 48.3709 33.9868 48.6396C34.9684 48.9937 36.358 49.3333 38.0768 49.3333H39.0414C43.6419 49.3333 48.2212 48.7084 52.6535 47.4757C53.2445 47.3114 53.855 47.2281 54.4684 47.2281H58.9297C59.7049 47.2281 60.3333 46.5997 60.3333 45.8246Z" fill="#44C650"/>
<path d="M49.5048 37.3333C46.9604 37.3333 44.6435 37.8974 42.7838 39.0869C42.5487 39.2373 42.7222 39.5513 42.9893 39.4708C45.1095 38.8313 46.938 38.74 49.5048 38.74C52.1288 38.74 54.4696 38.9942 56.4004 39.7554C56.6862 39.8681 56.9941 39.4646 56.7365 39.2973C54.7644 38.0165 52.2472 37.3333 49.5048 37.3333Z" fill="#2F8D38"/>
</g>
<defs>
<clipPath id="clip0_299_3103">
<rect width="64" height="64" fill="white"/>
</clipPath>
</defs>
</svg>
