<svg width="64" height="64" viewBox="0 0 64 64" fill="none" xmlns="http://www.w3.org/2000/svg">
<g clip-path="url(#clip0_299_3150)">
<rect x="7" y="6" width="42" height="52" rx="2" fill="#44C650"/>
<path d="M16 6H40V8C40 10.2091 38.2091 12 36 12H20C17.7909 12 16 10.2091 16 8V6Z" fill="#2F8D38"/>
<rect x="10" y="19" width="8" height="8" rx="2" fill="white"/>
<rect x="10" y="31" width="8" height="8" rx="2" fill="white"/>
<path d="M22 21H31" stroke="#2F8D38" stroke-linecap="round" stroke-linejoin="round"/>
<path d="M22 33H25" stroke="#2F8D38" stroke-linecap="round" stroke-linejoin="round"/>
<path d="M22 24H27" stroke="#2F8D38" stroke-linecap="round" stroke-linejoin="round"/>
<path d="M22 36H26" stroke="#2F8D38" stroke-linecap="round" stroke-linejoin="round"/>
<path d="M12 22.6L14.2857 25L20 19" stroke="#2F8D38" stroke-linecap="round" stroke-linejoin="round"/>
<path d="M12 34.6L14.2857 37L20 31" stroke="#2F8D38" stroke-linecap="round" stroke-linejoin="round"/>
<path fill-rule="evenodd" clip-rule="evenodd" d="M49.3835 55C49.4744 54.7413 49.5905 54.4874 49.7326 54.2413C50.97 52.098 53.7106 51.3637 55.8539 52.6011C57.2587 53.4122 58.0582 54.869 58.094 56.3801L53.6133 53.7932L51.2849 55.1376L51.2849 57.8262L55.7655 60.4132C54.439 61.1377 52.7776 61.1738 51.3728 60.3627C50.4181 59.8115 49.7429 58.962 49.3971 58L37.6987 58C37.0767 59.7277 35.4232 60.9631 33.4812 60.9631C31.0063 60.9631 29 58.9569 29 56.482C29 54.0071 31.0063 52.0008 33.4812 52.0008C35.4367 52.0008 37.0996 53.2534 37.7115 55L49.3835 55ZM34.8256 58.8105L36.17 56.482L34.8256 54.1536L32.1369 54.1536L30.7926 56.482L32.1369 58.8105L34.8256 58.8105Z" fill="#2F8D38"/>
<path d="M43.5001 50.5208C51.4162 50.5208 57.8334 44.1036 57.8334 36.1875H29.1667C29.1667 44.1036 35.584 50.5208 43.5001 50.5208Z" fill="white"/>
<path d="M43.5 18.7188C35.1812 18.7188 28.3737 24.1401 28.272 32.4159C28.2706 32.5304 28.2062 32.6365 28.1038 32.6877C27.6571 32.911 27.375 33.3675 27.375 33.8669V35.0833C27.375 36.1879 28.2704 37.0833 29.375 37.0833H29.8512C30.4722 37.0833 31.0866 37.2265 31.6371 37.5139C35.2831 39.4181 36.8244 40.6667 43.5 40.6667C50.1756 40.6667 51.7169 39.4181 55.3629 37.5139C55.9134 37.2265 56.5278 37.0833 57.1488 37.0833H57.625C58.7296 37.0833 59.625 36.1879 59.625 35.0833V33.8669C59.625 33.3675 59.3429 32.911 58.8962 32.6877C58.7938 32.6365 58.7294 32.5304 58.728 32.4159C58.6263 24.1401 51.8188 18.7188 43.5 18.7188Z" fill="#2F8D38"/>
<path d="M47.4412 18.4252C47.8987 18.5396 48.1914 18.977 48.1512 19.4468L47.4479 27.6724C47.4233 27.96 47.2747 28.2222 47.0144 28.347C46.4613 28.6123 45.315 29.0209 43.5001 29.0209C41.6852 29.0209 40.5388 28.6123 39.9857 28.347C39.7255 28.2222 39.5769 27.96 39.5523 27.6724L38.8489 19.4468C38.8087 18.977 39.1015 18.5395 39.559 18.4252C40.8158 18.1111 42.1369 17.9451 43.5 17.9451C44.8632 17.9451 46.1844 18.1111 47.4412 18.4252Z" fill="white"/>
<path d="M43.4999 34.3959C39.0482 34.3959 36.1886 34.7837 34.7532 35.049C34.4898 35.0977 34.3531 34.793 34.585 34.6588C35.9584 33.8643 38.867 32.6042 43.4999 32.6042C48.1328 32.6042 51.0414 33.8643 52.4149 34.6588C52.6467 34.793 52.5101 35.0977 52.2467 35.049C50.8113 34.7837 47.9516 34.3959 43.4999 34.3959Z" fill="white"/>
<path d="M42.6041 18.6633V17.8229C42.6041 17.3282 43.0052 16.9271 43.5 16.9271C43.9947 16.9271 44.3958 17.3282 44.3958 17.8229V18.6633C44.3958 21.7616 44.6727 24.8537 45.2232 27.9028L45.4545 29.1837H41.5454L41.7767 27.9028C42.3272 24.8538 42.6041 21.7616 42.6041 18.6633Z" fill="#2F8D38"/>
</g>
<defs>
<clipPath id="clip0_299_3150">
<rect width="64" height="64" fill="white"/>
</clipPath>
</defs>
</svg>
