<svg width="22" height="15" viewBox="0 0 22 15" fill="none" xmlns="http://www.w3.org/2000/svg">
<path fill-rule="evenodd" clip-rule="evenodd" d="M20.2168 8.62698C20.2482 9.00854 19.9348 9.32 19.552 9.32H18.8588C18.8588 9.32 18.8587 9.32001 18.8587 9.32001C18.8587 9.32002 18.8588 9.32003 18.8588 9.32003H20.1392C20.2073 9.32003 20.2727 9.3471 20.3209 9.39529C20.7408 9.81527 20.4434 10.5334 19.8495 10.5334H15.8208C15.3457 10.5334 14.9114 10.8018 14.6989 11.2267C14.4865 11.6516 14.0522 11.92 13.5771 11.92H2.66786C2.12179 11.92 1.80733 11.2995 2.13026 10.8591L3.25857 9.32051C3.25868 9.32036 3.25874 9.32017 3.25874 9.31998C3.25874 6.16135 5.22256 3.45119 8.02148 2.29314C8.20689 2.21642 8.37068 2.09368 8.4873 1.93041L8.55365 1.83752C8.92907 1.31193 9.53521 1 10.1811 1H11.9252C16.2868 1 19.8646 4.35622 20.2168 8.62698Z" fill="#44C650"/>
<path d="M14.6989 11.2267L13.8045 10.7795L13.8045 10.7795L14.6989 11.2267ZM2.13026 10.8591L2.93666 11.4505H2.93666L2.13026 10.8591ZM8.55365 1.83752L7.73991 1.25629V1.25629L8.55365 1.83752ZM8.4873 1.93041L9.30104 2.51164L8.4873 1.93041ZM3.25857 9.32051L4.06498 9.91187L3.25857 9.32051ZM20.2168 8.62698L21.2134 8.54479L20.2168 8.62698ZM18.8588 10.32H19.552V8.32H18.8588V10.32ZM18.8588 10.32H20.1392V8.32003H18.8588V10.32ZM19.6138 10.1024C19.4038 9.8924 19.5525 9.53336 19.8495 9.53336V11.5334C21.3343 11.5334 22.0779 9.73813 21.028 8.68818L19.6138 10.1024ZM19.8495 9.53336H15.8208V11.5334H19.8495V9.53336ZM15.8208 9.53336C14.9669 9.53336 14.1864 10.0158 13.8045 10.7795L15.5934 11.6739C15.6364 11.5878 15.7245 11.5334 15.8208 11.5334V9.53336ZM13.8045 10.7795C13.7614 10.8656 13.6734 10.92 13.5771 10.92V12.92C14.4309 12.92 15.2115 12.4376 15.5934 11.6739L13.8045 10.7795ZM13.5771 10.92H2.66786V12.92H13.5771V10.92ZM2.66786 10.92C2.94089 10.92 3.09813 11.2303 2.93666 11.4505L1.32385 10.2678C0.51654 11.3686 1.3027 12.92 2.66786 12.92V10.92ZM2.93666 11.4505L4.06498 9.91187L2.45217 8.72914L1.32385 10.2678L2.93666 11.4505ZM7.63916 1.36911C4.48929 2.67237 2.25874 5.7325 2.25874 9.31998H4.25874C4.25874 6.5902 5.95582 4.23002 8.4038 3.21717L7.63916 1.36911ZM7.73991 1.25629L7.67357 1.34917L9.30104 2.51164L9.36738 2.41876L7.73991 1.25629ZM10.1811 0C9.21226 0 8.30305 0.467897 7.73991 1.25629L9.36738 2.41876C9.55509 2.15597 9.85816 2 10.1811 2V0ZM11.9252 0H10.1811V2H11.9252V0ZM21.2134 8.54479C20.8188 3.75969 16.8116 0 11.9252 0V2C15.7621 2 18.9104 4.95275 19.2201 8.70916L21.2134 8.54479ZM20.1392 10.32C19.9421 10.32 19.7531 10.2417 19.6138 10.1024L21.028 8.68817C20.7922 8.45245 20.4725 8.32003 20.1392 8.32003V10.32ZM8.4038 3.21717C8.74311 3.07678 9.06409 2.84337 9.30104 2.51164L7.67357 1.34917C7.67727 1.34399 7.67066 1.35607 7.63916 1.36911L8.4038 3.21717ZM17.8587 9.32001C17.8587 9.8723 18.3065 10.32 18.8588 10.32V8.32003C19.411 8.32003 19.8587 8.76774 19.8587 9.32001H17.8587ZM18.8588 8.32C18.3065 8.32 17.8587 8.76772 17.8587 9.32001H19.8587C19.8587 9.87229 19.411 10.32 18.8588 10.32V8.32ZM4.06498 9.91187C4.19091 9.74015 4.25874 9.5328 4.25874 9.31998H2.25874C2.25874 9.10755 2.32646 8.90056 2.45217 8.72914L4.06498 9.91187ZM19.552 10.32C20.464 10.32 21.2973 9.56303 21.2134 8.54479L19.2201 8.70916C19.1991 8.45406 19.4057 8.32 19.552 8.32V10.32Z" fill="#44C650"/>
<path d="M16.5566 10.4138L19.2463 14" stroke="#44C650" stroke-width="2"/>
<path d="M3.55664 9.06897H9.38423" stroke="#44C650" stroke-width="2"/>
</svg>
