<svg width="36" height="36" viewBox="0 0 36 36" fill="none" xmlns="http://www.w3.org/2000/svg">
<rect width="36" height="36" rx="18" fill="#FFECD0"/>
<path d="M8.46667 10.4C8.81286 10.1404 9.23393 10 9.66667 10H16C16.5523 10 17 10.4477 17 11V25C17 25.5523 16.5523 26 16 26H9.66667C9.23393 26 8.81286 25.8596 8.46667 25.6L5.8 23.6C5.29639 23.2223 5 22.6295 5 22V14C5 13.3705 5.29639 12.7777 5.8 12.4L8.46667 10.4Z" fill="#FFB077"/>
<path d="M27.1738 12.3423C26.8433 12.1192 26.4536 12 26.0548 12H21C20.4477 12 20 12.4477 20 13V23C20 23.5523 20.4477 24 21 24H26.0548C26.4536 24 26.8433 23.8808 27.1738 23.6577L29.1189 22.3447C29.6698 21.9729 30 21.3516 30 20.687V15.313C30 14.6483 29.6698 14.0271 29.1189 13.6553L27.1738 12.3423Z" fill="#FFB077"/>
<path d="M18.1029 3.646L18.4075 8.52001C18.4374 8.99783 19.057 9.16452 19.3226 8.76617L21.8421 4.98682C22.1859 4.47111 21.9826 3.77004 21.4162 3.51831L19.5071 2.66981C18.821 2.36487 18.056 2.89663 18.1029 3.646Z" fill="#FFB077"/>
<path d="M24.276 26.7439L19.4893 25.7767C19.02 25.6818 18.6986 26.2372 19.0147 26.5968L22.0131 30.0087C22.4223 30.4743 23.1521 30.4593 23.5418 29.9774L24.8555 28.3529C25.3277 27.7691 25.012 26.8926 24.276 26.7439Z" fill="#FFB077"/>
<path d="M17.9625 29.8031L17.9634 27.6485C17.9636 27.1697 17.3556 26.9645 17.0656 27.3454L15.8011 29.0059C15.4256 29.499 15.5845 30.2115 16.134 30.4983L16.4999 30.6892C17.1655 31.0366 17.9623 30.5539 17.9625 29.8031Z" fill="#FFB077"/>
<rect x="31" y="14" width="3" height="8" rx="1" fill="#FFB077"/>
<rect x="1" y="14" width="3" height="8" rx="1" fill="#FFB077"/>
</svg>
