<svg width="64" height="64" viewBox="0 0 64 64" fill="none" xmlns="http://www.w3.org/2000/svg">
<g clip-path="url(#clip0_884_3839)">
<path d="M29 12C29 9.79086 27.2091 8 25 8H9C6.79086 8 5 9.79086 5 12V22C5 24.2091 6.79086 26 9 26H12V32L18 26H25C27.2091 26 29 24.2091 29 22V12Z" fill="#2F8D38"/>
<circle cx="17" cy="21.5" r="1.5" fill="white"/>
<path d="M14 14.0407C14 12.3614 15.3431 11 17 11C18.6569 11 20 12.3614 20 14.0407C20 15.0411 19.5234 15.9286 18.7878 16.4828C17.9415 17.1203 17 18 17 18.5" stroke="white" stroke-width="2" stroke-linecap="round" stroke-linejoin="round"/>
<path d="M33 12C33 9.79086 34.7909 8 37 8H53C55.2091 8 57 9.79086 57 12V22C57 24.2091 55.2091 26 53 26H50V32L44 26H37C34.7909 26 33 24.2091 33 22V12Z" fill="#2F8D38"/>
<circle cx="45" cy="21.5" r="1.5" fill="white"/>
<path d="M43.5998 11.4967C43.5458 10.6867 44.1882 10 45 10V10C45.8118 10 46.4542 10.6867 46.4002 11.4967L45.9599 18.102C45.9262 18.6073 45.5065 19 45 19V19C44.4935 19 44.0738 18.6073 44.0401 18.102L43.5998 11.4967Z" fill="white"/>
<circle cx="14.9999" cy="48" r="10.6667" fill="#2F8D38"/>
<path d="M3.66658 45.3333C3.66658 38.7059 9.12437 33.3333 15.8569 33.3333C18.2011 33.3333 20.3195 34.1793 22.0898 35.1707C23.1137 35.7442 23.7695 36.7886 23.9647 37.9459L24.3333 40.1313L3.66658 45.3333Z" fill="white"/>
<path d="M3.66663 45.8246C3.66663 39.6235 8.80961 36 15.1538 36C21.0117 36 25.6666 38.963 26.3333 45.6296L29.9715 47.1456C30.7027 47.4502 30.7583 48.3709 30.0131 48.6396C29.0315 48.9937 27.6419 49.3333 25.923 49.3333H24.9585C20.358 49.3333 15.7786 48.7084 11.3464 47.4757C10.7554 47.3114 10.1448 47.2281 9.53145 47.2281H5.07014C4.295 47.2281 3.66663 46.5997 3.66663 45.8246Z" fill="white"/>
<path d="M14.4953 37.3333C17.0398 37.3333 19.3566 37.8974 21.2163 39.0869C21.4514 39.2373 21.2779 39.5513 21.0108 39.4708C18.8907 38.8313 17.0621 38.74 14.4953 38.74C11.8713 38.74 9.5305 38.9942 7.5997 39.7554C7.31392 39.8681 7.00599 39.4646 7.26362 39.2973C9.23568 38.0165 11.753 37.3333 14.4953 37.3333Z" fill="#2F8D38"/>
<circle r="10.6667" transform="matrix(-1 0 0 1 49.0001 48)" fill="#2F8D38"/>
<path d="M60.3334 45.3333C60.3334 38.7059 54.8756 33.3333 48.1431 33.3333C45.7989 33.3333 43.6805 34.1793 41.9102 35.1707C40.8863 35.7442 40.2305 36.7886 40.0353 37.9459L39.6667 40.1313L60.3334 45.3333Z" fill="white"/>
<path d="M60.3334 45.8246C60.3334 39.6235 55.1904 36 48.8462 36C42.9883 36 38.3334 38.963 37.6667 45.6296L34.0285 47.1456C33.2973 47.4502 33.2417 48.3709 33.9869 48.6396C34.9685 48.9937 36.3581 49.3333 38.077 49.3333H39.0415C43.642 49.3333 48.2214 48.7084 52.6536 47.4757C53.2446 47.3114 53.8552 47.2281 54.4686 47.2281H58.9299C59.705 47.2281 60.3334 46.5997 60.3334 45.8246Z" fill="white"/>
<path d="M49.5047 37.3333C46.9602 37.3333 44.6434 37.8974 42.7837 39.0869C42.5486 39.2373 42.7221 39.5513 42.9892 39.4708C45.1093 38.8313 46.9379 38.74 49.5047 38.74C52.1287 38.74 54.4695 38.9942 56.4003 39.7554C56.6861 39.8681 56.994 39.4646 56.7364 39.2973C54.7643 38.0165 52.247 37.3333 49.5047 37.3333Z" fill="#2F8D38"/>
</g>
<defs>
<clipPath id="clip0_884_3839">
<rect width="64" height="64" fill="white"/>
</clipPath>
</defs>
</svg>
