<svg width="40" height="40" viewBox="0 0 40 40" fill="none" xmlns="http://www.w3.org/2000/svg">
<circle cx="20" cy="20" r="20" fill="#44C650"/>
<path d="M8 15C8 13.8954 8.89543 13 10 13H11.9296C12.5983 13 13.2228 12.6658 13.5937 12.1094L14.4063 10.8906C14.7772 10.3342 15.4017 10 16.0704 10H23.9296C24.5983 10 25.2228 10.3342 25.5937 10.8906L26.4063 12.1094C26.7772 12.6658 27.4017 13 28.0704 13H30C31.1046 13 32 13.8954 32 15V27C32 28.1046 31.1046 29 30 29H10C8.89543 29 8 28.1046 8 27V15Z" fill="#2F8D38"/>
<path d="M20 16V24" stroke="white" stroke-linecap="round"/>
<path d="M24 20H16" stroke="white" stroke-linecap="round"/>
</svg>
