<svg width="64" height="64" viewBox="0 0 64 64" fill="none" xmlns="http://www.w3.org/2000/svg">
<g clip-path="url(#clip0_126_5779)">
<circle cx="32" cy="32" r="29" fill="#BF5858"/>
<path fill-rule="evenodd" clip-rule="evenodd" d="M46.8492 14.3223C47.6303 13.5413 48.8966 13.5413 49.6777 14.3223C59.4408 24.0854 59.4408 39.9146 49.6777 49.6777C48.8966 50.4587 47.6303 50.4587 46.8492 49.6777C46.0682 48.8966 46.0682 47.6303 46.8492 46.8492C55.0503 38.6482 55.0503 25.3518 46.8492 17.1507C46.0682 16.3697 46.0682 15.1034 46.8492 14.3223ZM17.1508 14.3223C17.9318 15.1034 17.9318 16.3697 17.1508 17.1507C8.94975 25.3518 8.94975 38.6482 17.1508 46.8492C17.9318 47.6303 17.9318 48.8966 17.1508 49.6777C16.3697 50.4587 15.1034 50.4587 14.3223 49.6777C4.55922 39.9146 4.55922 24.0854 14.3223 14.3223C15.1034 13.5413 16.3697 13.5413 17.1508 14.3223Z" fill="#FF7777"/>
<path fill-rule="evenodd" clip-rule="evenodd" d="M41.1924 19.9792C41.9734 19.1981 43.2398 19.1981 44.0208 19.9792C50.6597 26.6181 50.6597 37.3819 44.0208 44.0208C43.2398 44.8019 41.9734 44.8019 41.1924 44.0208C40.4113 43.2398 40.4113 41.9734 41.1924 41.1924C46.2692 36.1156 46.2692 27.8844 41.1924 22.8076C40.4113 22.0266 40.4113 20.7602 41.1924 19.9792ZM22.8076 19.9792C23.5887 20.7602 23.5887 22.0266 22.8076 22.8076C17.7308 27.8844 17.7308 36.1156 22.8076 41.1924C23.5887 41.9734 23.5887 43.2398 22.8076 44.0208C22.0266 44.8019 20.7602 44.8019 19.9792 44.0208C13.3403 37.3819 13.3403 26.6181 19.9792 19.9792C20.7602 19.1981 22.0266 19.1981 22.8076 19.9792Z" fill="#FF7777"/>
<g clip-path="url(#clip1_126_5779)">
<path d="M31.3234 13.4219C31.6241 12.901 32.3759 12.901 32.6766 13.4219L50.9443 45.0625C51.245 45.5833 50.8691 46.2344 50.2677 46.2344H13.7323C13.1309 46.2344 12.755 45.5833 13.0557 45.0625L31.3234 13.4219Z" fill="white"/>
<circle cx="32" cy="39.941" r="2.51736" fill="#FF7777"/>
<path d="M29.0082 22.7647C28.925 21.8496 29.6455 21.0607 30.5643 21.0607H33.4357C34.3545 21.0607 35.075 21.8496 34.9918 22.7647L34.0172 33.4851C33.944 34.29 33.2692 34.9062 32.4611 34.9062H31.5389C30.7307 34.9062 30.0559 34.29 29.9828 33.4851L29.0082 22.7647Z" fill="#FF7777"/>
</g>
</g>
<defs>
<clipPath id="clip0_126_5779">
<rect width="64" height="64" fill="white"/>
</clipPath>
<clipPath id="clip1_126_5779">
<rect width="50" height="50" fill="white" transform="translate(7 6)"/>
</clipPath>
</defs>
</svg>
