<svg width="30" height="30" viewBox="0 0 30 30" fill="none" xmlns="http://www.w3.org/2000/svg">
<g clip-path="url(#clip0_395_3601)">
<path d="M28 28L19.3333 19.3333M22.2222 12.1111C22.2222 13.4389 21.9607 14.7537 21.4526 15.9805C20.9444 17.2072 20.1996 18.3218 19.2607 19.2607C18.3218 20.1996 17.2072 20.9444 15.9805 21.4526C14.7537 21.9607 13.4389 22.2222 12.1111 22.2222C10.7833 22.2222 9.46849 21.9607 8.24176 21.4526C7.01502 20.9444 5.90038 20.1996 4.96148 19.2607C4.02257 18.3218 3.27779 17.2072 2.76966 15.9805C2.26153 14.7537 2 13.4389 2 12.1111C2 9.42948 3.06527 6.85768 4.96148 4.96148C6.85768 3.06527 9.42948 2 12.1111 2C14.7927 2 17.3645 3.06527 19.2607 4.96148C21.1569 6.85768 22.2222 9.42948 22.2222 12.1111Z" stroke="#44C650" stroke-width="2" stroke-linecap="round" stroke-linejoin="round"/>
</g>
<defs>
<clipPath id="clip0_395_3601">
<rect width="30" height="30" fill="white"/>
</clipPath>
</defs>
</svg>
