<svg width="18" height="18" viewBox="0 0 18 18" fill="none" xmlns="http://www.w3.org/2000/svg">
<g clip-path="url(#clip0_395_3651)">
<path d="M16 16L11.3333 11.3333M12.8889 7.44444C12.8889 8.15942 12.7481 8.86739 12.4745 9.52794C12.2008 10.1885 11.7998 10.7887 11.2942 11.2942C10.7887 11.7998 10.1885 12.2008 9.52794 12.4745C8.86739 12.7481 8.15942 12.8889 7.44444 12.8889C6.72947 12.8889 6.0215 12.7481 5.36095 12.4745C4.7004 12.2008 4.1002 11.7998 3.59464 11.2942C3.08908 10.7887 2.68804 10.1885 2.41443 9.52794C2.14082 8.86739 2 8.15942 2 7.44444C2 6.00049 2.57361 4.61567 3.59464 3.59464C4.61567 2.57361 6.00049 2 7.44444 2C8.8884 2 10.2732 2.57361 11.2942 3.59464C12.3153 4.61567 12.8889 6.00049 12.8889 7.44444Z" stroke="#44C650" stroke-width="1.5" stroke-linecap="round" stroke-linejoin="round"/>
</g>
<defs>
<clipPath id="clip0_395_3651">
<rect width="18" height="18" fill="white"/>
</clipPath>
</defs>
</svg>
