<svg width="38" height="36" viewBox="0 0 38 36" fill="none" xmlns="http://www.w3.org/2000/svg">
<circle cx="18" cy="18" r="18" fill="#86A1AD"/>
<path fill-rule="evenodd" clip-rule="evenodd" d="M25.9687 25.9062C30.3353 21.5397 30.3353 14.4603 25.9688 10.0937C25.3992 9.5242 25.3992 8.60079 25.9688 8.03125C26.5383 7.46171 27.4617 7.46171 28.0313 8.03125C33.5368 13.5368 33.5368 22.4632 28.0312 27.9687C27.4617 28.5383 26.5383 28.5383 25.9687 27.9687C25.3992 27.3992 25.3992 26.4758 25.9687 25.9062Z" fill="#9CB3BE"/>
<path fill-rule="evenodd" clip-rule="evenodd" d="M21.8438 21.7812C23.9321 19.6929 23.9321 16.3071 21.8438 14.2187C21.2742 13.6492 21.2742 12.7258 21.8438 12.1562C22.4133 11.5867 23.3367 11.5867 23.9063 12.1562C27.1337 15.3837 27.1337 20.6163 23.9062 23.8437C23.3367 24.4133 22.4133 24.4133 21.8437 23.8437C21.2742 23.2742 21.2742 22.3508 21.8438 21.7812Z" fill="#9CB3BE"/>
<circle cx="18.0627" cy="18.0002" r="1.94454" transform="rotate(90 18.0627 18.0002)" fill="#9CB3BE"/>
<rect x="7" y="11" width="11" height="14" rx="3" fill="#9CB3BE"/>
<rect x="9" y="13" width="7" height="10" rx="1" fill="white"/>
</svg>
