<svg width="64" height="64" viewBox="0 0 64 64" fill="none" xmlns="http://www.w3.org/2000/svg">
<path d="M23 13L18 12L21.5 18L23 13Z" fill="white"/>
<path fill-rule="evenodd" clip-rule="evenodd" d="M20.3586 13.3291L21.3668 15.0575C15.7381 18.5976 12 24.863 12 32C12 32.5522 11.5523 33 11 33C10.4477 33 10 32.5522 10 32C10 24.1231 14.1397 17.2147 20.3586 13.3291Z" fill="white"/>
<path d="M40.9999 51L45.9999 52L42.4999 46L40.9999 51Z" fill="white"/>
<path fill-rule="evenodd" clip-rule="evenodd" d="M43.6413 50.6709L42.6331 48.9425C48.2618 45.4024 51.9999 39.137 51.9999 32C51.9999 31.4477 52.4477 31 52.9999 31C53.5522 31 53.9999 31.4478 53.9999 32C53.9999 39.8769 49.8602 46.7853 43.6413 50.6709Z" fill="white"/>
<path d="M50.9999 23L51.9999 18L45.9999 21.5L50.9999 23Z" fill="white"/>
<path fill-rule="evenodd" clip-rule="evenodd" d="M50.6708 20.3586L48.9425 21.3668C45.4023 15.7381 39.137 12 32 12C31.4477 12 31 11.5523 31 11C31 10.4477 31.4477 10 32 10C39.8768 10 46.7852 14.1397 50.6708 20.3586Z" fill="white"/>
<path d="M13 41L12 46L18 42.5L13 41Z" fill="white"/>
<path fill-rule="evenodd" clip-rule="evenodd" d="M13.3291 43.6414L15.0575 42.6332C18.5976 48.2619 24.863 52 32 52C32.5523 52 33 52.4477 33 53C33 53.5523 32.5522 54 32 54C24.1231 54 17.2147 49.8603 13.3291 43.6414Z" fill="white"/>
<circle cx="32" cy="11" r="8" fill="#2F8D38"/>
<path d="M30.5 14V12M30.5 12V8H32.5C33.6046 8 34.5 8.89543 34.5 10C34.5 11.1046 33.6046 12 32.5 12H30.5Z" stroke="white" stroke-width="2" stroke-linecap="round" stroke-linejoin="round"/>
<circle cx="53" cy="32" r="8" fill="#2F8D38"/>
<path d="M52.6667 35C54.5076 35 56 33.6569 56 32C56 30.3431 54.5076 29 52.6667 29H51V35H52.6667Z" stroke="white" stroke-width="2" stroke-linecap="round" stroke-linejoin="round"/>
<circle cx="32" cy="53" r="8" fill="#2F8D38"/>
<path d="M34 50.1273C33.4331 49.7319 32.7436 49.5 32 49.5C30.067 49.5 28.5 51.067 28.5 53C28.5 54.933 30.067 56.5 32 56.5C32.7436 56.5 33.4331 56.2681 34 55.8727" stroke="white" stroke-width="2" stroke-linecap="round" stroke-linejoin="round"/>
<circle cx="11" cy="32" r="8" fill="#2F8D38"/>
<path fill-rule="evenodd" clip-rule="evenodd" d="M35.6819 26.8552C35.5551 26.5908 35.4509 26.311 35.3722 26.0175C34.6872 23.4611 36.2043 20.8334 38.7607 20.1484C40.4363 19.6995 42.1425 20.1965 43.3122 21.3121L37.9679 22.7441L37.2237 25.5214L39.2568 27.5545L44.6011 26.1225C44.1459 27.6735 42.9168 28.9571 41.2413 29.406C40.1026 29.7111 38.9497 29.5793 37.9607 29.1134L29.3508 37.7233C30.3032 39.6348 29.9827 42.0191 28.3893 43.6125C26.3947 45.607 23.1608 45.607 21.1662 43.6125C19.1716 41.6179 19.1716 38.384 21.1662 36.3894C22.7696 34.786 25.1737 34.4715 27.0912 35.4459L35.6819 26.8552ZM27.555 40.7447L26.8108 37.9674L24.0335 37.2232L22.0004 39.2563L22.7446 42.0336L25.5219 42.7778L27.555 40.7447Z" fill="white"/>
<path d="M8 35L8.75 33.5M14 35L13.25 33.5M8.75 33.5L11 29L13.25 33.5M8.75 33.5H13.25" stroke="white" stroke-width="2" stroke-linecap="round" stroke-linejoin="round"/>
</svg>
