<svg width="64" height="64" viewBox="0 0 64 64" fill="none" xmlns="http://www.w3.org/2000/svg">
<rect width="64" height="64" fill="white"/>
<rect x="4" y="13" width="56" height="38" rx="2" fill="#44C650"/>
<path d="M20.5 20C18.4444 20 16.4205 20.507 14.6075 21.476C12.7946 22.445 11.2487 23.8462 10.1066 25.5554C8.96458 27.2646 8.26168 29.229 8.06019 31.2748C7.8587 33.3205 8.16485 35.3844 8.95151 37.2835C9.73816 39.1827 10.9811 40.8585 12.5701 42.1626C14.1591 43.4667 16.0452 44.3588 18.0614 44.7598C20.0775 45.1609 22.1614 45.0585 24.1286 44.4618C26.0957 43.865 27.8853 42.7924 29.3388 41.3388L24.0355 36.0355C23.4541 36.617 22.7383 37.046 21.9514 37.2847C21.1646 37.5234 20.331 37.5643 19.5245 37.4039C18.7181 37.2435 17.9636 36.8867 17.328 36.3651C16.6924 35.8434 16.1953 35.1731 15.8806 34.4134C15.5659 33.6538 15.4435 32.8282 15.5241 32.0099C15.6047 31.1916 15.8858 30.4058 16.3427 29.7221C16.7995 29.0385 17.4179 28.478 18.143 28.0904C18.8682 27.7028 19.6777 27.5 20.5 27.5V20Z" fill="#25A485"/>
<path d="M20.5 20C22.9723 20 25.389 20.7331 27.4446 22.1066C29.5002 23.4801 31.1024 25.4324 32.0485 27.7165C32.9946 30.0005 33.2421 32.5139 32.7598 34.9386C32.2775 37.3634 31.087 39.5907 29.3388 41.3388L24.0355 36.0355C24.7348 35.3363 25.211 34.4454 25.4039 33.4755C25.5969 32.5055 25.4978 31.5002 25.1194 30.5866C24.741 29.673 24.1001 28.8921 23.2779 28.3427C22.4556 27.7932 21.4889 27.5 20.5 27.5V20Z" fill="white"/>
<rect x="37" y="34" width="4" height="10" fill="white"/>
<rect x="44" y="21" width="4" height="23" fill="white"/>
<rect x="51" y="21" width="4" height="23" fill="white"/>
</svg>
