<svg width="64" height="64" viewBox="0 0 64 64" fill="none" xmlns="http://www.w3.org/2000/svg">
<g clip-path="url(#clip0_322_3977)">
<rect width="64" height="64" fill="white"/>
<path d="M31.134 7.5C31.5189 6.83333 32.4811 6.83333 32.866 7.5L56.2487 48C56.6336 48.6667 56.1525 49.5 55.3827 49.5H8.61732C7.84752 49.5 7.36639 48.6667 7.75129 48L31.134 7.5Z" fill="#44C650"/>
<circle cx="31.9996" cy="41.4445" r="3.22222" fill="white"/>
<path d="M28.1709 19.4588C28.0645 18.2875 28.9867 17.2777 30.1627 17.2777H33.8381C35.0142 17.2777 35.9364 18.2875 35.8299 19.4588L34.5825 33.181C34.4888 34.2112 33.6251 34.9999 32.5907 34.9999H31.4102C30.3758 34.9999 29.5121 34.2112 29.4184 33.181L28.1709 19.4588Z" fill="white"/>
<path fill-rule="evenodd" clip-rule="evenodd" d="M39.8316 36.9058L37.5859 39.1515L41.2079 42.7735C41.2852 42.8508 41.3901 42.8942 41.4995 42.8942L42.0788 42.8942L50.3949 51.2103C50.5559 51.3714 50.8171 51.3714 50.9781 51.2103L51.892 50.2965C52.053 50.1354 52.053 49.8743 51.892 49.7132L43.5743 41.3956V40.8194C43.5743 40.71 43.5309 40.6051 43.4536 40.5278L39.8316 36.9058Z" fill="#25A485"/>
<path d="M47.9812 50.2941C47.9038 50.2168 47.8604 50.1119 47.8604 50.0025L47.8604 47.1791L50.6838 47.1791C50.7931 47.1791 50.898 47.2226 50.9754 47.2999L60.1258 56.4503C60.2869 56.6114 60.2869 56.8725 60.1258 57.0336L57.7148 59.4445C57.5538 59.6056 57.2927 59.6056 57.1316 59.4445L47.9812 50.2941Z" fill="#25A485"/>
<path fill-rule="evenodd" clip-rule="evenodd" d="M49.3204 42.927C49.2491 42.7446 49.1871 42.5564 49.1352 42.3629C48.3786 39.5392 50.0543 36.6368 52.878 35.8802C54.7287 35.3843 56.6133 35.9333 57.9053 37.1656L52.0023 38.7473L51.1803 41.8149L53.426 44.0606L59.3289 42.4789C58.8262 44.192 57.4686 45.6097 55.6179 46.1056C54.4813 46.4102 53.332 46.3206 52.315 45.9208L39.3765 58.8593C38.5954 59.6403 37.3291 59.6403 36.548 58.8593L36.3823 58.6935C35.6012 57.9125 35.6012 56.6461 36.3823 55.8651L49.3204 42.927Z" fill="#25A485"/>
</g>
<defs>
<clipPath id="clip0_322_3977">
<rect width="64" height="64" fill="white"/>
</clipPath>
</defs>
</svg>
