<svg width="64" height="64" viewBox="0 0 64 64" fill="none" xmlns="http://www.w3.org/2000/svg">
<rect width="64" height="64" fill="white"/>
<path d="M27 45.25C35.6985 45.25 42.75 38.1985 42.75 29.5H11.25C11.25 38.1985 18.3015 45.25 27 45.25Z" fill="#25A485"/>
<path d="M27 9.18182C17.8215 9.18182 10.3478 15.9253 10.067 25.0145C10.058 25.3068 9.82178 25.5455 9.5294 25.5455C9.23702 25.5455 9 25.7825 9 26.0749V27.7273C9 28.9323 9.97683 29.9091 11.1818 29.9091H12.3031C12.6418 29.9091 12.9759 29.988 13.2789 30.1394L17.0058 32.0029C17.1229 32.0615 17.2343 32.1301 17.348 32.1948C17.9805 32.5549 20.5362 33.7273 27 33.7273C33.4638 33.7273 36.0195 32.5549 36.652 32.1948C36.7658 32.1301 36.8771 32.0615 36.9941 32.0029L40.7211 30.1394C41.0241 29.988 41.3582 29.9091 41.6969 29.9091H42.8182C44.0232 29.9091 45 28.9323 45 27.7273V26.2514C45 25.8615 44.684 25.5455 44.2941 25.5455C44.0992 25.5455 43.9415 25.3858 43.9375 25.1909C43.7487 16.0126 36.2378 9.18182 27 9.18182Z" fill="#44C650"/>
<path d="M31.4976 9.19711C31.9514 9.31328 32.2437 9.74562 32.2077 10.2126L31.435 20.2585C31.3949 20.7795 30.9605 21.1818 30.4379 21.1818H23.5627C23.0402 21.1818 22.6057 20.7795 22.5657 20.2585L21.7929 10.2126C21.757 9.7456 22.0493 9.31326 22.503 9.19709C23.9352 8.83042 25.4432 8.63635 27.0003 8.63635C28.5574 8.63635 30.0654 8.83043 31.4976 9.19711Z" fill="#25A485"/>
<path d="M16.0908 27.7273C16.0908 27.7273 19.6382 26.6364 27.1906 26.6364C34.7431 26.6364 37.909 27.7273 37.909 27.7273" stroke="#25A485" stroke-width="2" stroke-linecap="round" stroke-linejoin="round"/>
<path d="M25.9093 14.6364V7H28.0911V14.6364L29.182 21.1818H24.8184L25.9093 14.6364Z" fill="#44C650"/>
<circle cx="43" cy="46.25" r="11" fill="#44C650"/>
<path d="M43 37.5V46.25L40 51" stroke="#25A485" stroke-width="2" stroke-linecap="round" stroke-linejoin="round"/>
</svg>
