<svg width="36" height="36" viewBox="0 0 36 36" fill="none" xmlns="http://www.w3.org/2000/svg">
<path d="M34.3478 21.8465L33.2871 22.9072L33.2871 22.9072L34.3478 21.8465ZM24.0567 23.5292L25.3984 24.2L25.3984 24.2L24.0567 23.5292ZM23.7259 24.1909L22.3843 23.52L22.3843 23.52L23.7259 24.1909ZM2.14481 24.2244L3.35442 25.1114L3.35442 25.1114L2.14481 24.2244ZM14.1626 7.37814L12.942 6.50628L12.942 6.50629L14.1626 7.37814ZM12.9837 8.80757L12.4404 7.40943L12.9837 8.80757ZM13.3343 8.53776L14.5549 9.40962L13.3343 8.53776ZM33.391 20.8897L32.3303 21.9504L33.391 20.8897ZM33.1514 19.9201L31.6535 19.9996L33.1514 19.9201ZM4.75106 20.6704L5.96066 21.5574L4.75106 20.6704ZM30.8512 22.17H32.4212V19.17H30.8512V22.17ZM30.8512 22.17H32.8607V19.17H30.8512V22.17ZM32.3303 21.9504L33.2871 22.9072L35.4084 20.7858L34.4516 19.8291L32.3303 21.9504ZM33.2871 22.9072C32.6571 22.2772 33.1033 21.2 33.9942 21.2V24.2C35.776 24.2 36.6683 22.0458 35.4084 20.7858L33.2871 22.9072ZM33.9942 21.2H25.3984V24.2H33.9942V21.2ZM25.3984 21.2C24.2621 21.2 23.2233 21.842 22.7151 22.8584L25.3984 24.2L25.3984 24.2V21.2ZM22.7151 22.8584L22.3843 23.52L25.0675 24.8617L25.3984 24.2L22.7151 22.8584ZM22.3843 23.52L22.3843 23.52V26.52C23.5206 26.52 24.5594 25.878 25.0675 24.8617L22.3843 23.52ZM22.3843 23.52H2.54802V26.52H22.3843V23.52ZM2.54802 23.52C3.36711 23.52 3.83881 24.4509 3.35442 25.1114L0.935205 23.3373C-0.0335713 24.6584 0.909821 26.52 2.54802 26.52V23.52ZM3.35442 25.1114L5.96066 21.5574L3.54145 19.7834L0.935205 23.3373L3.35442 25.1114ZM12.4404 7.40943C7.07576 9.49411 3.25119 14.631 3.25119 20.67H6.25119C6.25119 15.942 9.24587 11.8694 13.5271 10.2057L12.4404 7.40943ZM12.942 6.50629L12.1137 7.6659L14.5549 9.40962L15.3832 8.25L12.942 6.50629ZM15.3832 5.25C14.4143 5.25 13.5051 5.7179 12.942 6.50628L15.3832 8.25L15.3832 8.25V5.25ZM19.2512 5.25H15.3832V8.25H19.2512V5.25ZM34.6493 19.8406C34.2176 11.7093 27.4892 5.25 19.2512 5.25V8.25C25.8857 8.25 31.3059 13.4526 31.6535 19.9996L34.6493 19.8406ZM13.5271 10.2057C13.9262 10.0506 14.2895 9.78108 14.5549 9.40962L12.1137 7.6659C12.204 7.53937 12.3219 7.4555 12.4404 7.40943L13.5271 10.2057ZM32.8607 22.17C32.6617 22.17 32.471 22.091 32.3303 21.9504L34.4516 19.8291C34.0297 19.4071 33.4574 19.17 32.8607 19.17V22.17ZM32.4212 22.17C33.642 22.17 34.7196 21.1648 34.6493 19.8406L31.6535 19.9996C31.6271 19.5027 32.0288 19.17 32.4212 19.17V22.17ZM5.96066 21.5574C6.14956 21.2999 6.25119 20.9889 6.25119 20.67H3.25119C3.25119 20.3513 3.35273 20.0407 3.54145 19.7834L5.96066 21.5574ZM29.3512 20.67C29.3512 21.4985 30.0228 22.17 30.8512 22.17V19.17C31.6796 19.17 32.3512 19.8416 32.3512 20.67H29.3512ZM30.8512 19.17C30.0228 19.17 29.3512 19.8416 29.3512 20.67H32.3512C32.3512 21.4984 31.6796 22.17 30.8512 22.17V19.17Z" fill="#F47E29"/>
<rect x="17.25" y="14.25" width="9.75" height="4.5" rx="2.25" stroke="#F47E29" stroke-width="3"/>
<path d="M27 22.5L31.5 28.5" stroke="#F47E29" stroke-width="3"/>
<path d="M5.25 20.25H15" stroke="#F47E29" stroke-width="3"/>
</svg>
