<svg width="64" height="64" viewBox="0 0 64 64" fill="none" xmlns="http://www.w3.org/2000/svg">
<g clip-path="url(#clip0_322_4089)">
<rect width="64" height="64" fill="white"/>
<circle cx="22.5579" cy="13.3836" r="6.3821" fill="#44C650"/>
<path d="M15.3778 11.2842C15.3778 7.57395 18.455 5.40594 22.2509 5.40594C25.6226 5.40594 28.3282 7.04659 28.8841 10.7225C28.9253 10.9951 29.0985 11.2337 29.3531 11.3398L32.1309 12.4972C32.1309 12.4972 30.8422 13.3836 28.6943 13.3836H24.4125C24.119 13.3836 23.8281 13.3319 23.5525 13.2309L20.9493 12.2767C20.6736 12.1756 20.3824 12.1239 20.0889 12.1239H16.2176C15.7538 12.1239 15.3778 11.748 15.3778 11.2842Z" fill="#25A485"/>
<path d="M15.3778 10.9903C15.3778 7.02496 18.6049 3.81042 22.5856 3.81042C23.9796 3.81042 25.3237 4.27652 26.4141 4.85244C27.0251 5.17517 27.4087 5.79267 27.5223 6.47429L27.7432 7.79924L15.3778 10.9903Z" fill="#25A485"/>
<path fill-rule="evenodd" clip-rule="evenodd" d="M22.1905 35.0693L16.7932 33.5901L13.5897 45.2791L6.03038 54.6171C5.05802 55.8183 5.24349 57.5803 6.44465 58.5526C7.6458 59.525 9.40778 59.3395 10.3801 58.1383L18.6772 47.889L22.1905 35.0693Z" fill="#25A485"/>
<path fill-rule="evenodd" clip-rule="evenodd" d="M20.8145 21.9569L24.5208 22.208L26.6209 24.285L27.1051 30.1821L33.2579 35.0372C34.4711 35.9945 34.6785 37.754 33.7212 38.9672C32.7639 40.1804 31.0043 40.3878 29.7912 39.4305L21.7268 33.067L20.8145 21.9569Z" fill="#25A485"/>
<path fill-rule="evenodd" clip-rule="evenodd" d="M16.3276 39.2597C15.0913 38.6635 14.3876 37.2718 14.7113 35.8789L16.2983 29.0503L14.8793 29.5739L11.8527 36.8036C11.2559 38.2291 9.61653 38.9009 8.19101 38.3042C6.76549 37.7074 6.09366 36.068 6.69044 34.6425L10.6574 25.1666L19.121 22.0434C19.9917 21.4975 21.0712 21.2852 22.1513 21.5363L24.4182 22.0631C26.032 22.4382 27.0362 24.0505 26.6612 25.6644L23.7546 38.1702L30.6289 43.9012L31.5555 56.5791C31.6681 58.1204 30.51 59.4612 28.9687 59.5738C27.4274 59.6865 26.0866 58.5283 25.974 56.9871L25.2173 46.6331L16.3276 39.2597Z" fill="#44C650"/>
<path d="M37.3838 31.6581C37.3838 31.1058 37.8315 30.6581 38.3838 30.6581H41.0882C41.6405 30.6581 42.0882 31.1058 42.0882 31.6581V59.5813H37.3838V31.6581Z" fill="#25A485"/>
<rect x="37.3838" y="36.3356" width="4.70444" height="6.45246" fill="#44C650"/>
<path d="M32.7959 57.6595C32.7959 57.1073 33.2436 56.6595 33.7959 56.6595H45.6751C46.2274 56.6595 46.6751 57.1073 46.6751 57.6595V59.5814H32.7959V57.6595Z" fill="#25A485"/>
<path d="M50.2194 41.0809L52.1353 46.0099L56.9753 43.8793L54.8447 48.7194L59.7737 50.6353L54.8447 52.5512L56.9753 57.3912L52.1353 55.2606L50.2194 60.1896L48.3035 55.2606L43.4634 57.3912L45.594 52.5512L40.665 50.6353L45.594 48.7194L43.4634 43.8793L48.3035 46.0099L50.2194 41.0809Z" fill="#44C650"/>
</g>
<defs>
<clipPath id="clip0_322_4089">
<rect width="64" height="64" fill="white"/>
</clipPath>
</defs>
</svg>
