<svg width="64" height="64" viewBox="0 0 64 64" fill="none" xmlns="http://www.w3.org/2000/svg">
<rect width="64" height="64" fill="white"/>
<path fill-rule="evenodd" clip-rule="evenodd" d="M28.0625 15.3125C22.5051 9.75513 13.4949 9.75513 7.9375 15.3125C7.21263 16.0374 6.03737 16.0374 5.3125 15.3125C4.58763 14.5876 4.58763 13.4124 5.3125 12.6875C12.3196 5.68039 23.6804 5.68039 30.6875 12.6875C31.4124 13.4124 31.4124 14.5876 30.6875 15.3125C29.9626 16.0374 28.7874 16.0374 28.0625 15.3125Z" fill="#44C650"/>
<path fill-rule="evenodd" clip-rule="evenodd" d="M22.8125 20.5624C20.1546 17.9046 15.8454 17.9046 13.1875 20.5624C12.4626 21.2873 11.2874 21.2873 10.5625 20.5624C9.83763 19.8376 9.83763 18.6623 10.5625 17.9374C14.6701 13.8298 21.3299 13.8298 25.4375 17.9374C26.1624 18.6623 26.1624 19.8376 25.4375 20.5624C24.7126 21.2873 23.5374 21.2873 22.8125 20.5624Z" fill="#44C650"/>
<circle cx="18.0003" cy="25.375" r="2.47487" fill="#44C650"/>
<path d="M35.7143 25.7532C47.3715 25.7532 56.8495 34.373 57.0878 45.9551C57.0929 46.201 57.2918 46.4025 57.5378 46.4025C58.0297 46.4025 58.4286 46.8013 58.4286 47.2933V49.1558C58.4286 50.6763 57.1959 51.909 55.6753 51.909H54.2603C53.8329 51.909 53.4113 52.0085 53.029 52.1997L48.3259 54.5512C48.1782 54.6251 48.0377 54.7117 47.8942 54.7934C47.0961 55.2477 43.8709 56.7272 35.7143 56.7272C27.5576 56.7272 24.3325 55.2477 23.5344 54.7934C23.3908 54.7117 23.2504 54.6251 23.1026 54.5512L18.3995 52.1997C18.0172 52.0085 17.5957 51.909 17.1682 51.909H15.7532C14.2327 51.909 13 50.6763 13 49.1558V47.7386C13 47.0007 13.5982 46.4025 14.3361 46.4025C14.3361 41.5491 15.9534 37.1966 18.6786 33.7533C22.5828 28.8201 28.7608 25.7532 35.7143 25.7532Z" fill="#44C650"/>
<path d="M18.6784 33.7533C15.9533 37.1966 14.3359 41.5491 14.3359 46.4025C16.7342 46.4025 18.6784 44.4583 18.6784 42.0601V33.7533Z" fill="#25A485"/>
<path d="M41.5925 25.8255C42.0451 25.946 42.3375 26.3777 42.3016 26.8447L41.2918 39.9727C41.2517 40.4937 40.8173 40.896 40.2947 40.896H31.1338C30.6113 40.896 30.1768 40.4937 30.1367 39.9727L29.1269 26.8447C29.091 26.3777 29.3834 25.9459 29.836 25.8255C31.7036 25.3285 33.6756 25.0649 35.7142 25.0649C37.7529 25.0649 39.7249 25.3285 41.5925 25.8255Z" fill="#25A485"/>
<path d="M21.9482 49.1559C21.9482 49.1559 26.4247 47.7793 35.9552 47.7793C45.4856 47.7793 49.4807 49.1559 49.4807 49.1559" stroke="#25A485" stroke-width="2" stroke-linecap="round" stroke-linejoin="round"/>
<path d="M34.3376 32.6364V24C34.3376 23.4477 34.7853 23 35.3376 23H36.0908C36.6431 23 37.0908 23.4477 37.0908 24V32.6364L38.4674 40.8961H32.9609L34.3376 32.6364Z" fill="#44C650"/>
</svg>
