<svg width="64" height="64" viewBox="0 0 64 64" fill="none" xmlns="http://www.w3.org/2000/svg">
<rect width="64" height="64" fill="white"/>
<path d="M8 6C8 4.34315 9.34315 3 11 3H45.5V10.5C45.5 12.1569 46.8431 13.5 48.5 13.5H56V58C56 59.6569 54.6569 61 53 61H11C9.34315 61 8 59.6569 8 58V6Z" fill="#44C650"/>
<path d="M30.375 24.5C30.375 22.8431 29.0319 21.5 27.375 21.5H15.375C13.7181 21.5 12.375 22.8431 12.375 24.5V32C12.375 33.6569 13.7181 35 15.375 35H17.625V39.5L22.125 35H27.375C29.0319 35 30.375 33.6569 30.375 32V24.5Z" fill="#25A485"/>
<path d="M19.125 26.0305C19.125 24.771 20.1324 23.75 21.375 23.75C22.6176 23.75 23.625 24.771 23.625 26.0305C23.625 26.7808 23.2676 27.4464 22.7159 27.8621C22.0811 28.3402 21.375 28.9553 21.375 29.75" stroke="#25A485" stroke-width="1.5" stroke-linecap="round" stroke-linejoin="round"/>
<circle cx="21.5" cy="32" r="1" fill="#25A485"/>
<path d="M33.375 24.5C33.375 22.8431 34.7181 21.5 36.375 21.5H48.375C50.0319 21.5 51.375 22.8431 51.375 24.5V32C51.375 33.6569 50.0319 35 48.375 35H46.125V39.5L41.625 35H36.375C34.7181 35 33.375 33.6569 33.375 32V24.5Z" fill="white"/>
<circle cx="42.375" cy="31.875" r="1.125" fill="#25A485"/>
<path d="M41.1493 25.4926C41.0693 24.6934 41.6969 24 42.5 24C43.3031 24 43.9307 24.6934 43.8507 25.4926L43.4896 29.1045C43.4387 29.6129 43.0109 30 42.5 30C41.9891 30 41.5613 29.6129 41.5104 29.1045L41.1493 25.4926Z" fill="#25A485"/>
<circle cx="20.625" cy="50" r="6" fill="white"/>
<path d="M13.875 48.0263C13.875 44.5382 16.7679 42.5 20.3365 42.5C23.4982 42.5 26.0369 44.0345 26.5685 47.4715C26.6107 47.744 26.7837 47.9828 27.0383 48.0889L29.625 49.1667C29.625 49.1667 28.4135 50 26.3942 50H22.3946C22.101 50 21.8109 49.9483 21.5353 49.8473L19.1378 48.9685C18.8622 48.8675 18.5709 48.8158 18.2774 48.8158H14.6645C14.2285 48.8158 13.875 48.4623 13.875 48.0263Z" fill="#25A485"/>
<path d="M13.875 47.75C13.875 44.0221 16.9088 41 20.6512 41C21.9373 41 23.1782 41.422 24.1929 41.9494C24.806 42.2682 25.1895 42.8867 25.3031 43.5683L25.5 44.75L13.875 47.75Z" fill="#25A485"/>
<circle r="6" transform="matrix(-1 0 0 1 44 50)" fill="white"/>
<path d="M50.75 48.0263C50.75 44.5382 47.8571 42.5 44.2885 42.5C41.1268 42.5 38.5881 44.0345 38.0565 47.4715C38.0143 47.744 37.8413 47.9828 37.5867 48.0889L35 49.1667C35 49.1667 36.2115 50 38.2308 50H42.2304C42.524 50 42.8141 49.9483 43.0897 49.8473L45.4872 48.9685C45.7628 48.8675 46.0541 48.8158 46.3476 48.8158H49.9605C50.3965 48.8158 50.75 48.4623 50.75 48.0263Z" fill="#25A485"/>
<path d="M50.75 47.75C50.75 44.0221 47.7162 41 43.9738 41C42.6877 41 41.4468 41.422 40.4321 41.9494C39.819 42.2682 39.4355 42.8867 39.3219 43.5683L39.125 44.75L50.75 47.75Z" fill="#25A485"/>
<path d="M56 13.5H48.5C46.8431 13.5 45.5 12.1569 45.5 10.5V3L56 13.5Z" fill="#25A485"/>
</svg>
