<svg width="64" height="64" viewBox="0 0 64 64" fill="none" xmlns="http://www.w3.org/2000/svg">
<rect width="64" height="64" fill="white"/>
<path d="M10 58C7.79086 58 6 56.2091 6 54V9C6 7.13252 7.27976 5.56394 9.01012 5.12343C9.54533 4.98717 10 5.44772 10 6V13H56C56.5523 13 57 13.4477 57 14V57C57 57.5523 56.5523 58 56 58H10Z" fill="#44C650"/>
<path d="M9.01012 50.1234C7.27976 50.5639 6 52.1325 6 54V9C6 7.13252 7.27976 5.56394 9.01012 5.12343C9.54533 4.98717 10 5.44772 10 6V49C10 49.5523 9.54533 49.9872 9.01012 50.1234Z" fill="#25A485"/>
<path d="M32 45.75C38.7655 45.75 44.25 40.2655 44.25 33.5H19.75C19.75 40.2655 25.2345 45.75 32 45.75Z" fill="#25A485"/>
<path d="M32 17.6969C24.8611 17.6969 19.0483 22.9418 18.8299 30.0112C18.8229 30.2385 18.6392 30.4242 18.4118 30.4242C18.1843 30.4242 18 30.6085 18 30.8359V32.1211C18 33.0584 18.7598 33.8181 19.697 33.8181H20.5691C20.8325 33.8181 21.0924 33.8794 21.328 33.9973L24.2268 35.4466C24.3178 35.4922 24.4044 35.5455 24.4929 35.5959C24.9848 35.8759 26.9726 36.7878 32 36.7878C37.0274 36.7878 39.0152 35.8759 39.5071 35.5959C39.5956 35.5455 39.6822 35.4922 39.7732 35.4467L42.672 33.9973C42.9076 33.8794 43.1675 33.8181 43.4309 33.8181H44.303C45.2402 33.8181 46 33.0584 46 32.1211V30.9732C46 30.67 45.7542 30.4242 45.451 30.4242C45.2994 30.4242 45.1767 30.3 45.1736 30.1484C45.0267 23.0098 39.1849 17.6969 32 17.6969Z" fill="white"/>
<path d="M35.3255 17.6659C35.7807 17.7761 36.0728 18.2093 36.0369 18.6763L35.4653 26.107C35.4253 26.628 34.9908 27.0303 34.4683 27.0303H29.5325C29.0099 27.0303 28.5755 26.628 28.5354 26.107L27.9638 18.6763C27.9279 18.2093 28.2201 17.7761 28.6753 17.6658C29.7375 17.4085 30.8517 17.2728 32.0003 17.2728C33.149 17.2728 34.2633 17.4085 35.3255 17.6659Z" fill="#25A485"/>
<path d="M23.5156 32.1213C23.5156 32.1213 26.2747 31.2728 32.1488 31.2728C38.0229 31.2728 40.4853 32.1213 40.4853 32.1213" stroke="#25A485" stroke-width="2" stroke-linecap="round" stroke-linejoin="round"/>
<path d="M31.1512 21.9394V16H32.8482V21.9394L33.6967 27.0303H30.3027L31.1512 21.9394Z" fill="white"/>
<path fill-rule="evenodd" clip-rule="evenodd" d="M38.3832 49C38.4742 48.7413 38.5902 48.4874 38.7323 48.2413C39.9697 46.098 42.7104 45.3637 44.8537 46.6011C46.2585 47.4122 47.058 48.869 47.0937 50.3801L42.6131 47.7932L40.2846 49.1376L40.2846 51.8262L44.7653 54.4132C43.4387 55.1377 41.7773 55.1738 40.3725 54.3627C39.4178 53.8115 38.7427 52.962 38.3968 52L26.6984 52C26.0765 53.7277 24.423 54.9631 22.4809 54.9631C20.0061 54.9631 17.9998 52.9569 17.9998 50.482C17.9998 48.0071 20.0061 46.0008 22.4809 46.0008C24.4364 46.0008 26.0994 47.2534 26.7112 49L38.3832 49ZM23.8254 52.8105L25.1697 50.482L23.8254 48.1536L21.1367 48.1536L19.7923 50.482L21.1367 52.8105L23.8254 52.8105Z" fill="white"/>
</svg>
